{
  "header": {
    "PPQ": 384,
    "timeSignature": [
      4,
      4
    ],
    "bpm": 169.0002788504601,
    "name": ""
  },
  "tempo": [
    {
      "absoluteTime": 0,
      "seconds": 0,
      "bpm": 169.0002788504601
    }
  ],
  "timeSignature": [
    {
      "absoluteTime": 0,
      "seconds": 0,
      "numerator": 4,
      "denominator": 2,
      "click": 24,
      "notesQ": 8
    }
  ],
  "startTime": 0,
  "duration": 140.5027267500006,
  "tracks": [
    {
      "startTime": 0,
      "duration": 0,
      "length": 0,
      "notes": [],
      "controlChanges": {},
      "id": 0
    },
    {
      "startTime": 0,
      "duration": 140.5027267500006,
      "length": 1112,
      "notes": [
        {
          "name": "G#3"{
  "header": {
    "PPQ": 480,
    "bpm": 130.00013000013,
    "timeSignature": [
      4,
      4
    ],
    "name": "Theme to \"South Park\""
  },
  "tempo": [
    {
      "absoluteTime": 0,
      "seconds": 0,
      "bpm": 130.00013000013
    }
  ],
  "timeSignature": [
    {
      "absoluteTime": 0,
      "seconds": 0,
      "numerator": 4,
      "denominator": 2,
      "click": 24,
      "notesQ": 8
    }
  ],
  "startTime": 0,
  "duration": 29.446124399999935,
  "tracks": [
    {
      "startTime": 0,
      "duration": 0,
      "length": 0,
      "notes": [],
      "controlChanges": {},
      "id": 0
    },
    {
      "startTime": 0,
      "duration": 28.79997120000005,
      "length": 222,
      "notes": [
        {
          "name": "C#5",
          "midi": 73,
          "time": 0,
          "velocity": 1,
          "duration": 0.06153839999999999
        },
        {
          "name": "C5",
          "midi": 72,
          "time": 0,
          "velocity": 1,
          "duration": 0.06153839999999999
        },
        {
          "name": "C5",
          "midi": 72,
          "time": 0.15384599999999998,
          "velocity": 1,
          "duration": 0.06153839999999999
        },
        {
          "name": "C#5",
          "midi": 73,
          "time": 0.15384599999999998,
          "velocity": 1,
          "duration": 0.06153839999999999
        },
        {
          "name": "C#5",
          "midi": 73,
          "time": 0.23076899999999997,
          "velocity": 1,
          "duration": 0.06153840000000002
        },
        {
          "name": "C5",
          "midi": 72,
          "time": 0.23076899999999997,
          "velocity": 1,
          "duration": 0.06153840000000002
        },
        {
          "name": "C#5",
          "midi": 73,
          "time": 0.384615,
          "velocity": 1,
          "duration": 0.06153839999999999
        },
        {
          "name": "C5",
          "midi": 72,
          "time": 0.384615,
          "velocity": 1,
          "duration": 0.06153839999999999
        },
        {
          "name": "C#5",
          "midi": 73,
          "time": 0.461538,
          "velocity": 1,
          "duration": 0.18461519999999998
        },
        {
          "name": "C5",
          "midi": 72,
          "time": 0.461538,
          "velocity": 1,
          "duration": 0.18461519999999998
        },
        {
          "name": "C5",
          "midi": 72,
          "time": 0.692307,
          "velocity": 1,
          "duration": 0.06153839999999999
        },
        {
          "name": "C#5",
          "midi": 73,
          "time": 0.692307,
          "velocity": 1,
          "duration": 0.06153839999999999
        },
        {
          "name": "C5",
          "midi": 72,
          "time": 0.8461529999999999,
          "velocity": 1,
          "duration": 0.06153839999999999
        },
        {
          "name": "C#5",
          "midi": 73,
          "time": 0.8461529999999999,
          "velocity": 1,
          "duration": 0.06153839999999999
        },
        {
          "name": "C5",
          "midi": 72,
          "time": 0.9230759999999999,
          "velocity": 1,
          "duration": 0.06153839999999999
        },
        {
          "name": "C#5",
          "midi": 73,
          "time": 0.9230759999999999,
          "velocity": 1,
          "duration": 0.06153839999999999
        },
        {
          "name": "C#5",
          "midi": 73,
          "time": 1.076922,
          "velocity": 1,
          "duration": 0.061538400000000104
        },
        {
          "name": "C5",
          "midi": 72,
          "time": 1.076922,
          "velocity": 1,
          "duration": 0.061538400000000104
        },
        {
          "name": "C5",
          "midi": 72,
          "time": 1.153845,
          "velocity": 1,
          "duration": 0.1846152000000001
        },
        {
          "name": "C#5",
          "midi": 73,
          "time": 1.153845,
          "velocity": 1,
          "duration": 0.1846152000000001
        },
        {
          "name": "F#4",
          "midi": 66,
          "time": 1.384614,
          "velocity": 1,
          "duration": 0.1846152000000001
        },
        {
          "name": "A4",
          "midi": 69,
          "time": 1.615383,
          "velocity": 1,
          "duration": 0.1846152000000001
        },
        {
          "name": "A4",
          "midi": 69,
          "time": 1.846152,
          "velocity": 1,
          "duration": 0.06153839999999988
        },
        {
          "name": "D#4",
          "midi": 63,
          "time": 1.846152,
          "velocity": 1,
          "duration": 0.06153839999999988
        },
        {
          "name": "A4",
          "midi": 69,
          "time": 1.999998,
          "velocity": 1,
          "duration": 0.061538400000000104
        },
        {
          "name": "D#4",
          "midi": 63,
          "time": 1.999998,
          "velocity": 1,
          "duration": 0.061538400000000104
        },
        {
          "name": "A4",
          "midi": 69,
          "time": 2.076921,
          "velocity": 1,
          "duration": 0.1846152000000001
        },
        {
          "name": "D#4",
          "midi": 63,
          "time": 2.076921,
          "velocity": 1,
          "duration": 0.1846152000000001
        },
        {
          "name": "D4",
          "midi": 62,
          "time": 2.30769,
          "velocity": 1,
          "duration": 0.06153839999999988
        },
        {
          "name": "G#4",
          "midi": 68,
          "time": 2.30769,
          "velocity": 1,
          "duration": 0.06153839999999988
        },
        {
          "name": "G#4",
          "midi": 68,
          "time": 2.4615359999999997,
          "velocity": 1,
          "duration": 0.06153839999999988
        },
        {
          "name": "D4",
          "midi": 62,
          "time": 2.4615359999999997,
          "velocity": 1,
          "duration": 0.06153839999999988
        },
        {
          "name": "G#4",
          "midi": 68,
          "time": 2.5384589999999996,
          "velocity": 1,
          "duration": 0.1846152000000001
        },
        {
          "name": "D4",
          "midi": 62,
          "time": 2.5384589999999996,
          "velocity": 1,
          "duration": 0.1846152000000001
        },
        {
          "name": "F#4",
          "midi": 66,
          "time": 2.7692279999999996,
          "velocity": 1,
          "duration": 0.1846152000000001
        },
        {
          "name": "C4",
          "midi": 60,
          "time": 2.7692279999999996,
          "velocity": 1,
          "duration": 0.1846152000000001
        },
        {
          "name": "C4",
          "midi": 60,
          "time": 3.9230729999999996,
          "velocity": 1,
          "duration": 0.18461519999999965
        },
        {
          "name": "F#4",
          "midi": 66,
          "time": 3.9230729999999996,
          "velocity": 1,
          "duration": 0.18461519999999965
        },
        {
          "name": "F#4",
          "midi": 66,
          "time": 4.384611,
          "velocity": 1,
          "duration": 0.18461519999999965
        },
        {
          "name": "C4",
          "midi": 60,
          "time": 4.384611,
          "velocity": 1,
          "duration": 0.18461519999999965
        },
        {
          "name": "F#4",
          "midi": 66,
          "time": 4.846149,
          "velocity": 1,
          "duration": 0.18461519999999965
        },
        {
          "name": "C4",
          "midi": 60,
          "time": 4.846149,
          "velocity": 1,
          "duration": 0.18461519999999965
        },
        {
          "name": "C4",
          "midi": 60,
          "time": 5.307687,
          "velocity": 1,
          "duration": 0.18461519999999965
        },
        {
          "name": "F#4",
          "midi": 66,
          "time": 5.307687,
          "velocity": 1,
          "duration": 0.18461519999999965
        },
        {
          "name": "F#4",
          "midi": 66,
          "time": 5.769225,
          "velocity": 1,
          "duration": 0.18461519999999965
        },
        {
          "name": "C4",
          "midi": 60,
          "time": 5.769225,
          "velocity": 1,
          "duration": 0.18461519999999965
        },
        {
          "name": "C4",
          "midi": 60,
          "time": 6.230763,
          "velocity": 1,
          "duration": 0.18461519999999965
        },
        {
          "name": "F#4",
          "midi": 66,
          "time": 6.230763,
          "velocity": 1,
          "duration": 0.18461519999999965
        },
        {
          "name": "C4",
          "midi": 60,
          "time": 6.692301,
          "velocity": 1,
          "duration": 0.18461519999999965
        },
        {
          "name": "F#4",
          "midi": 66,
          "time": 6.692301,
          "velocity": 1,
          "duration": 0.18461519999999965
        },
        {
          "name": "C4",
          "midi": 60,
          "time": 7.153839,
          "velocity": 1,
          "duration": 0.18461519999999965
        },
        {
          "name": "F#4",
          "midi": 66,
          "time": 7.153839,
          "velocity": 1,
          "duration": 0.18461519999999965
        },
        {
          "name": "D#4",
          "midi": 63,
          "time": 7.384607999999999,
          "velocity": 1,
          "duration": 0.09230759999999982
        },
        {
          "name": "A4",
          "midi": 69,
          "time": 7.384607999999999,
          "velocity": 1,
          "duration": 0.09230759999999982
        },
        {
          "name": "D#4",
          "midi": 63,
          "time": 7.615376999999999,
          "velocity": 1,
          "duration": 0.09230759999999982
        },
        {
          "name": "A4",
          "midi": 69,
          "time": 7.615376999999999,
          "velocity": 1,
          "duration": 0.09230759999999982
        },
        {
          "name": "A4",
          "midi": 69,
          "time": 7.846145999999998,
          "velocity": 1,
          "duration": 0.3692304000000002
        },
        {
          "name": "D#4",
          "midi": 63,
          "time": 7.846145999999998,
          "velocity": 1,
          "duration": 0.3692304000000002
        },
        {
          "name": "C5",
          "midi": 72,
          "time": 8.307683999999998,
          "velocity": 1,
          "duration": 0.09230759999999982
        },
        {
          "name": "F#4",
          "midi": 66,
          "time": 8.307683999999998,
          "velocity": 1,
          "duration": 0.09230759999999982
        },
        {
          "name": "F#4",
          "midi": 66,
          "time": 8.538452999999999,
          "velocity": 1,
          "duration": 0.09230759999999982
        },
        {
          "name": "C5",
          "midi": 72,
          "time": 8.538452999999999,
          "velocity": 1,
          "duration": 0.09230759999999982
        },
        {
          "name": "F#4",
          "midi": 66,
          "time": 8.769222,
          "velocity": 1,
          "duration": 0.3692303999999993
        },
        {
          "name": "C5",
          "midi": 72,
          "time": 8.769222,
          "velocity": 1,
          "duration": 0.3692303999999993
        },
        {
          "name": "A4",
          "midi": 69,
          "time": 9.230759999999998,
          "velocity": 1,
          "duration": 0.09230759999999982
        },
        {
          "name": "D#4",
          "midi": 63,
          "time": 9.230759999999998,
          "velocity": 1,
          "duration": 0.09230759999999982
        },
        {
          "name": "A4",
          "midi": 69,
          "time": 9.461528999999999,
          "velocity": 1,
          "duration": 0.09230759999999982
        },
        {
          "name": "D#4",
          "midi": 63,
          "time": 9.461528999999999,
          "velocity": 1,
          "duration": 0.09230759999999982
        },
        {
          "name": "D#4",
          "midi": 63,
          "time": 9.692298,
          "velocity": 1,
          "duration": 0.3692303999999993
        },
        {
          "name": "A4",
          "midi": 69,
          "time": 9.692298,
          "velocity": 1,
          "duration": 0.3692303999999993
        },
        {
          "name": "C5",
          "midi": 72,
          "time": 10.153835999999998,
          "velocity": 1,
          "duration": 0.09230759999999982
        },
        {
          "name": "F#4",
          "midi": 66,
          "time": 10.153835999999998,
          "velocity": 1,
          "duration": 0.09230759999999982
        },
        {
          "name": "C5",
          "midi": 72,
          "time": 10.384604999999999,
          "velocity": 1,
          "duration": 0.09230759999999982
        },
        {
          "name": "F#4",
          "midi": 66,
          "time": 10.384604999999999,
          "velocity": 1,
          "duration": 0.09230759999999982
        },
        {
          "name": "C5",
          "midi": 72,
          "time": 10.615374,
          "velocity": 1,
          "duration": 0.3692303999999993
        },
        {
          "name": "F#4",
          "midi": 66,
          "time": 10.615374,
          "velocity": 1,
          "duration": 0.3692303999999993
        },
        {
          "name": "C4",
          "midi": 60,
          "time": 11.307680999999999,
          "velocity": 1,
          "duration": 0.18461519999999965
        },
        {
          "name": "F#4",
          "midi": 66,
          "time": 11.307680999999999,
          "velocity": 1,
          "duration": 0.18461519999999965
        },
        {
          "name": "F#4",
          "midi": 66,
          "time": 11.769218999999998,
          "velocity": 1,
          "duration": 0.18461519999999965
        },
        {
          "name": "C4",
          "midi": 60,
          "time": 11.769218999999998,
          "velocity": 1,
          "duration": 0.18461519999999965
        },
        {
          "name": "F#4",
          "midi": 66,
          "time": 12.230756999999997,
          "velocity": 1,
          "duration": 0.18461519999999965
        },
        {
          "name": "C4",
          "midi": 60,
          "time": 12.230756999999997,
          "velocity": 1,
          "duration": 0.18461519999999965
        },
        {
          "name": "C4",
          "midi": 60,
          "time": 12.692294999999996,
          "velocity": 1,
          "duration": 0.18461519999999965
        },
        {
          "name": "F#4",
          "midi": 66,
          "time": 12.692294999999996,
          "velocity": 1,
          "duration": 0.18461519999999965
        },
        {
          "name": "F#4",
          "midi": 66,
          "time": 13.153832999999995,
          "velocity": 1,
          "duration": 0.18461519999999965
        },
        {
          "name": "C4",
          "midi": 60,
          "time": 13.153832999999995,
          "velocity": 1,
          "duration": 0.18461519999999965
        },
        {
          "name": "C4",
          "midi": 60,
          "time": 13.615370999999994,
          "velocity": 1,
          "duration": 0.18461519999999965
        },
        {
          "name": "F#4",
          "midi": 66,
          "time": 13.615370999999994,
          "velocity": 1,
          "duration": 0.18461519999999965
        },
        {
          "name": "C4",
          "midi": 60,
          "time": 14.076908999999993,
          "velocity": 1,
          "duration": 0.18461519999999965
        },
        {
          "name": "F#4",
          "midi": 66,
          "time": 14.076908999999993,
          "velocity": 1,
          "duration": 0.18461519999999965
        },
        {
          "name": "C4",
          "midi": 60,
          "time": 14.538446999999993,
          "velocity": 1,
          "duration": 0.18461519999999965
        },
        {
          "name": "F#4",
          "midi": 66,
          "time": 14.538446999999993,
          "velocity": 1,
          "duration": 0.18461519999999965
        },
        {
          "name": "D#4",
          "midi": 63,
          "time": 14.769215999999993,
          "velocity": 1,
          "duration": 0.09230759999999982
        },
        {
          "name": "A4",
          "midi": 69,
          "time": 14.769215999999993,
          "velocity": 1,
          "duration": 0.09230759999999982
        },
        {
          "name": "D#4",
          "midi": 63,
          "time": 14.999984999999993,
          "velocity": 1,
          "duration": 0.09230759999999982
        },
        {
          "name": "A4",
          "midi": 69,
          "time": 14.999984999999993,
          "velocity": 1,
          "duration": 0.09230759999999982
        },
        {
          "name": "A4",
          "midi": 69,
          "time": 15.230753999999994,
          "velocity": 1,
          "duration": 0.3692303999999993
        },
        {
          "name": "D#4",
          "midi": 63,
          "time": 15.230753999999994,
          "velocity": 1,
          "duration": 0.3692303999999993
        },
        {
          "name": "C5",
          "midi": 72,
          "time": 15.692291999999993,
          "velocity": 1,
          "duration": 0.09230759999999982
        },
        {
          "name": "F#4",
          "midi": 66,
          "time": 15.692291999999993,
          "velocity": 1,
          "duration": 0.09230759999999982
        },
        {
          "name": "F#4",
          "midi": 66,
          "time": 15.923060999999993,
          "velocity": 1,
          "duration": 0.0923076000000016
        },
        {
          "name": "C5",
          "midi": 72,
          "time": 15.923060999999993,
          "velocity": 1,
          "duration": 0.0923076000000016
        },
        {
          "name": "F#4",
          "midi": 66,
          "time": 16.153829999999996,
          "velocity": 1,
          "duration": 0.3692303999999993
        },
        {
          "name": "C5",
          "midi": 72,
          "time": 16.153829999999996,
          "velocity": 1,
          "duration": 0.3692303999999993
        },
        {
          "name": "A4",
          "midi": 69,
          "time": 16.615367999999997,
          "velocity": 1,
          "duration": 0.0923076000000016
        },
        {
          "name": "D#4",
          "midi": 63,
          "time": 16.615367999999997,
          "velocity": 1,
          "duration": 0.0923076000000016
        },
        {
          "name": "A4",
          "midi": 69,
          "time": 16.846137,
          "velocity": 1,
          "duration": 0.0923076000000016
        },
        {
          "name": "D#4",
          "midi": 63,
          "time": 16.846137,
          "velocity": 1,
          "duration": 0.0923076000000016
        },
        {
          "name": "D#4",
          "midi": 63,
          "time": 17.076906,
          "velocity": 1,
          "duration": 0.3692303999999993
        },
        {
          "name": "A4",
          "midi": 69,
          "time": 17.076906,
          "velocity": 1,
          "duration": 0.3692303999999993
        },
        {
          "name": "C5",
          "midi": 72,
          "time": 17.538444000000002,
          "velocity": 1,
          "duration": 0.0923076000000016
        },
        {
          "name": "F#4",
          "midi": 66,
          "time": 17.538444000000002,
          "velocity": 1,
          "duration": 0.0923076000000016
        },
        {
          "name": "C5",
          "midi": 72,
          "time": 17.769213000000004,
          "velocity": 1,
          "duration": 0.0923076000000016
        },
        {
          "name": "F#4",
          "midi": 66,
          "time": 17.769213000000004,
          "velocity": 1,
          "duration": 0.0923076000000016
        },
        {
          "name": "C5",
          "midi": 72,
          "time": 17.999982000000006,
          "velocity": 1,
          "duration": 0.3692303999999993
        },
        {
          "name": "F#4",
          "midi": 66,
          "time": 17.999982000000006,
          "velocity": 1,
          "duration": 0.3692303999999993
        },
        {
          "name": "C#5",
          "midi": 73,
          "time": 18.461520000000007,
          "velocity": 1,
          "duration": 0.06153839999999988
        },
        {
          "name": "C5",
          "midi": 72,
          "time": 18.461520000000007,
          "velocity": 1,
          "duration": 0.06153839999999988
        },
        {
          "name": "C5",
          "midi": 72,
          "time": 18.61536600000001,
          "velocity": 1,
          "duration": 0.06153839999999988
        },
        {
          "name": "C#5",
          "midi": 73,
          "time": 18.61536600000001,
          "velocity": 1,
          "duration": 0.06153839999999988
        },
        {
          "name": "C5",
          "midi": 72,
          "time": 18.69228900000001,
          "velocity": 1,
          "duration": 0.06153839999999988
        },
        {
          "name": "C#5",
          "midi": 73,
          "time": 18.69228900000001,
          "velocity": 1,
          "duration": 0.06153839999999988
        },
        {
          "name": "C5",
          "midi": 72,
          "time": 18.84613500000001,
          "velocity": 1,
          "duration": 0.06153839999999988
        },
        {
          "name": "C#5",
          "midi": 73,
          "time": 18.84613500000001,
          "velocity": 1,
          "duration": 0.06153839999999988
        },
        {
          "name": "C#5",
          "midi": 73,
          "time": 18.92305800000001,
          "velocity": 1,
          "duration": 0.18461519999999965
        },
        {
          "name": "C5",
          "midi": 72,
          "time": 18.92305800000001,
          "velocity": 1,
          "duration": 0.18461519999999965
        },
        {
          "name": "C5",
          "midi": 72,
          "time": 19.15382700000001,
          "velocity": 1,
          "duration": 0.06153839999999988
        },
        {
          "name": "C#5",
          "midi": 73,
          "time": 19.15382700000001,
          "velocity": 1,
          "duration": 0.06153839999999988
        },
        {
          "name": "C5",
          "midi": 72,
          "time": 19.307673000000012,
          "velocity": 1,
          "duration": 0.06153839999999988
        },
        {
          "name": "C#5",
          "midi": 73,
          "time": 19.307673000000012,
          "velocity": 1,
          "duration": 0.06153839999999988
        },
        {
          "name": "C5",
          "midi": 72,
          "time": 19.384596000000013,
          "velocity": 1,
          "duration": 0.06153839999999988
        },
        {
          "name": "C#5",
          "midi": 73,
          "time": 19.384596000000013,
          "velocity": 1,
          "duration": 0.06153839999999988
        },
        {
          "name": "C#5",
          "midi": 73,
          "time": 19.538442000000014,
          "velocity": 1,
          "duration": 0.06153839999999988
        },
        {
          "name": "C5",
          "midi": 72,
          "time": 19.538442000000014,
          "velocity": 1,
          "duration": 0.06153839999999988
        },
        {
          "name": "C5",
          "midi": 72,
          "time": 19.615365000000015,
          "velocity": 1,
          "duration": 0.18461519999999965
        },
        {
          "name": "C#5",
          "midi": 73,
          "time": 19.615365000000015,
          "velocity": 1,
          "duration": 0.18461519999999965
        },
        {
          "name": "F#4",
          "midi": 66,
          "time": 19.846134000000013,
          "velocity": 1,
          "duration": 0.18461519999999965
        },
        {
          "name": "A4",
          "midi": 69,
          "time": 20.076903000000012,
          "velocity": 1,
          "duration": 0.18461519999999965
        },
        {
          "name": "C#5",
          "midi": 73,
          "time": 20.30767200000001,
          "velocity": 1,
          "duration": 0.06153839999999988
        },
        {
          "name": "C5",
          "midi": 72,
          "time": 20.30767200000001,
          "velocity": 1,
          "duration": 0.06153839999999988
        },
        {
          "name": "C#5",
          "midi": 73,
          "time": 20.461518000000012,
          "velocity": 1,
          "duration": 0.06153839999999988
        },
        {
          "name": "C5",
          "midi": 72,
          "time": 20.461518000000012,
          "velocity": 1,
          "duration": 0.06153839999999988
        },
        {
          "name": "C5",
          "midi": 72,
          "time": 20.538441000000013,
          "velocity": 1,
          "duration": 0.06153839999999988
        },
        {
          "name": "C#5",
          "midi": 73,
          "time": 20.538441000000013,
          "velocity": 1,
          "duration": 0.06153839999999988
        },
        {
          "name": "C5",
          "midi": 72,
          "time": 20.692287000000015,
          "velocity": 1,
          "duration": 0.06153839999999988
        },
        {
          "name": "C#5",
          "midi": 73,
          "time": 20.692287000000015,
          "velocity": 1,
          "duration": 0.06153839999999988
        },
        {
          "name": "C5",
          "midi": 72,
          "time": 20.769210000000015,
          "velocity": 1,
          "duration": 0.18461519999999965
        },
        {
          "name": "C#5",
          "midi": 73,
          "time": 20.769210000000015,
          "velocity": 1,
          "duration": 0.18461519999999965
        },
        {
          "name": "C5",
          "midi": 72,
          "time": 20.999979000000014,
          "velocity": 1,
          "duration": 0.06153839999999988
        },
        {
          "name": "C#5",
          "midi": 73,
          "time": 20.999979000000014,
          "velocity": 1,
          "duration": 0.06153839999999988
        },
        {
          "name": "C5",
          "midi": 72,
          "time": 21.153825000000015,
          "velocity": 1,
          "duration": 0.06153839999999988
        },
        {
          "name": "C#5",
          "midi": 73,
          "time": 21.153825000000015,
          "velocity": 1,
          "duration": 0.06153839999999988
        },
        {
          "name": "C5",
          "midi": 72,
          "time": 21.230748000000016,
          "velocity": 1,
          "duration": 0.06153839999999988
        },
        {
          "name": "C#5",
          "midi": 73,
          "time": 21.230748000000016,
          "velocity": 1,
          "duration": 0.06153839999999988
        },
        {
          "name": "C#5",
          "midi": 73,
          "time": 21.384594000000018,
          "velocity": 1,
          "duration": 0.06153839999999988
        },
        {
          "name": "C5",
          "midi": 72,
          "time": 21.384594000000018,
          "velocity": 1,
          "duration": 0.06153839999999988
        },
        {
          "name": "E5",
          "midi": 76,
          "time": 21.46151700000002,
          "velocity": 1,
          "duration": 0.06153839999999988
        },
        {
          "name": "E5",
          "midi": 76,
          "time": 21.61536300000002,
          "velocity": 1,
          "duration": 0.06153839999999988
        },
        {
          "name": "F5",
          "midi": 77,
          "time": 21.69228600000002,
          "velocity": 1,
          "duration": 0.06153839999999988
        },
        {
          "name": "F5",
          "midi": 77,
          "time": 21.846132000000022,
          "velocity": 1,
          "duration": 0.06153839999999988
        },
        {
          "name": "E5",
          "midi": 76,
          "time": 21.923055000000023,
          "velocity": 1,
          "duration": 0.06153839999999988
        },
        {
          "name": "E5",
          "midi": 76,
          "time": 22.076901000000024,
          "velocity": 1,
          "duration": 0.06153839999999988
        },
        {
          "name": "A4",
          "midi": 69,
          "time": 22.153824000000025,
          "velocity": 1,
          "duration": 0.0923076000000016
        },
        {
          "name": "D#5",
          "midi": 75,
          "time": 22.153824000000025,
          "velocity": 1,
          "duration": 0.0923076000000016
        },
        {
          "name": "D#5",
          "midi": 75,
          "time": 22.384593000000027,
          "velocity": 1,
          "duration": 0.0923076000000016
        },
        {
          "name": "A4",
          "midi": 69,
          "time": 22.384593000000027,
          "velocity": 1,
          "duration": 0.0923076000000016
        },
        {
          "name": "D#5",
          "midi": 75,
          "time": 22.61536200000003,
          "velocity": 1,
          "duration": 0.3692303999999993
        },
        {
          "name": "A4",
          "midi": 69,
          "time": 22.61536200000003,
          "velocity": 1,
          "duration": 0.3692303999999993
        },
        {
          "name": "C5",
          "midi": 72,
          "time": 23.07690000000003,
          "velocity": 1,
          "duration": 0.0923076000000016
        },
        {
          "name": "F#5",
          "midi": 78,
          "time": 23.07690000000003,
          "velocity": 1,
          "duration": 0.0923076000000016
        },
        {
          "name": "F#5",
          "midi": 78,
          "time": 23.307669000000033,
          "velocity": 1,
          "duration": 0.0923076000000016
        },
        {
          "name": "C5",
          "midi": 72,
          "time": 23.307669000000033,
          "velocity": 1,
          "duration": 0.0923076000000016
        },
        {
          "name": "F#5",
          "midi": 78,
          "time": 23.538438000000035,
          "velocity": 1,
          "duration": 0.3692303999999993
        },
        {
          "name": "C5",
          "midi": 72,
          "time": 23.538438000000035,
          "velocity": 1,
          "duration": 0.3692303999999993
        },
        {
          "name": "A4",
          "midi": 69,
          "time": 23.999976000000036,
          "velocity": 1,
          "duration": 0.0923076000000016
        },
        {
          "name": "D#5",
          "midi": 75,
          "time": 23.999976000000036,
          "velocity": 1,
          "duration": 0.0923076000000016
        },
        {
          "name": "A4",
          "midi": 69,
          "time": 24.230745000000038,
          "velocity": 1,
          "duration": 0.0923076000000016
        },
        {
          "name": "D#5",
          "midi": 75,
          "time": 24.230745000000038,
          "velocity": 1,
          "duration": 0.0923076000000016
        },
        {
          "name": "D#5",
          "midi": 75,
          "time": 24.46151400000004,
          "velocity": 1,
          "duration": 0.3692303999999993
        },
        {
          "name": "A4",
          "midi": 69,
          "time": 24.46151400000004,
          "velocity": 1,
          "duration": 0.3692303999999993
        },
        {
          "name": "F#5",
          "midi": 78,
          "time": 24.92305200000004,
          "velocity": 1,
          "duration": 0.0923076000000016
        },
        {
          "name": "C5",
          "midi": 72,
          "time": 24.92305200000004,
          "velocity": 1,
          "duration": 0.0923076000000016
        },
        {
          "name": "F#5",
          "midi": 78,
          "time": 25.153821000000043,
          "velocity": 1,
          "duration": 0.0923076000000016
        },
        {
          "name": "C5",
          "midi": 72,
          "time": 25.153821000000043,
          "velocity": 1,
          "duration": 0.0923076000000016
        },
        {
          "name": "C5",
          "midi": 72,
          "time": 25.384590000000046,
          "velocity": 1,
          "duration": 0.3692303999999993
        },
        {
          "name": "F#5",
          "midi": 78,
          "time": 25.384590000000046,
          "velocity": 1,
          "duration": 0.3692303999999993
        },
        {
          "name": "C5",
          "midi": 72,
          "time": 25.846128000000046,
          "velocity": 1,
          "duration": 0.06153839999999988
        },
        {
          "name": "C#5",
          "midi": 73,
          "time": 25.846128000000046,
          "velocity": 1,
          "duration": 0.06153839999999988
        },
        {
          "name": "C5",
          "midi": 72,
          "time": 25.999974000000048,
          "velocity": 1,
          "duration": 0.06153839999999988
        },
        {
          "name": "C#5",
          "midi": 73,
          "time": 25.999974000000048,
          "velocity": 1,
          "duration": 0.06153839999999988
        },
        {
          "name": "C#5",
          "midi": 73,
          "time": 26.07689700000005,
          "velocity": 1,
          "duration": 0.06153839999999988
        },
        {
          "name": "C5",
          "midi": 72,
          "time": 26.07689700000005,
          "velocity": 1,
          "duration": 0.06153839999999988
        },
        {
          "name": "C5",
          "midi": 72,
          "time": 26.23074300000005,
          "velocity": 1,
          "duration": 0.06153839999999988
        },
        {
          "name": "C#5",
          "midi": 73,
          "time": 26.23074300000005,
          "velocity": 1,
          "duration": 0.06153839999999988
        },
        {
          "name": "C5",
          "midi": 72,
          "time": 26.30766600000005,
          "velocity": 1,
          "duration": 0.18461519999999965
        },
        {
          "name": "C#5",
          "midi": 73,
          "time": 26.30766600000005,
          "velocity": 1,
          "duration": 0.18461519999999965
        },
        {
          "name": "C#5",
          "midi": 73,
          "time": 26.53843500000005,
          "velocity": 1,
          "duration": 0.06153839999999988
        },
        {
          "name": "C5",
          "midi": 72,
          "time": 26.53843500000005,
          "velocity": 1,
          "duration": 0.06153839999999988
        },
        {
          "name": "C#5",
          "midi": 73,
          "time": 26.69228100000005,
          "velocity": 1,
          "duration": 0.06153839999999988
        },
        {
          "name": "C5",
          "midi": 72,
          "time": 26.69228100000005,
          "velocity": 1,
          "duration": 0.06153839999999988
        },
        {
          "name": "C#5",
          "midi": 73,
          "time": 26.76920400000005,
          "velocity": 1,
          "duration": 0.06153839999999988
        },
        {
          "name": "C5",
          "midi": 72,
          "time": 26.76920400000005,
          "velocity": 1,
          "duration": 0.06153839999999988
        },
        {
          "name": "C5",
          "midi": 72,
          "time": 26.923050000000053,
          "velocity": 1,
          "duration": 0.06153839999999988
        },
        {
          "name": "C#5",
          "midi": 73,
          "time": 26.923050000000053,
          "velocity": 1,
          "duration": 0.06153839999999988
        },
        {
          "name": "C#5",
          "midi": 73,
          "time": 26.999973000000054,
          "velocity": 1,
          "duration": 0.18461519999999965
        },
        {
          "name": "C5",
          "midi": 72,
          "time": 26.999973000000054,
          "velocity": 1,
          "duration": 0.18461519999999965
        },
        {
          "name": "F#4",
          "midi": 66,
          "time": 27.230742000000053,
          "velocity": 1,
          "duration": 0.18461519999999965
        },
        {
          "name": "A4",
          "midi": 69,
          "time": 27.46151100000005,
          "velocity": 1,
          "duration": 0.18461519999999965
        },
        {
          "name": "C#5",
          "midi": 73,
          "time": 27.69228000000005,
          "velocity": 1,
          "duration": 0.06153839999999988
        },
        {
          "name": "C5",
          "midi": 72,
          "time": 27.69228000000005,
          "velocity": 1,
          "duration": 0.06153839999999988
        },
        {
          "name": "C#5",
          "midi": 73,
          "time": 27.84612600000005,
          "velocity": 1,
          "duration": 0.06153839999999988
        },
        {
          "name": "C5",
          "midi": 72,
          "time": 27.84612600000005,
          "velocity": 1,
          "duration": 0.06153839999999988
        },
        {
          "name": "C5",
          "midi": 72,
          "time": 27.923049000000052,
          "velocity": 1,
          "duration": 0.18461519999999965
        },
        {
          "name": "C#5",
          "midi": 73,
          "time": 27.923049000000052,
          "velocity": 1,
          "duration": 0.18461519999999965
        },
        {
          "name": "C#5",
          "midi": 73,
          "time": 28.15381800000005,
          "velocity": 1,
          "duration": 0.06153839999999988
        },
        {
          "name": "C5",
          "midi": 72,
          "time": 28.15381800000005,
          "velocity": 1,
          "duration": 0.06153839999999988
        },
        {
          "name": "C5",
          "midi": 72,
          "time": 28.307664000000052,
          "velocity": 1,
          "duration": 0.06153839999999988
        },
        {
          "name": "C#5",
          "midi": 73,
          "time": 28.307664000000052,
          "velocity": 1,
          "duration": 0.06153839999999988
        },
        {
          "name": "C5",
          "midi": 72,
          "time": 28.384587000000053,
          "velocity": 1,
          "duration": 0.18461519999999965
        },
        {
          "name": "C#5",
          "midi": 73,
          "time": 28.384587000000053,
          "velocity": 1,
          "duration": 0.18461519999999965
        },
        {
          "name": "C#5",
          "midi": 73,
          "time": 28.61535600000005,
          "velocity": 1,
          "duration": 0.18461519999999965
        },
        {
          "name": "C5",
          "midi": 72,
          "time": 28.61535600000005,
          "velocity": 1,
          "duration": 0.18461519999999965
        }
      ],
      "controlChanges": {
        "7": [
          {
            "number": 7,
            "time": 0,
            "value": 1
          }
        ],
        "10": [
          {
            "number": 10,
            "time": 0,
            "value": 0.5039370078740157
          }
        ]
      },
      "id": 1,
      "instrumentNumber": 27,
      "instrument": "electric guitar (clean)",
      "instrumentFamily": "guitar",
      "channelNumber": 1,
      "isPercussion": false
    },
    {
      "startTime": 0,
      "duration": 28.7999712,
      "length": 153,
      "notes": [
        {
          "name": "E2",
          "midi": 40,
          "time": 0,
          "velocity": 1,
          "duration": 0.18461519999999998
        },
        {
          "name": "E2",
          "midi": 40,
          "time": 0.23076899999999997,
          "velocity": 1,
          "duration": 0.1846152
        },
        {
          "name": "D2",
          "midi": 38,
          "time": 0.461538,
          "velocity": 1,
          "duration": 0.09230760000000005
        },
        {
          "name": "D#2",
          "midi": 39,
          "time": 0.5769225,
          "velocity": 1,
          "duration": 0.09230760000000005
        },
        {
          "name": "E2",
          "midi": 40,
          "time": 0.692307,
          "velocity": 1,
          "duration": 0.18461519999999998
        },
        {
          "name": "F#2",
          "midi": 42,
          "time": 0.923076,
          "velocity": 1,
          "duration": 0.09230760000000005
        },
        {
          "name": "G2",
          "midi": 43,
          "time": 1.0384605,
          "velocity": 1,
          "duration": 0.09230760000000005
        },
        {
          "name": "E2",
          "midi": 40,
          "time": 1.153845,
          "velocity": 1,
          "duration": 0.1846152000000001
        },
        {
          "name": "D2",
          "midi": 38,
          "time": 1.384614,
          "velocity": 1,
          "duration": 0.09230760000000005
        },
        {
          "name": "D#2",
          "midi": 39,
          "time": 1.4999985,
          "velocity": 1,
          "duration": 0.09230760000000005
        },
        {
          "name": "E2",
          "midi": 40,
          "time": 1.615383,
          "velocity": 1,
          "duration": 0.1846152000000001
        },
        {
          "name": "F#2",
          "midi": 42,
          "time": 1.846152,
          "velocity": 1,
          "duration": 0.09230760000000005
        },
        {
          "name": "G2",
          "midi": 43,
          "time": 1.9615365,
          "velocity": 1,
          "duration": 0.09230760000000005
        },
        {
          "name": "E2",
          "midi": 40,
          "time": 2.076921,
          "velocity": 1,
          "duration": 0.1846152000000001
        },
        {
          "name": "D2",
          "midi": 38,
          "time": 2.30769,
          "velocity": 1,
          "duration": 0.09230759999999982
        },
        {
          "name": "D#2",
          "midi": 39,
          "time": 2.4230745,
          "velocity": 1,
          "duration": 0.09230759999999982
        },
        {
          "name": "E2",
          "midi": 40,
          "time": 2.5384589999999996,
          "velocity": 1,
          "duration": 0.1846152000000001
        },
        {
          "name": "E2",
          "midi": 40,
          "time": 2.7692279999999996,
          "velocity": 1,
          "duration": 0.1846152000000001
        },
        {
          "name": "E2",
          "midi": 40,
          "time": 3.6923039999999996,
          "velocity": 1,
          "duration": 0.1846152000000001
        },
        {
          "name": "E2",
          "midi": 40,
          "time": 3.9230729999999996,
          "velocity": 1,
          "duration": 0.18461519999999965
        },
        {
          "name": "D2",
          "midi": 38,
          "time": 4.153841999999999,
          "velocity": 1,
          "duration": 0.09230759999999982
        },
        {
          "name": "D#2",
          "midi": 39,
          "time": 4.269226499999999,
          "velocity": 1,
          "duration": 0.09230759999999982
        },
        {
          "name": "E2",
          "midi": 40,
          "time": 4.384611,
          "velocity": 1,
          "duration": 0.18461519999999965
        },
        {
          "name": "F#2",
          "midi": 42,
          "time": 4.615379999999999,
          "velocity": 1,
          "duration": 0.09230759999999982
        },
        {
          "name": "G2",
          "midi": 43,
          "time": 4.730764499999999,
          "velocity": 1,
          "duration": 0.09230759999999982
        },
        {
          "name": "E2",
          "midi": 40,
          "time": 4.846149,
          "velocity": 1,
          "duration": 0.18461519999999965
        },
        {
          "name": "D2",
          "midi": 38,
          "time": 5.076917999999999,
          "velocity": 1,
          "duration": 0.09230759999999982
        },
        {
          "name": "D#2",
          "midi": 39,
          "time": 5.192302499999999,
          "velocity": 1,
          "duration": 0.09230759999999982
        },
        {
          "name": "E2",
          "midi": 40,
          "time": 5.307687,
          "velocity": 1,
          "duration": 0.18461519999999965
        },
        {
          "name": "F#2",
          "midi": 42,
          "time": 5.538455999999999,
          "velocity": 1,
          "duration": 0.09230759999999982
        },
        {
          "name": "G2",
          "midi": 43,
          "time": 5.653840499999999,
          "velocity": 1,
          "duration": 0.09230759999999982
        },
        {
          "name": "E2",
          "midi": 40,
          "time": 5.769225,
          "velocity": 1,
          "duration": 0.18461519999999965
        },
        {
          "name": "D2",
          "midi": 38,
          "time": 5.999993999999999,
          "velocity": 1,
          "duration": 0.09230759999999982
        },
        {
          "name": "D#2",
          "midi": 39,
          "time": 6.115378499999999,
          "velocity": 1,
          "duration": 0.09230759999999982
        },
        {
          "name": "E2",
          "midi": 40,
          "time": 6.230763,
          "velocity": 1,
          "duration": 0.18461519999999965
        },
        {
          "name": "F#2",
          "midi": 42,
          "time": 6.461531999999999,
          "velocity": 1,
          "duration": 0.09230759999999982
        },
        {
          "name": "G2",
          "midi": 43,
          "time": 6.576916499999999,
          "velocity": 1,
          "duration": 0.09230759999999982
        },
        {
          "name": "E2",
          "midi": 40,
          "time": 6.692301,
          "velocity": 1,
          "duration": 0.18461519999999965
        },
        {
          "name": "D#2",
          "midi": 39,
          "time": 6.923069999999999,
          "velocity": 1,
          "duration": 0.09230759999999982
        },
        {
          "name": "E2",
          "midi": 40,
          "time": 7.038454499999999,
          "velocity": 1,
          "duration": 0.09230759999999982
        },
        {
          "name": "G2",
          "midi": 43,
          "time": 7.153839,
          "velocity": 1,
          "duration": 0.18461519999999965
        },
        {
          "name": "G#2",
          "midi": 44,
          "time": 7.384607999999999,
          "velocity": 1,
          "duration": 0.09230759999999982
        },
        {
          "name": "A2",
          "midi": 45,
          "time": 7.499992499999999,
          "velocity": 1,
          "duration": 0.09230759999999982
        },
        {
          "name": "A2",
          "midi": 45,
          "time": 7.615377,
          "velocity": 1,
          "duration": 0.18461519999999965
        },
        {
          "name": "A2",
          "midi": 45,
          "time": 7.846145999999999,
          "velocity": 1,
          "duration": 0.3692303999999993
        },
        {
          "name": "B2",
          "midi": 47,
          "time": 8.307683999999998,
          "velocity": 1,
          "duration": 0.09230759999999982
        },
        {
          "name": "C3",
          "midi": 48,
          "time": 8.423068499999998,
          "velocity": 1,
          "duration": 0.09230759999999982
        },
        {
          "name": "C3",
          "midi": 48,
          "time": 8.538452999999997,
          "velocity": 1,
          "duration": 0.18461519999999965
        },
        {
          "name": "C3",
          "midi": 48,
          "time": 8.769221999999997,
          "velocity": 1,
          "duration": 0.3692303999999993
        },
        {
          "name": "G#2",
          "midi": 44,
          "time": 9.230759999999997,
          "velocity": 1,
          "duration": 0.09230759999999982
        },
        {
          "name": "A2",
          "midi": 45,
          "time": 9.346144499999996,
          "velocity": 1,
          "duration": 0.09230759999999982
        },
        {
          "name": "A2",
          "midi": 45,
          "time": 9.461528999999995,
          "velocity": 1,
          "duration": 0.18461519999999965
        },
        {
          "name": "A2",
          "midi": 45,
          "time": 9.692297999999996,
          "velocity": 1,
          "duration": 0.3692303999999993
        },
        {
          "name": "B2",
          "midi": 47,
          "time": 10.153835999999995,
          "velocity": 1,
          "duration": 0.09230759999999982
        },
        {
          "name": "C3",
          "midi": 48,
          "time": 10.269220499999994,
          "velocity": 1,
          "duration": 0.09230759999999982
        },
        {
          "name": "C3",
          "midi": 48,
          "time": 10.384604999999993,
          "velocity": 1,
          "duration": 0.18461519999999965
        },
        {
          "name": "C3",
          "midi": 48,
          "time": 10.615373999999994,
          "velocity": 1,
          "duration": 0.3692303999999993
        },
        {
          "name": "E2",
          "midi": 40,
          "time": 11.076911999999993,
          "velocity": 1,
          "duration": 0.18461519999999965
        },
        {
          "name": "E2",
          "midi": 40,
          "time": 11.307680999999993,
          "velocity": 1,
          "duration": 0.18461519999999965
        },
        {
          "name": "D2",
          "midi": 38,
          "time": 11.538449999999994,
          "velocity": 1,
          "duration": 0.09230759999999982
        },
        {
          "name": "D#2",
          "midi": 39,
          "time": 11.653834499999993,
          "velocity": 1,
          "duration": 0.09230759999999982
        },
        {
          "name": "E2",
          "midi": 40,
          "time": 11.769218999999993,
          "velocity": 1,
          "duration": 0.18461519999999965
        },
        {
          "name": "F#2",
          "midi": 42,
          "time": 11.999987999999993,
          "velocity": 1,
          "duration": 0.09230759999999982
        },
        {
          "name": "G2",
          "midi": 43,
          "time": 12.115372499999992,
          "velocity": 1,
          "duration": 0.09230759999999982
        },
        {
          "name": "E2",
          "midi": 40,
          "time": 12.230756999999992,
          "velocity": 1,
          "duration": 0.18461519999999965
        },
        {
          "name": "D2",
          "midi": 38,
          "time": 12.461525999999992,
          "velocity": 1,
          "duration": 0.09230759999999982
        },
        {
          "name": "D#2",
          "midi": 39,
          "time": 12.576910499999991,
          "velocity": 1,
          "duration": 0.09230759999999982
        },
        {
          "name": "E2",
          "midi": 40,
          "time": 12.69229499999999,
          "velocity": 1,
          "duration": 0.18461519999999965
        },
        {
          "name": "F#2",
          "midi": 42,
          "time": 12.923063999999991,
          "velocity": 1,
          "duration": 0.09230759999999982
        },
        {
          "name": "G2",
          "midi": 43,
          "time": 13.03844849999999,
          "velocity": 1,
          "duration": 0.09230759999999982
        },
        {
          "name": "E2",
          "midi": 40,
          "time": 13.15383299999999,
          "velocity": 1,
          "duration": 0.18461519999999965
        },
        {
          "name": "D2",
          "midi": 38,
          "time": 13.38460199999999,
          "velocity": 1,
          "duration": 0.09230759999999982
        },
        {
          "name": "D#2",
          "midi": 39,
          "time": 13.49998649999999,
          "velocity": 1,
          "duration": 0.09230759999999982
        },
        {
          "name": "E2",
          "midi": 40,
          "time": 13.615370999999989,
          "velocity": 1,
          "duration": 0.18461519999999965
        },
        {
          "name": "F#2",
          "midi": 42,
          "time": 13.84613999999999,
          "velocity": 1,
          "duration": 0.09230759999999982
        },
        {
          "name": "G2",
          "midi": 43,
          "time": 13.961524499999989,
          "velocity": 1,
          "duration": 0.09230759999999982
        },
        {
          "name": "E2",
          "midi": 40,
          "time": 14.076908999999988,
          "velocity": 1,
          "duration": 0.18461519999999965
        },
        {
          "name": "D#2",
          "midi": 39,
          "time": 14.307677999999989,
          "velocity": 1,
          "duration": 0.09230759999999982
        },
        {
          "name": "E2",
          "midi": 40,
          "time": 14.423062499999988,
          "velocity": 1,
          "duration": 0.09230759999999982
        },
        {
          "name": "G2",
          "midi": 43,
          "time": 14.538446999999987,
          "velocity": 1,
          "duration": 0.18461519999999965
        },
        {
          "name": "G#2",
          "midi": 44,
          "time": 14.769215999999988,
          "velocity": 1,
          "duration": 0.09230759999999982
        },
        {
          "name": "A2",
          "midi": 45,
          "time": 14.884600499999987,
          "velocity": 1,
          "duration": 0.09230759999999982
        },
        {
          "name": "A2",
          "midi": 45,
          "time": 14.999984999999986,
          "velocity": 1,
          "duration": 0.18461519999999965
        },
        {
          "name": "A2",
          "midi": 45,
          "time": 15.230753999999987,
          "velocity": 1,
          "duration": 0.3692303999999993
        },
        {
          "name": "B2",
          "midi": 47,
          "time": 15.692291999999986,
          "velocity": 1,
          "duration": 0.09230759999999982
        },
        {
          "name": "C3",
          "midi": 48,
          "time": 15.807676499999985,
          "velocity": 1,
          "duration": 0.09230759999999982
        },
        {
          "name": "C3",
          "midi": 48,
          "time": 15.923060999999985,
          "velocity": 1,
          "duration": 0.18461520000000142
        },
        {
          "name": "C3",
          "midi": 48,
          "time": 16.153829999999985,
          "velocity": 1,
          "duration": 0.3692303999999993
        },
        {
          "name": "G#2",
          "midi": 44,
          "time": 16.615367999999986,
          "velocity": 1,
          "duration": 0.0923076000000016
        },
        {
          "name": "A2",
          "midi": 45,
          "time": 16.730752499999987,
          "velocity": 1,
          "duration": 0.0923076000000016
        },
        {
          "name": "A2",
          "midi": 45,
          "time": 16.846136999999988,
          "velocity": 1,
          "duration": 0.18461519999999965
        },
        {
          "name": "A2",
          "midi": 45,
          "time": 17.076905999999987,
          "velocity": 1,
          "duration": 0.3692303999999993
        },
        {
          "name": "B2",
          "midi": 47,
          "time": 17.538443999999988,
          "velocity": 1,
          "duration": 0.0923076000000016
        },
        {
          "name": "C3",
          "midi": 48,
          "time": 17.65382849999999,
          "velocity": 1,
          "duration": 0.0923076000000016
        },
        {
          "name": "C3",
          "midi": 48,
          "time": 17.76921299999999,
          "velocity": 1,
          "duration": 0.18461519999999965
        },
        {
          "name": "C3",
          "midi": 48,
          "time": 17.99998199999999,
          "velocity": 1,
          "duration": 0.3692303999999993
        },
        {
          "name": "E2",
          "midi": 40,
          "time": 18.46151999999999,
          "velocity": 1,
          "duration": 0.18461519999999965
        },
        {
          "name": "E2",
          "midi": 40,
          "time": 18.692288999999988,
          "velocity": 1,
          "duration": 0.18461519999999965
        },
        {
          "name": "D2",
          "midi": 38,
          "time": 18.923057999999987,
          "velocity": 1,
          "duration": 0.0923076000000016
        },
        {
          "name": "D#2",
          "midi": 39,
          "time": 19.038442499999988,
          "velocity": 1,
          "duration": 0.0923076000000016
        },
        {
          "name": "E2",
          "midi": 40,
          "time": 19.15382699999999,
          "velocity": 1,
          "duration": 0.18461519999999965
        },
        {
          "name": "F#2",
          "midi": 42,
          "time": 19.384595999999988,
          "velocity": 1,
          "duration": 0.0923076000000016
        },
        {
          "name": "G2",
          "midi": 43,
          "time": 19.49998049999999,
          "velocity": 1,
          "duration": 0.0923076000000016
        },
        {
          "name": "E2",
          "midi": 40,
          "time": 19.61536499999999,
          "velocity": 1,
          "duration": 0.18461519999999965
        },
        {
          "name": "D2",
          "midi": 38,
          "time": 19.84613399999999,
          "velocity": 1,
          "duration": 0.0923076000000016
        },
        {
          "name": "D#2",
          "midi": 39,
          "time": 19.96151849999999,
          "velocity": 1,
          "duration": 0.0923076000000016
        },
        {
          "name": "E2",
          "midi": 40,
          "time": 20.07690299999999,
          "velocity": 1,
          "duration": 0.18461519999999965
        },
        {
          "name": "F#2",
          "midi": 42,
          "time": 20.30767199999999,
          "velocity": 1,
          "duration": 0.0923076000000016
        },
        {
          "name": "G2",
          "midi": 43,
          "time": 20.42305649999999,
          "velocity": 1,
          "duration": 0.0923076000000016
        },
        {
          "name": "E2",
          "midi": 40,
          "time": 20.53844099999999,
          "velocity": 1,
          "duration": 0.18461519999999965
        },
        {
          "name": "D2",
          "midi": 38,
          "time": 20.76920999999999,
          "velocity": 1,
          "duration": 0.0923076000000016
        },
        {
          "name": "D#2",
          "midi": 39,
          "time": 20.88459449999999,
          "velocity": 1,
          "duration": 0.0923076000000016
        },
        {
          "name": "E2",
          "midi": 40,
          "time": 20.999978999999993,
          "velocity": 1,
          "duration": 0.18461519999999965
        },
        {
          "name": "F#2",
          "midi": 42,
          "time": 21.23074799999999,
          "velocity": 1,
          "duration": 0.0923076000000016
        },
        {
          "name": "G2",
          "midi": 43,
          "time": 21.346132499999992,
          "velocity": 1,
          "duration": 0.0923076000000016
        },
        {
          "name": "E2",
          "midi": 40,
          "time": 21.461516999999994,
          "velocity": 1,
          "duration": 0.18461519999999965
        },
        {
          "name": "F#2",
          "midi": 42,
          "time": 21.692285999999992,
          "velocity": 1,
          "duration": 0.0923076000000016
        },
        {
          "name": "G2",
          "midi": 43,
          "time": 21.807670499999993,
          "velocity": 1,
          "duration": 0.0923076000000016
        },
        {
          "name": "A2",
          "midi": 45,
          "time": 21.923054999999994,
          "velocity": 1,
          "duration": 0.18461519999999965
        },
        {
          "name": "G#2",
          "midi": 44,
          "time": 22.153823999999993,
          "velocity": 1,
          "duration": 0.0923076000000016
        },
        {
          "name": "A2",
          "midi": 45,
          "time": 22.269208499999994,
          "velocity": 1,
          "duration": 0.0923076000000016
        },
        {
          "name": "A2",
          "midi": 45,
          "time": 22.384592999999995,
          "velocity": 1,
          "duration": 0.18461519999999965
        },
        {
          "name": "A2",
          "midi": 45,
          "time": 22.615361999999994,
          "velocity": 1,
          "duration": 0.3692303999999993
        },
        {
          "name": "B2",
          "midi": 47,
          "time": 23.076899999999995,
          "velocity": 1,
          "duration": 0.0923076000000016
        },
        {
          "name": "C3",
          "midi": 48,
          "time": 23.192284499999996,
          "velocity": 1,
          "duration": 0.0923076000000016
        },
        {
          "name": "C3",
          "midi": 48,
          "time": 23.307668999999997,
          "velocity": 1,
          "duration": 0.18461519999999965
        },
        {
          "name": "C3",
          "midi": 48,
          "time": 23.538437999999996,
          "velocity": 1,
          "duration": 0.3692303999999993
        },
        {
          "name": "G#2",
          "midi": 44,
          "time": 23.999975999999997,
          "velocity": 1,
          "duration": 0.0923076000000016
        },
        {
          "name": "A2",
          "midi": 45,
          "time": 24.115360499999998,
          "velocity": 1,
          "duration": 0.0923076000000016
        },
        {
          "name": "A2",
          "midi": 45,
          "time": 24.230745,
          "velocity": 1,
          "duration": 0.18461519999999965
        },
        {
          "name": "A2",
          "midi": 45,
          "time": 24.461513999999998,
          "velocity": 1,
          "duration": 0.3692303999999993
        },
        {
          "name": "B2",
          "midi": 47,
          "time": 24.923052,
          "velocity": 1,
          "duration": 0.0923076000000016
        },
        {
          "name": "C3",
          "midi": 48,
          "time": 25.0384365,
          "velocity": 1,
          "duration": 0.0923076000000016
        },
        {
          "name": "C3",
          "midi": 48,
          "time": 25.153821,
          "velocity": 1,
          "duration": 0.18461519999999965
        },
        {
          "name": "C3",
          "midi": 48,
          "time": 25.38459,
          "velocity": 1,
          "duration": 0.3692303999999993
        },
        {
          "name": "E2",
          "midi": 40,
          "time": 25.846128,
          "velocity": 1,
          "duration": 0.18461519999999965
        },
        {
          "name": "E2",
          "midi": 40,
          "time": 26.076897,
          "velocity": 1,
          "duration": 0.18461519999999965
        },
        {
          "name": "D2",
          "midi": 38,
          "time": 26.307665999999998,
          "velocity": 1,
          "duration": 0.0923076000000016
        },
        {
          "name": "D#2",
          "midi": 39,
          "time": 26.4230505,
          "velocity": 1,
          "duration": 0.0923076000000016
        },
        {
          "name": "E2",
          "midi": 40,
          "time": 26.538435,
          "velocity": 1,
          "duration": 0.18461519999999965
        },
        {
          "name": "F#2",
          "midi": 42,
          "time": 26.769204,
          "velocity": 1,
          "duration": 0.0923076000000016
        },
        {
          "name": "G2",
          "midi": 43,
          "time": 26.8845885,
          "velocity": 1,
          "duration": 0.0923076000000016
        },
        {
          "name": "E2",
          "midi": 40,
          "time": 26.999973,
          "velocity": 1,
          "duration": 0.18461519999999965
        },
        {
          "name": "D2",
          "midi": 38,
          "time": 27.230742,
          "velocity": 1,
          "duration": 0.0923076000000016
        },
        {
          "name": "D#2",
          "midi": 39,
          "time": 27.3461265,
          "velocity": 1,
          "duration": 0.0923076000000016
        },
        {
          "name": "E2",
          "midi": 40,
          "time": 27.461511,
          "velocity": 1,
          "duration": 0.18461519999999965
        },
        {
          "name": "F#2",
          "midi": 42,
          "time": 27.69228,
          "velocity": 1,
          "duration": 0.0923076000000016
        },
        {
          "name": "G2",
          "midi": 43,
          "time": 27.8076645,
          "velocity": 1,
          "duration": 0.0923076000000016
        },
        {
          "name": "E2",
          "midi": 40,
          "time": 27.923049000000002,
          "velocity": 1,
          "duration": 0.18461519999999965
        },
        {
          "name": "D2",
          "midi": 38,
          "time": 28.153818,
          "velocity": 1,
          "duration": 0.0923076000000016
        },
        {
          "name": "D#2",
          "midi": 39,
          "time": 28.269202500000002,
          "velocity": 1,
          "duration": 0.0923076000000016
        },
        {
          "name": "E2",
          "midi": 40,
          "time": 28.384587000000003,
          "velocity": 1,
          "duration": 0.18461519999999965
        },
        {
          "name": "E2",
          "midi": 40,
          "time": 28.615356000000002,
          "velocity": 1,
          "duration": 0.18461519999999965
        }
      ],
      "controlChanges": {
        "7": [
          {
            "number": 7,
            "time": 0,
            "value": 1
          }
        ],
        "10": [
          {
            "number": 10,
            "time": 0,
            "value": 0.5039370078740157
          }
        ]
      },
      "id": 2,
      "instrumentNumber": 33,
      "instrument": "electric bass (finger)",
      "instrumentFamily": "bass",
      "channelNumber": 2,
      "isPercussion": false
    },
    {
      "startTime": 2.9999969999999996,
      "duration": 3.1846121999999997,
      "length": 2,
      "notes": [
        {
          "name": "E4",
          "midi": 64,
          "time": 2.9999969999999996,
          "velocity": 1,
          "duration": 0.1846152000000001
        },
        {
          "name": "A#4",
          "midi": 70,
          "time": 2.9999969999999996,
          "velocity": 1,
          "duration": 0.1846152000000001
        }
      ],
      "controlChanges": {
        "7": [
          {
            "number": 7,
            "time": 0,
            "value": 1
          }
        ],
        "10": [
          {
            "number": 10,
            "time": 0,
            "value": 0.5039370078740157
          }
        ]
      },
      "id": 3,
      "instrumentNumber": 120,
      "instrument": "guitar fret noise",
      "instrumentFamily": "sound effects",
      "channelNumber": 3,
      "isPercussion": false
    },
    {
      "startTime": 0,
      "duration": 29.446124399999935,
      "length": 126,
      "notes": [
        {
          "name": "C2",
          "midi": 36,
          "time": 0,
          "velocity": 1,
          "duration": 0.18461519999999998
        },
        {
          "name": "A#2",
          "midi": 46,
          "time": 0.23076899999999997,
          "velocity": 1,
          "duration": 0.1846152
        },
        {
          "name": "C2",
          "midi": 36,
          "time": 0.461538,
          "velocity": 1,
          "duration": 0.18461519999999998
        },
        {
          "name": "A#2",
          "midi": 46,
          "time": 0.692307,
          "velocity": 1,
          "duration": 0.18461519999999998
        },
        {
          "name": "C2",
          "midi": 36,
          "time": 0.923076,
          "velocity": 1,
          "duration": 0.1846152000000001
        },
        {
          "name": "A#2",
          "midi": 46,
          "time": 1.153845,
          "velocity": 1,
          "duration": 0.1846152000000001
        },
        {
          "name": "C2",
          "midi": 36,
          "time": 1.384614,
          "velocity": 1,
          "duration": 0.1846152000000001
        },
        {
          "name": "A#2",
          "midi": 46,
          "time": 1.615383,
          "velocity": 1,
          "duration": 0.1846152000000001
        },
        {
          "name": "C2",
          "midi": 36,
          "time": 1.846152,
          "velocity": 1,
          "duration": 0.1846152000000001
        },
        {
          "name": "A#2",
          "midi": 46,
          "time": 2.076921,
          "velocity": 1,
          "duration": 0.1846152000000001
        },
        {
          "name": "C2",
          "midi": 36,
          "time": 2.30769,
          "velocity": 1,
          "duration": 0.1846152000000001
        },
        {
          "name": "A#2",
          "midi": 46,
          "time": 2.538459,
          "velocity": 1,
          "duration": 0.1846152000000001
        },
        {
          "name": "C2",
          "midi": 36,
          "time": 2.769228,
          "velocity": 1,
          "duration": 0.3692304000000002
        },
        {
          "name": "A#2",
          "midi": 46,
          "time": 3.230766,
          "velocity": 1,
          "duration": 0.3692304000000002
        },
        {
          "name": "C2",
          "midi": 36,
          "time": 3.230766,
          "velocity": 1,
          "duration": 0.3692304000000002
        },
        {
          "name": "C2",
          "midi": 36,
          "time": 3.692304,
          "velocity": 1,
          "duration": 0.1846152000000001
        },
        {
          "name": "A#2",
          "midi": 46,
          "time": 3.923073,
          "velocity": 1,
          "duration": 0.1846152000000001
        },
        {
          "name": "C2",
          "midi": 36,
          "time": 4.153842,
          "velocity": 1,
          "duration": 0.18461519999999965
        },
        {
          "name": "A#2",
          "midi": 46,
          "time": 4.384611,
          "velocity": 1,
          "duration": 0.18461519999999965
        },
        {
          "name": "C2",
          "midi": 36,
          "time": 4.615379999999999,
          "velocity": 1,
          "duration": 0.18461519999999965
        },
        {
          "name": "A#2",
          "midi": 46,
          "time": 4.846148999999999,
          "velocity": 1,
          "duration": 0.18461519999999965
        },
        {
          "name": "C2",
          "midi": 36,
          "time": 5.076917999999998,
          "velocity": 1,
          "duration": 0.18461519999999965
        },
        {
          "name": "A#2",
          "midi": 46,
          "time": 5.307686999999998,
          "velocity": 1,
          "duration": 0.18461519999999965
        },
        {
          "name": "C2",
          "midi": 36,
          "time": 5.538455999999997,
          "velocity": 1,
          "duration": 0.18461519999999965
        },
        {
          "name": "A#2",
          "midi": 46,
          "time": 5.769224999999997,
          "velocity": 1,
          "duration": 0.18461519999999965
        },
        {
          "name": "C2",
          "midi": 36,
          "time": 5.9999939999999965,
          "velocity": 1,
          "duration": 0.18461519999999965
        },
        {
          "name": "A#2",
          "midi": 46,
          "time": 6.230762999999996,
          "velocity": 1,
          "duration": 0.18461519999999965
        },
        {
          "name": "C2",
          "midi": 36,
          "time": 6.461531999999996,
          "velocity": 1,
          "duration": 0.18461519999999965
        },
        {
          "name": "A#2",
          "midi": 46,
          "time": 6.692300999999995,
          "velocity": 1,
          "duration": 0.18461519999999965
        },
        {
          "name": "C2",
          "midi": 36,
          "time": 6.923069999999995,
          "velocity": 1,
          "duration": 0.18461519999999965
        },
        {
          "name": "A#2",
          "midi": 46,
          "time": 7.153838999999994,
          "velocity": 1,
          "duration": 0.18461519999999965
        },
        {
          "name": "C2",
          "midi": 36,
          "time": 7.384607999999994,
          "velocity": 1,
          "duration": 0.18461519999999965
        },
        {
          "name": "A#2",
          "midi": 46,
          "time": 7.615376999999993,
          "velocity": 1,
          "duration": 0.18461519999999965
        },
        {
          "name": "C2",
          "midi": 36,
          "time": 7.846145999999993,
          "velocity": 1,
          "duration": 0.18461520000000053
        },
        {
          "name": "A#2",
          "midi": 46,
          "time": 8.076914999999994,
          "velocity": 1,
          "duration": 0.18461519999999965
        },
        {
          "name": "C2",
          "midi": 36,
          "time": 8.307683999999995,
          "velocity": 1,
          "duration": 0.18461519999999965
        },
        {
          "name": "A#2",
          "midi": 46,
          "time": 8.538452999999995,
          "velocity": 1,
          "duration": 0.18461519999999965
        },
        {
          "name": "C2",
          "midi": 36,
          "time": 8.769221999999996,
          "velocity": 1,
          "duration": 0.18461519999999965
        },
        {
          "name": "A#2",
          "midi": 46,
          "time": 8.999990999999996,
          "velocity": 1,
          "duration": 0.18461519999999965
        },
        {
          "name": "C2",
          "midi": 36,
          "time": 9.230759999999997,
          "velocity": 1,
          "duration": 0.18461519999999965
        },
        {
          "name": "A#2",
          "midi": 46,
          "time": 9.461528999999997,
          "velocity": 1,
          "duration": 0.18461519999999965
        },
        {
          "name": "C2",
          "midi": 36,
          "time": 9.692297999999997,
          "velocity": 1,
          "duration": 0.18461519999999965
        },
        {
          "name": "A#2",
          "midi": 46,
          "time": 9.923066999999998,
          "velocity": 1,
          "duration": 0.18461519999999965
        },
        {
          "name": "C2",
          "midi": 36,
          "time": 10.153835999999998,
          "velocity": 1,
          "duration": 0.18461519999999965
        },
        {
          "name": "A#2",
          "midi": 46,
          "time": 10.384604999999999,
          "velocity": 1,
          "duration": 0.18461519999999965
        },
        {
          "name": "C2",
          "midi": 36,
          "time": 10.615374,
          "velocity": 1,
          "duration": 0.18461519999999965
        },
        {
          "name": "A#2",
          "midi": 46,
          "time": 10.846143,
          "velocity": 1,
          "duration": 0.18461519999999965
        },
        {
          "name": "C2",
          "midi": 36,
          "time": 11.076912,
          "velocity": 1,
          "duration": 0.18461519999999965
        },
        {
          "name": "A#2",
          "midi": 46,
          "time": 11.307681,
          "velocity": 1,
          "duration": 0.18461519999999965
        },
        {
          "name": "C2",
          "midi": 36,
          "time": 11.538450000000001,
          "velocity": 1,
          "duration": 0.18461519999999965
        },
        {
          "name": "A#2",
          "midi": 46,
          "time": 11.769219000000001,
          "velocity": 1,
          "duration": 0.18461519999999965
        },
        {
          "name": "C2",
          "midi": 36,
          "time": 11.999988000000002,
          "velocity": 1,
          "duration": 0.18461519999999965
        },
        {
          "name": "A#2",
          "midi": 46,
          "time": 12.230757000000002,
          "velocity": 1,
          "duration": 0.18461519999999965
        },
        {
          "name": "C2",
          "midi": 36,
          "time": 12.461526000000003,
          "velocity": 1,
          "duration": 0.18461519999999965
        },
        {
          "name": "A#2",
          "midi": 46,
          "time": 12.692295000000003,
          "velocity": 1,
          "duration": 0.18461519999999965
        },
        {
          "name": "C2",
          "midi": 36,
          "time": 12.923064000000004,
          "velocity": 1,
          "duration": 0.18461519999999965
        },
        {
          "name": "A#2",
          "midi": 46,
          "time": 13.153833000000004,
          "velocity": 1,
          "duration": 0.18461519999999965
        },
        {
          "name": "C2",
          "midi": 36,
          "time": 13.384602000000005,
          "velocity": 1,
          "duration": 0.18461519999999965
        },
        {
          "name": "A#2",
          "midi": 46,
          "time": 13.615371000000005,
          "velocity": 1,
          "duration": 0.18461519999999965
        },
        {
          "name": "C2",
          "midi": 36,
          "time": 13.846140000000005,
          "velocity": 1,
          "duration": 0.18461519999999965
        },
        {
          "name": "A#2",
          "midi": 46,
          "time": 14.076909000000006,
          "velocity": 1,
          "duration": 0.18461519999999965
        },
        {
          "name": "C2",
          "midi": 36,
          "time": 14.307678000000006,
          "velocity": 1,
          "duration": 0.18461519999999965
        },
        {
          "name": "A#2",
          "midi": 46,
          "time": 14.538447000000007,
          "velocity": 1,
          "duration": 0.18461519999999965
        },
        {
          "name": "C2",
          "midi": 36,
          "time": 14.769216000000007,
          "velocity": 1,
          "duration": 0.18461519999999965
        },
        {
          "name": "A#2",
          "midi": 46,
          "time": 14.999985000000008,
          "velocity": 1,
          "duration": 0.18461519999999965
        },
        {
          "name": "C2",
          "midi": 36,
          "time": 15.230754000000008,
          "velocity": 1,
          "duration": 0.18461519999999965
        },
        {
          "name": "A#2",
          "midi": 46,
          "time": 15.461523000000009,
          "velocity": 1,
          "duration": 0.18461519999999965
        },
        {
          "name": "C2",
          "midi": 36,
          "time": 15.692292000000009,
          "velocity": 1,
          "duration": 0.18461519999999965
        },
        {
          "name": "A#2",
          "midi": 46,
          "time": 15.92306100000001,
          "velocity": 1,
          "duration": 0.18461520000000142
        },
        {
          "name": "C2",
          "midi": 36,
          "time": 16.15383000000001,
          "velocity": 1,
          "duration": 0.18461519999999965
        },
        {
          "name": "A#2",
          "midi": 46,
          "time": 16.38459900000001,
          "velocity": 1,
          "duration": 0.18461519999999965
        },
        {
          "name": "C2",
          "midi": 36,
          "time": 16.615368000000007,
          "velocity": 1,
          "duration": 0.18461519999999965
        },
        {
          "name": "A#2",
          "midi": 46,
          "time": 16.846137000000006,
          "velocity": 1,
          "duration": 0.18461519999999965
        },
        {
          "name": "C2",
          "midi": 36,
          "time": 17.076906000000005,
          "velocity": 1,
          "duration": 0.18461519999999965
        },
        {
          "name": "A#2",
          "midi": 46,
          "time": 17.307675000000003,
          "velocity": 1,
          "duration": 0.18461519999999965
        },
        {
          "name": "C2",
          "midi": 36,
          "time": 17.538444000000002,
          "velocity": 1,
          "duration": 0.18461519999999965
        },
        {
          "name": "A#2",
          "midi": 46,
          "time": 17.769213,
          "velocity": 1,
          "duration": 0.18461519999999965
        },
        {
          "name": "C2",
          "midi": 36,
          "time": 17.999982,
          "velocity": 1,
          "duration": 0.18461519999999965
        },
        {
          "name": "A#2",
          "midi": 46,
          "time": 18.230750999999998,
          "velocity": 1,
          "duration": 0.18461519999999965
        },
        {
          "name": "C2",
          "midi": 36,
          "time": 18.461519999999997,
          "velocity": 1,
          "duration": 0.18461519999999965
        },
        {
          "name": "A#2",
          "midi": 46,
          "time": 18.692288999999995,
          "velocity": 1,
          "duration": 0.18461519999999965
        },
        {
          "name": "C2",
          "midi": 36,
          "time": 18.923057999999994,
          "velocity": 1,
          "duration": 0.18461519999999965
        },
        {
          "name": "A#2",
          "midi": 46,
          "time": 19.153826999999993,
          "velocity": 1,
          "duration": 0.18461519999999965
        },
        {
          "name": "C2",
          "midi": 36,
          "time": 19.38459599999999,
          "velocity": 1,
          "duration": 0.18461519999999965
        },
        {
          "name": "A#2",
          "midi": 46,
          "time": 19.61536499999999,
          "velocity": 1,
          "duration": 0.18461519999999965
        },
        {
          "name": "C2",
          "midi": 36,
          "time": 19.84613399999999,
          "velocity": 1,
          "duration": 0.18461519999999965
        },
        {
          "name": "A#2",
          "midi": 46,
          "time": 20.076902999999987,
          "velocity": 1,
          "duration": 0.18461519999999965
        },
        {
          "name": "C2",
          "midi": 36,
          "time": 20.307671999999986,
          "velocity": 1,
          "duration": 0.18461519999999965
        },
        {
          "name": "A#2",
          "midi": 46,
          "time": 20.538440999999985,
          "velocity": 1,
          "duration": 0.18461519999999965
        },
        {
          "name": "C2",
          "midi": 36,
          "time": 20.769209999999983,
          "velocity": 1,
          "duration": 0.18461519999999965
        },
        {
          "name": "A#2",
          "midi": 46,
          "time": 20.999978999999982,
          "velocity": 1,
          "duration": 0.18461519999999965
        },
        {
          "name": "C2",
          "midi": 36,
          "time": 21.23074799999998,
          "velocity": 1,
          "duration": 0.18461519999999965
        },
        {
          "name": "A#2",
          "midi": 46,
          "time": 21.46151699999998,
          "velocity": 1,
          "duration": 0.18461519999999965
        },
        {
          "name": "C2",
          "midi": 36,
          "time": 21.692285999999978,
          "velocity": 1,
          "duration": 0.18461519999999965
        },
        {
          "name": "A#2",
          "midi": 46,
          "time": 21.923054999999977,
          "velocity": 1,
          "duration": 0.18461519999999965
        },
        {
          "name": "C2",
          "midi": 36,
          "time": 22.153823999999975,
          "velocity": 1,
          "duration": 0.18461519999999965
        },
        {
          "name": "A#2",
          "midi": 46,
          "time": 22.384592999999974,
          "velocity": 1,
          "duration": 0.18461519999999965
        },
        {
          "name": "C2",
          "midi": 36,
          "time": 22.615361999999973,
          "velocity": 1,
          "duration": 0.18461519999999965
        },
        {
          "name": "A#2",
          "midi": 46,
          "time": 22.84613099999997,
          "velocity": 1,
          "duration": 0.18461519999999965
        },
        {
          "name": "C2",
          "midi": 36,
          "time": 23.07689999999997,
          "velocity": 1,
          "duration": 0.18461519999999965
        },
        {
          "name": "A#2",
          "midi": 46,
          "time": 23.30766899999997,
          "velocity": 1,
          "duration": 0.18461519999999965
        },
        {
          "name": "C2",
          "midi": 36,
          "time": 23.538437999999967,
          "velocity": 1,
          "duration": 0.18461519999999965
        },
        {
          "name": "A#2",
          "midi": 46,
          "time": 23.769206999999966,
          "velocity": 1,
          "duration": 0.18461519999999965
        },
        {
          "name": "C2",
          "midi": 36,
          "time": 23.999975999999965,
          "velocity": 1,
          "duration": 0.18461519999999965
        },
        {
          "name": "A#2",
          "midi": 46,
          "time": 24.230744999999963,
          "velocity": 1,
          "duration": 0.18461519999999965
        },
        {
          "name": "C2",
          "midi": 36,
          "time": 24.461513999999962,
          "velocity": 1,
          "duration": 0.18461519999999965
        },
        {
          "name": "A#2",
          "midi": 46,
          "time": 24.69228299999996,
          "velocity": 1,
          "duration": 0.18461519999999965
        },
        {
          "name": "C2",
          "midi": 36,
          "time": 24.92305199999996,
          "velocity": 1,
          "duration": 0.18461519999999965
        },
        {
          "name": "A#2",
          "midi": 46,
          "time": 25.153820999999958,
          "velocity": 1,
          "duration": 0.18461519999999965
        },
        {
          "name": "C2",
          "midi": 36,
          "time": 25.384589999999957,
          "velocity": 1,
          "duration": 0.18461519999999965
        },
        {
          "name": "A#2",
          "midi": 46,
          "time": 25.615358999999955,
          "velocity": 1,
          "duration": 0.18461519999999965
        },
        {
          "name": "C2",
          "midi": 36,
          "time": 25.846127999999954,
          "velocity": 1,
          "duration": 0.18461519999999965
        },
        {
          "name": "A#2",
          "midi": 46,
          "time": 26.076896999999953,
          "velocity": 1,
          "duration": 0.18461519999999965
        },
        {
          "name": "C2",
          "midi": 36,
          "time": 26.30766599999995,
          "velocity": 1,
          "duration": 0.18461519999999965
        },
        {
          "name": "A#2",
          "midi": 46,
          "time": 26.53843499999995,
          "velocity": 1,
          "duration": 0.18461519999999965
        },
        {
          "name": "C2",
          "midi": 36,
          "time": 26.76920399999995,
          "velocity": 1,
          "duration": 0.18461519999999965
        },
        {
          "name": "A#2",
          "midi": 46,
          "time": 26.999972999999947,
          "velocity": 1,
          "duration": 0.18461519999999965
        },
        {
          "name": "C2",
          "midi": 36,
          "time": 27.230741999999946,
          "velocity": 1,
          "duration": 0.18461519999999965
        },
        {
          "name": "A#2",
          "midi": 46,
          "time": 27.461510999999945,
          "velocity": 1,
          "duration": 0.18461519999999965
        },
        {
          "name": "C2",
          "midi": 36,
          "time": 27.692279999999943,
          "velocity": 1,
          "duration": 0.18461519999999965
        },
        {
          "name": "A#2",
          "midi": 46,
          "time": 27.923048999999942,
          "velocity": 1,
          "duration": 0.18461519999999965
        },
        {
          "name": "C2",
          "midi": 36,
          "time": 28.15381799999994,
          "velocity": 1,
          "duration": 0.18461519999999965
        },
        {
          "name": "A#2",
          "midi": 46,
          "time": 28.38458699999994,
          "velocity": 1,
          "duration": 0.18461519999999965
        },
        {
          "name": "C2",
          "midi": 36,
          "time": 28.615355999999938,
          "velocity": 1,
          "duration": 0.18461519999999965
        },
        {
          "name": "D#6",
          "midi": 87,
          "time": 28.846124999999937,
          "velocity": 1,
          "duration": 0.18461519999999965
        },
        {
          "name": "C#2",
          "midi": 37,
          "time": 29.076893999999935,
          "velocity": 1,
          "duration": 0.3692303999999993
        }
      ],
      "controlChanges": {
        "7": [
          {
            "number": 7,
            "time": 0,
            "value": 1
          }
        ],
        "10": [
          {
            "number": 10,
            "time": 0,
            "value": 0.5039370078740157
          }
        ]
      },
      "id": 4,
      "channelNumber": 9,
      "isPercussion": true
    },
    {
      "startTime": 0,
      "duration": 0,
      "length": 0,
      "notes": [],
      "controlChanges": {},
      "id": 5,
      "name": "Theme to \"South Park\""
    },
    {
      "startTime": 0,
      "duration": 0,
      "length": 0,
      "notes": [],
      "controlChanges": {},
      "id": 6,
      "name": "Copyright by:"
    },
    {
      "startTime": 0,
      "duration": 0,
      "length": 0,
      "notes": [],
      "controlChanges": {},
      "id": 7,
      "name": "Comedy Central"
    },
    {
      "startTime": 0,
      "duration": 0,
      "length": 0,
      "notes": 
      "controlChanges": {},
      "id": 8,
      "name": "Matt Stone & Trey Parker"
    },
    {
      "startTime": 0,
      "duration": 0,
      "length": 0,
      "notes": [],
      "controlChanges": {},
      "id": 9
      "name": "Original Music by:"
    },
    {
      "startTime": 0,
      "duration":
      "length": 0,
      "notes": [],
      "controlChanges": {},
      "id": 10,
      "name": "Primus"
    }
  ]
}
          "midi": 56,
          "time": 0,
          "velocity": 0.3937007874015748,
          "duration": 0.35502900000000004
        },
        {
          "name": "B3",
          "midi": 59,
          "time": 0.35502900000000004,
          "velocity": 0.3937007874015748,
          "duration": 0.35502900000000004
        },
        {
          "name": "D#4",
          "midi": 63,
          "time": 0.7100580000000001,
          "velocity": 0.3937007874015748,
          "duration": 0.17751450000000002
        },
        {
          "name": "G#4",
          "midi": 68,
          "time": 0.8875725000000001,
          "velocity": 0.3937007874015748,
          "duration": 0.17751450000000002
        },
        {
          "name": "B4",
          "midi": 71,
          "time": 1.0650870000000001,
          "velocity": 0.3937007874015748,
          "duration": 0.35502900000000004{
  "header": {
    "PPQ": 480,
    "bpm": 130.00013000013,
    "timeSignature": [
      4,
      4
    ],
    "name": "Theme to \"South Park\""
  },
  "tempo": [
    {
      "absoluteTime": 0,
      "seconds": 0,
      "bpm": 130.00013000013
    }
  ],
  "timeSignature": [
    {
      "absoluteTime": 0,
      "seconds": 0,
      "numerator": 4,
      "denominator": 2,
      "click": 24,
      "notesQ": 8
    }
  ],
  "startTime": 0,
  "duration": 29.446124399999935,
  "tracks": [
    {
      "startTime": 0,
      "duration": 0,
      "length": 0,
      "notes": [],
      "controlChanges": {},
      "id": 0
    },
    {
      "startTime": 0,
      "duration": 28.79997120000005,
      "length": 222,
      "notes": [
        {
          "name": "C#5",
          "midi": 73,
          "time": 0,
          "velocity": 1,
          "duration": 0.06153839999999999
        },
        {
          "name": "C5",
          "midi": 72,
          "time": 0,
          "velocity": 1,
          "duration": 0.06153839999999999
        },
        {
          "name": "C5",
          "midi": 72,
          "time": 0.15384599999999998,
          "velocity": 1,
          "duration": 0.06153839999999999
        },
        {
          "name": "C#5",
          "midi": 73,
          "time": 0.15384599999999998,
          "velocity": 1,
          "duration": 0.06153839999999999
        },
        {
          "name": "C#5",
          "midi": 73,
          "time": 0.23076899999999997,
          "velocity": 1,
          "duration": 0.06153840000000002
        },
        {
          "name": "C5",
          "midi": 72,
          "time": 0.23076899999999997,
          "velocity": 1,
          "duration": 0.06153840000000002
        },
        {
          "name": "C#5",
          "midi": 73,
          "time": 0.384615,
          "velocity": 1,
          "duration": 0.06153839999999999
        },
        {
          "name": "C5",
          "midi": 72,
          "time": 0.384615,
          "velocity": 1,
          "duration": 0.06153839999999999
        },
        {
          "name": "C#5",
          "midi": 73,
          "time": 0.461538,
          "velocity": 1,
          "duration": 0.18461519999999998
        },
        {
          "name": "C5",
          "midi": 72,
          "time": 0.461538,
          "velocity": 1,
          "duration": 0.18461519999999998
        },
        {
          "name": "C5",
          "midi": 72,
          "time": 0.692307,
          "velocity": 1,
          "duration": 0.06153839999999999
        },
        {
          "name": "C#5",
          "midi": 73,
          "time": 0.692307,
          "velocity": 1,
          "duration": 0.06153839999999999
        },
        {
          "name": "C5",
          "midi": 72,
          "time": 0.8461529999999999,
          "velocity": 1,
          "duration": 0.06153839999999999
        },
        {
          "name": "C#5",
          "midi": 73,
          "time": 0.8461529999999999,
          "velocity": 1,
          "duration": 0.06153839999999999
        },
        {
          "name": "C5",
          "midi": 72,
          "time": 0.9230759999999999,
          "velocity": 1,
          "duration": 0.06153839999999999
        },
        {
          "name": "C#5",
          "midi": 73,
          "time": 0.9230759999999999,
          "velocity": 1,
          "duration": 0.06153839999999999
        },
        {
          "name": "C#5",
          "midi": 73,
          "time": 1.076922,
          "velocity": 1,
          "duration": 0.061538400000000104
        },
        {
          "name": "C5",
          "midi": 72,
          "time": 1.076922,
          "velocity": 1,
          "duration": 0.061538400000000104
        },
        {
          "name": "C5",
          "midi": 72,
          "time": 1.153845,
          "velocity": 1,
          "duration": 0.1846152000000001
        },
        {
          "name": "C#5",
          "midi": 73,
          "time": 1.153845,
          "velocity": 1,
          "duration": 0.1846152000000001
        },
        {
          "name": "F#4",
          "midi": 66,
          "time": 1.384614,
          "velocity": 1,
          "duration": 0.1846152000000001
        },
        {
          "name": "A4",
          "midi": 69,
          "time": 1.615383,
          "velocity": 1,
          "duration": 0.1846152000000001
        },
        {
          "name": "A4",
          "midi": 69,
          "time": 1.846152,
          "velocity": 1,
          "duration": 0.06153839999999988
        },
        {
          "name": "D#4",
          "midi": 63,
          "time": 1.846152,
          "velocity": 1,
          "duration": 0.06153839999999988
        },
        {
          "name": "A4",
          "midi": 69,
          "time": 1.999998,
          "velocity": 1,
          "duration": 0.061538400000000104
        },
        {
          "name": "D#4",
          "midi": 63,
          "time": 1.999998,
          "velocity": 1,
          "duration": 0.061538400000000104
        },
        {
          "name": "A4",
          "midi": 69,
          "time": 2.076921,
          "velocity": 1,
          "duration": 0.1846152000000001
        },
        {
          "name": "D#4",
          "midi": 63,
          "time": 2.076921,
          "velocity": 1,
          "duration": 0.1846152000000001
        },
        {
          "name": "D4",
          "midi": 62,
          "time": 2.30769,
          "velocity": 1,
          "duration": 0.06153839999999988
        },
        {
          "name": "G#4",
          "midi": 68,
          "time": 2.30769,
          "velocity": 1,
          "duration": 0.06153839999999988
        },
        {
          "name": "G#4",
          "midi": 68,
          "time": 2.4615359999999997,
          "velocity": 1,
          "duration": 0.06153839999999988
        },
        {
          "name": "D4",
          "midi": 62,
          "time": 2.4615359999999997,
          "velocity": 1,
          "duration": 0.06153839999999988
        },
        {
          "name": "G#4",
          "midi": 68,
          "time": 2.5384589999999996,
          "velocity": 1,
          "duration": 0.1846152000000001
        },
        {
          "name": "D4",
          "midi": 62,
          "time": 2.5384589999999996,
          "velocity": 1,
          "duration": 0.1846152000000001
        },
        {
          "name": "F#4",
          "midi": 66,
          "time": 2.7692279999999996,
          "velocity": 1,
          "duration": 0.1846152000000001
        },
        {
          "name": "C4",
          "midi": 60,
          "time": 2.7692279999999996,
          "velocity": 1,
          "duration": 0.1846152000000001
        },
        {
          "name": "C4",
          "midi": 60,
          "time": 3.9230729999999996,
          "velocity": 1,
          "duration": 0.18461519999999965
        },
        {
          "name": "F#4",
          "midi": 66,
          "time": 3.9230729999999996,
          "velocity": 1,
          "duration": 0.18461519999999965
        },
        {
          "name": "F#4",
          "midi": 66,
          "time": 4.384611,
          "velocity": 1,
          "duration": 0.18461519999999965
        },
        {
          "name": "C4",
          "midi": 60,
          "time": 4.384611,
          "velocity": 1,
          "duration": 0.18461519999999965
        },
        {
          "name": "F#4",
          "midi": 66,
          "time": 4.846149,
          "velocity": 1,
          "duration": 0.18461519999999965
        },
        {
          "name": "C4",
          "midi": 60,
          "time": 4.846149,
          "velocity": 1,
          "duration": 0.18461519999999965
        },
        {
          "name": "C4",
          "midi": 60,
          "time": 5.307687,
          "velocity": 1,
          "duration": 0.18461519999999965
        },
        {
          "name": "F#4",
          "midi": 66,
          "time": 5.307687,
          "velocity": 1,
          "duration": 0.18461519999999965
        },
        {
          "name": "F#4",
          "midi": 66,
          "time": 5.769225,
          "velocity": 1,
          "duration": 0.18461519999999965
        },
        {
          "name": "C4",
          "midi": 60,
          "time": 5.769225,
          "velocity": 1,
          "duration": 0.18461519999999965
        },
        {
          "name": "C4",
          "midi": 60,
          "time": 6.230763,
          "velocity": 1,
          "duration": 0.18461519999999965
        },
        {
          "name": "F#4",
          "midi": 66,
          "time": 6.230763,
          "velocity": 1,
          "duration": 0.18461519999999965
        },
        {
          "name": "C4",
          "midi": 60,
          "time": 6.692301,
          "velocity": 1,
          "duration": 0.18461519999999965
        },
        {
          "name": "F#4",
          "midi": 66,
          "time": 6.692301,
          "velocity": 1,
          "duration": 0.18461519999999965
        },
        {
          "name": "C4",
          "midi": 60,
          "time": 7.153839,
          "velocity": 1,
          "duration": 0.18461519999999965
        },
        {
          "name": "F#4",
          "midi": 66,
          "time": 7.153839,
          "velocity": 1,
          "duration": 0.18461519999999965
        },
        {
          "name": "D#4",
          "midi": 63,
          "time": 7.384607999999999,
          "velocity": 1,
          "duration": 0.09230759999999982
        },
        {
          "name": "A4",
          "midi": 69,
          "time": 7.384607999999999,
          "velocity": 1,
          "duration": 0.09230759999999982
        },
        {
          "name": "D#4",
          "midi": 63,
          "time": 7.615376999999999,
          "velocity": 1,
          "duration": 0.09230759999999982
        },
        {
          "name": "A4",
          "midi": 69,
          "time": 7.615376999999999,
          "velocity": 1,
          "duration": 0.09230759999999982
        },
        {
          "name": "A4",
          "midi": 69,
          "time": 7.846145999999998,
          "velocity": 1,
          "duration": 0.3692304000000002
        },
        {
          "name": "D#4",
          "midi": 63,
          "time": 7.846145999999998,
          "velocity": 1,
          "duration": 0.3692304000000002
        },
        {
          "name": "C5",
          "midi": 72,
          "time": 8.307683999999998,
          "velocity": 1,
          "duration": 0.09230759999999982
        },
        {
          "name": "F#4",
          "midi": 66,
          "time": 8.307683999999998,
          "velocity": 1,
          "duration": 0.09230759999999982
        },
        {
          "name": "F#4",
          "midi": 66,
          "time": 8.538452999999999,
          "velocity": 1,
          "duration": 0.09230759999999982
        },
        {
          "name": "C5",
          "midi": 72,
          "time": 8.538452999999999,
          "velocity": 1,
          "duration": 0.09230759999999982
        },
        {
          "name": "F#4",
          "midi": 66,
          "time": 8.769222,
          "velocity": 1,
          "duration": 0.3692303999999993
        },
        {
          "name": "C5",
          "midi": 72,
          "time": 8.769222,
          "velocity": 1,
          "duration": 0.3692303999999993
        },
        {
          "name": "A4",
          "midi": 69,
          "time": 9.230759999999998,
          "velocity": 1,
          "duration": 0.09230759999999982
        },
        {
          "name": "D#4",
          "midi": 63,
          "time": 9.230759999999998,
          "velocity": 1,
          "duration": 0.09230759999999982
        },
        {
          "name": "A4",
          "midi": 69,
          "time": 9.461528999999999,
          "velocity": 1,
          "duration": 0.09230759999999982
        },
        {
          "name": "D#4",
          "midi": 63,
          "time": 9.461528999999999,
          "velocity": 1,
          "duration": 0.09230759999999982
        },
        {
          "name": "D#4",
          "midi": 63,
          "time": 9.692298,
          "velocity": 1,
          "duration": 0.3692303999999993
        },
        {
          "name": "A4",
          "midi": 69,
          "time": 9.692298,
          "velocity": 1,
          "duration": 0.3692303999999993
        },
        {
          "name": "C5",
          "midi": 72,
          "time": 10.153835999999998,
          "velocity": 1,
          "duration": 0.09230759999999982
        },
        {
          "name": "F#4",
          "midi": 66,
          "time": 10.153835999999998,
          "velocity": 1,
          "duration": 0.09230759999999982
        },
        {
          "name": "C5",
          "midi": 72,
          "time": 10.384604999999999,
          "velocity": 1,
          "duration": 0.09230759999999982
        },
        {
          "name": "F#4",
          "midi": 66,
          "time": 10.384604999999999,
          "velocity": 1,
          "duration": 0.09230759999999982
        },
        {
          "name": "C5",
          "midi": 72,
          "time": 10.615374,
          "velocity": 1,
          "duration": 0.3692303999999993
        },
        {
          "name": "F#4",
          "midi": 66,
          "time": 10.615374,
          "velocity": 1,
          "duration": 0.3692303999999993
        },
        {
          "name": "C4",
          "midi": 60,
          "time": 11.307680999999999,
          "velocity": 1,
          "duration": 0.18461519999999965
        },
        {
          "name": "F#4",
          "midi": 66,
          "time": 11.307680999999999,
          "velocity": 1,
          "duration": 0.18461519999999965
        },
        {
          "name": "F#4",
          "midi": 66,
          "time": 11.769218999999998,
          "velocity": 1,
          "duration": 0.18461519999999965
        },
        {
          "name": "C4",
          "midi": 60,
          "time": 11.769218999999998,
          "velocity": 1,
          "duration": 0.18461519999999965
        },
        {
          "name": "F#4",
          "midi": 66,
          "time": 12.230756999999997,
          "velocity": 1,
          "duration": 0.18461519999999965
        },
        {
          "name": "C4",
          "midi": 60,
          "time": 12.230756999999997,
          "velocity": 1,
          "duration": 0.18461519999999965
        },
        {
          "name": "C4",
          "midi": 60,
          "time": 12.692294999999996,
          "velocity": 1,
          "duration": 0.18461519999999965
        },
        {
          "name": "F#4",
          "midi": 66,
          "time": 12.692294999999996,
          "velocity": 1,
          "duration": 0.18461519999999965
        },
        {
          "name": "F#4",
          "midi": 66,
          "time": 13.153832999999995,
          "velocity": 1,
          "duration": 0.18461519999999965
        },
        {
          "name": "C4",
          "midi": 60,
          "time": 13.153832999999995,
          "velocity": 1,
          "duration": 0.18461519999999965
        },
        {
          "name": "C4",
          "midi": 60,
          "time": 13.615370999999994,
          "velocity": 1,
          "duration": 0.18461519999999965
        },
        {
          "name": "F#4",
          "midi": 66,
          "time": 13.615370999999994,
          "velocity": 1,
          "duration": 0.18461519999999965
        },
        {
          "name": "C4",
          "midi": 60,
          "time": 14.076908999999993,
          "velocity": 1,
          "duration": 0.18461519999999965
        },
        {
          "name": "F#4",
          "midi": 66,
          "time": 14.076908999999993,
          "velocity": 1,
          "duration": 0.18461519999999965
        },
        {
          "name": "C4",
          "midi": 60,
          "time": 14.538446999999993,
          "velocity": 1,
          "duration": 0.18461519999999965
        },
        {
          "name": "F#4",
          "midi": 66,
          "time": 14.538446999999993,
          "velocity": 1,
          "duration": 0.18461519999999965
        },
        {
          "name": "D#4",
          "midi": 63,
          "time": 14.769215999999993,
          "velocity": 1,
          "duration": 0.09230759999999982
        },
        {
          "name": "A4",
          "midi": 69,
          "time": 14.769215999999993,
          "velocity": 1,
          "duration": 0.09230759999999982
        },
        {
          "name": "D#4",
          "midi": 63,
          "time": 14.999984999999993,
          "velocity": 1,
          "duration": 0.09230759999999982
        },
        {
          "name": "A4",
          "midi": 69,
          "time": 14.999984999999993,
          "velocity": 1,
          "duration": 0.09230759999999982
        },
        {
          "name": "A4",
          "midi": 69,
          "time": 15.230753999999994,
          "velocity": 1,
          "duration": 0.3692303999999993
        },
        {
          "name": "D#4",
          "midi": 63,
          "time": 15.230753999999994,
          "velocity": 1,
          "duration": 0.3692303999999993
        },
        {
          "name": "C5",
          "midi": 72,
          "time": 15.692291999999993,
          "velocity": 1,
          "duration": 0.09230759999999982
        },
        {
          "name": "F#4",
          "midi": 66,
          "time": 15.692291999999993,
          "velocity": 1,
          "duration": 0.09230759999999982
        },
        {
          "name": "F#4",
          "midi": 66,
          "time": 15.923060999999993,
          "velocity": 1,
          "duration": 0.0923076000000016
        },
        {
          "name": "C5",
          "midi": 72,
          "time": 15.923060999999993,
          "velocity": 1,
          "duration": 0.0923076000000016
        },
        {
          "name": "F#4",
          "midi": 66,
          "time": 16.153829999999996,
          "velocity": 1,
          "duration": 0.3692303999999993
        },
        {
          "name": "C5",
          "midi": 72,
          "time": 16.153829999999996,
          "velocity": 1,
          "duration": 0.3692303999999993
        },
        {
          "name": "A4",
          "midi": 69,
          "time": 16.615367999999997,
          "velocity": 1,
          "duration": 0.0923076000000016
        },
        {
          "name": "D#4",
          "midi": 63,
          "time": 16.615367999999997,
          "velocity": 1,
          "duration": 0.0923076000000016
        },
        {
          "name": "A4",
          "midi": 69,
          "time": 16.846137,
          "velocity": 1,
          "duration": 0.0923076000000016
        },
        {
          "name": "D#4",
          "midi": 63,
          "time": 16.846137,
          "velocity": 1,
          "duration": 0.0923076000000016
        },
        {
          "name": "D#4",
          "midi": 63,
          "time": 17.076906,
          "velocity": 1,
          "duration": 0.3692303999999993
        },
        {
          "name": "A4",
          "midi": 69,
          "time": 17.076906,
          "velocity": 1,
          "duration": 0.3692303999999993
        },
        {
          "name": "C5",
          "midi": 72,
          "time": 17.538444000000002,
          "velocity": 1,
          "duration": 0.0923076000000016
        },
        {
          "name": "F#4",
          "midi": 66,
          "time": 17.538444000000002,
          "velocity": 1,
          "duration": 0.0923076000000016
        },
        {
          "name": "C5",
          "midi": 72,
          "time": 17.769213000000004,
          "velocity": 1,
          "duration": 0.0923076000000016
        },
        {
          "name": "F#4",
          "midi": 66,
          "time": 17.769213000000004,
          "velocity": 1,
          "duration": 0.0923076000000016
        },
        {
          "name": "C5",
          "midi": 72,
          "time": 17.999982000000006,
          "velocity": 1,
          "duration": 0.3692303999999993
        },
        {
          "name": "F#4",
          "midi": 66,
          "time": 17.999982000000006,
          "velocity": 1,
          "duration": 0.3692303999999993
        },
        {
          "name": "C#5",
          "midi": 73,
          "time": 18.461520000000007,
          "velocity": 1,
          "duration": 0.06153839999999988
        },
        {
          "name": "C5",
          "midi": 72,
          "time": 18.461520000000007,
          "velocity": 1,
          "duration": 0.06153839999999988
        },
        {
          "name": "C5",
          "midi": 72,
          "time": 18.61536600000001,
          "velocity": 1,
          "duration": 0.06153839999999988
        },
        {
          "name": "C#5",
          "midi": 73,
          "time": 18.61536600000001,
          "velocity": 1,
          "duration": 0.06153839999999988
        },
        {
          "name": "C5",
          "midi": 72,
          "time": 18.69228900000001,
          "velocity": 1,
          "duration": 0.06153839999999988
        },
        {
          "name": "C#5",
          "midi": 73,
          "time": 18.69228900000001,
          "velocity": 1,
          "duration": 0.06153839999999988
        },
        {
          "name": "C5",
          "midi": 72,
          "time": 18.84613500000001,
          "velocity": 1,
          "duration": 0.06153839999999988
        },
        {
          "name": "C#5",
          "midi": 73,
          "time": 18.84613500000001,
          "velocity": 1,
          "duration": 0.06153839999999988
        },
        {
          "name": "C#5",
          "midi": 73,
          "time": 18.92305800000001,
          "velocity": 1,
          "duration": 0.18461519999999965
        },
        {
          "name": "C5",
          "midi": 72,
          "time": 18.92305800000001,
          "velocity": 1,
          "duration": 0.18461519999999965
        },
        {
          "name": "C5",
          "midi": 72,
          "time": 19.15382700000001,
          "velocity": 1,
          "duration": 0.06153839999999988
        },
        {
          "name": "C#5",
          "midi": 73,
          "time": 19.15382700000001,
          "velocity": 1,
          "duration": 0.06153839999999988
        },
        {
          "name": "C5",
          "midi": 72,
          "time": 19.307673000000012,
          "velocity": 1,
          "duration": 0.06153839999999988
        },
        {
          "name": "C#5",
          "midi": 73,
          "time": 19.307673000000012,
          "velocity": 1,
          "duration": 0.06153839999999988
        },
        {
          "name": "C5",
          "midi": 72,
          "time": 19.384596000000013,
          "velocity": 1,
          "duration": 0.06153839999999988
        },
        {
          "name": "C#5",
          "midi": 73,
          "time": 19.384596000000013,
          "velocity": 1,
          "duration": 0.06153839999999988
        },
        {
          "name": "C#5",
          "midi": 73,
          "time": 19.538442000000014,
          "velocity": 1,
          "duration": 0.06153839999999988
        },
        {
          "name": "C5",
          "midi": 72,
          "time": 19.538442000000014,
          "velocity": 1,
          "duration": 0.06153839999999988
        },
        {
          "name": "C5",
          "midi": 72,
          "time": 19.615365000000015,
          "velocity": 1,
          "duration": 0.18461519999999965
        },
        {
          "name": "C#5",
          "midi": 73,
          "time": 19.615365000000015,
          "velocity": 1,
          "duration": 0.18461519999999965
        },
        {
          "name": "F#4",
          "midi": 66,
          "time": 19.846134000000013,
          "velocity": 1,
          "duration": 0.18461519999999965
        },
        {
          "name": "A4",
          "midi": 69,
          "time": 20.076903000000012,
          "velocity": 1,
          "duration": 0.18461519999999965
        },
        {
          "name": "C#5",
          "midi": 73,
          "time": 20.30767200000001,
          "velocity": 1,
          "duration": 0.06153839999999988
        },
        {
          "name": "C5",
          "midi": 72,
          "time": 20.30767200000001,
          "velocity": 1,
          "duration": 0.06153839999999988
        },
        {
          "name": "C#5",
          "midi": 73,
          "time": 20.461518000000012,
          "velocity": 1,
          "duration": 0.06153839999999988
        },
        {
          "name": "C5",
          "midi": 72,
          "time": 20.461518000000012,
          "velocity": 1,
          "duration": 0.06153839999999988
        },
        {
          "name": "C5",
          "midi": 72,
          "time": 20.538441000000013,
          "velocity": 1,
          "duration": 0.06153839999999988
        },
        {
          "name": "C#5",
          "midi": 73,
          "time": 20.538441000000013,
          "velocity": 1,
          "duration": 0.06153839999999988
        },
        {
          "name": "C5",
          "midi": 72,
          "time": 20.692287000000015,
          "velocity": 1,
          "duration": 0.06153839999999988
        },
        {
          "name": "C#5",
          "midi": 73,
          "time": 20.692287000000015,
          "velocity": 1,
          "duration": 0.06153839999999988
        },
        {
          "name": "C5",
          "midi": 72,
          "time": 20.769210000000015,
          "velocity": 1,
          "duration": 0.18461519999999965
        },
        {
          "name": "C#5",
          "midi": 73,
          "time": 20.769210000000015,
          "velocity": 1,
          "duration": 0.18461519999999965
        },
        {
          "name": "C5",
          "midi": 72,
          "time": 20.999979000000014,
          "velocity": 1,
          "duration": 0.06153839999999988
        },
        {
          "name": "C#5",
          "midi": 73,
          "time": 20.999979000000014,
          "velocity": 1,
          "duration": 0.06153839999999988
        },
        {
          "name": "C5",
          "midi": 72,
          "time": 21.153825000000015,
          "velocity": 1,
          "duration": 0.06153839999999988
        },
        {
          "name": "C#5",
          "midi": 73,
          "time": 21.153825000000015,
          "velocity": 1,
          "duration": 0.06153839999999988
        },
        {
          "name": "C5",
          "midi": 72,
          "time": 21.230748000000016,
          "velocity": 1,
          "duration": 0.06153839999999988
        },
        {
          "name": "C#5",
          "midi": 73,
          "time": 21.230748000000016,
          "velocity": 1,
          "duration": 0.06153839999999988
        },
        {
          "name": "C#5",
          "midi": 73,
          "time": 21.384594000000018,
          "velocity": 1,
          "duration": 0.06153839999999988
        },
        {
          "name": "C5",
          "midi": 72,
          "time": 21.384594000000018,
          "velocity": 1,
          "duration": 0.06153839999999988
        },
        {
          "name": "E5",
          "midi": 76,
          "time": 21.46151700000002,
          "velocity": 1,
          "duration": 0.06153839999999988
        },
        {
          "name": "E5",
          "midi": 76,
          "time": 21.61536300000002,
          "velocity": 1,
          "duration": 0.06153839999999988
        },
        {
          "name": "F5",
          "midi": 77,
          "time": 21.69228600000002,
          "velocity": 1,
          "duration": 0.06153839999999988
        },
        {
          "name": "F5",
          "midi": 77,
          "time": 21.846132000000022,
          "velocity": 1,
          "duration": 0.06153839999999988
        },
        {
          "name": "E5",
          "midi": 76,
          "time": 21.923055000000023,
          "velocity": 1,
          "duration": 0.06153839999999988
        },
        {
          "name": "E5",
          "midi": 76,
          "time": 22.076901000000024,
          "velocity": 1,
          "duration": 0.06153839999999988
        },
        {
          "name": "A4",
          "midi": 69,
          "time": 22.153824000000025,
          "velocity": 1,
          "duration": 0.0923076000000016
        },
        {
          "name": "D#5",
          "midi": 75,
          "time": 22.153824000000025,
          "velocity": 1,
          "duration": 0.0923076000000016
        },
        {
          "name": "D#5",
          "midi": 75,
          "time": 22.384593000000027,
          "velocity": 1,
          "duration": 0.0923076000000016
        },
        {
          "name": "A4",
          "midi": 69,
          "time": 22.384593000000027,
          "velocity": 1,
          "duration": 0.0923076000000016
        },
        {
          "name": "D#5",
          "midi": 75,
          "time": 22.61536200000003,
          "velocity": 1,
          "duration": 0.3692303999999993
        },
        {
          "name": "A4",
          "midi": 69,
          "time": 22.61536200000003,
          "velocity": 1,
          "duration": 0.3692303999999993
        },
        {
          "name": "C5",
          "midi": 72,
          "time": 23.07690000000003,
          "velocity": 1,
          "duration": 0.0923076000000016
        },
        {
          "name": "F#5",
          "midi": 78,
          "time": 23.07690000000003,
          "velocity": 1,
          "duration": 0.0923076000000016
        },
        {
          "name": "F#5",
          "midi": 78,
          "time": 23.307669000000033,
          "velocity": 1,
          "duration": 0.0923076000000016
        },
        {
          "name": "C5",
          "midi": 72,
          "time": 23.307669000000033,
          "velocity": 1,
          "duration": 0.0923076000000016
        },
        {
          "name": "F#5",
          "midi": 78,
          "time": 23.538438000000035,
          "velocity": 1,
          "duration": 0.3692303999999993
        },
        {
          "name": "C5",
          "midi": 72,
          "time": 23.538438000000035,
          "velocity": 1,
          "duration": 0.3692303999999993
        },
        {
          "name": "A4",
          "midi": 69,
          "time": 23.999976000000036,
          "velocity": 1,
          "duration": 0.0923076000000016
        },
        {
          "name": "D#5",
          "midi": 75,
          "time": 23.999976000000036,
          "velocity": 1,
          "duration": 0.0923076000000016
        },
        {
          "name": "A4",
          "midi": 69,
          "time": 24.230745000000038,
          "velocity": 1,
          "duration": 0.0923076000000016
        },
        {
          "name": "D#5",
          "midi": 75,
          "time": 24.230745000000038,
          "velocity": 1,
          "duration": 0.0923076000000016
        },
        {
          "name": "D#5",
          "midi": 75,
          "time": 24.46151400000004,
          "velocity": 1,
          "duration": 0.3692303999999993
        },
        {
          "name": "A4",
          "midi": 69,
          "time": 24.46151400000004,
          "velocity": 1,
          "duration": 0.3692303999999993
        },
        {
          "name": "F#5",
          "midi": 78,
          "time": 24.92305200000004,
          "velocity": 1,
          "duration": 0.0923076000000016
        },
        {
          "name": "C5",
          "midi": 72,
          "time": 24.92305200000004,
          "velocity": 1,
          "duration": 0.0923076000000016
        },
        {
          "name": "F#5",
          "midi": 78,
          "time": 25.153821000000043,
          "velocity": 1,
          "duration": 0.0923076000000016
        },
        {
          "name": "C5",
          "midi": 72,
          "time": 25.153821000000043,
          "velocity": 1,
          "duration": 0.0923076000000016
        },
        {
          "name": "C5",
          "midi": 72,
          "time": 25.384590000000046,
          "velocity": 1,
          "duration": 0.3692303999999993
        },
        {
          "name": "F#5",
          "midi": 78,
          "time": 25.384590000000046,
          "velocity": 1,
          "duration": 0.3692303999999993
        },
        {
          "name": "C5",
          "midi": 72,
          "time": 25.846128000000046,
          "velocity": 1,
          "duration": 0.06153839999999988
        },
        {
          "name": "C#5",
          "midi": 73,
          "time": 25.846128000000046,
          "velocity": 1,
          "duration": 0.06153839999999988
        },
        {
          "name": "C5",
          "midi": 72,
          "time": 25.999974000000048,
          "velocity": 1,
          "duration": 0.06153839999999988
        },
        {
          "name": "C#5",
          "midi": 73,
          "time": 25.999974000000048,
          "velocity": 1,
          "duration": 0.06153839999999988
        },
        {
          "name": "C#5",
          "midi": 73,
          "time": 26.07689700000005,
          "velocity": 1,
          "duration": 0.06153839999999988
        },
        {
          "name": "C5",
          "midi": 72,
          "time": 26.07689700000005,
          "velocity": 1,
          "duration": 0.06153839999999988
        },
        {
          "name": "C5",
          "midi": 72,
          "time": 26.23074300000005,
          "velocity": 1,
          "duration": 0.06153839999999988
        },
        {
          "name": "C#5",
          "midi": 73,
          "time": 26.23074300000005,
          "velocity": 1,
          "duration": 0.06153839999999988
        },
        {
          "name": "C5",
          "midi": 72,
          "time": 26.30766600000005,
          "velocity": 1,
          "duration": 0.18461519999999965
        },
        {
          "name": "C#5",
          "midi": 73,
          "time": 26.30766600000005,
          "velocity": 1,
          "duration": 0.18461519999999965
        },
        {
          "name": "C#5",
          "midi": 73,
          "time": 26.53843500000005,
          "velocity": 1,
          "duration": 0.06153839999999988
        },
        {
          "name": "C5",
          "midi": 72,
          "time": 26.53843500000005,
          "velocity": 1,
          "duration": 0.06153839999999988
        },
        {
          "name": "C#5",
          "midi": 73,
          "time": 26.69228100000005,
          "velocity": 1,
          "duration": 0.06153839999999988
        },
        {
          "name": "C5",
          "midi": 72,
          "time": 26.69228100000005,
          "velocity": 1,
          "duration": 0.06153839999999988
        },
        {
          "name": "C#5",
          "midi": 73,
          "time": 26.76920400000005,
          "velocity": 1,
          "duration": 0.06153839999999988
        },
        {
          "name": "C5",
          "midi": 72,
          "time": 26.76920400000005,
          "velocity": 1,
          "duration": 0.06153839999999988
        },
        {
          "name": "C5",
          "midi": 72,
          "time": 26.923050000000053,
          "velocity": 1,
          "duration": 0.06153839999999988
        },
        {
          "name": "C#5",
          "midi": 73,
          "time": 26.923050000000053,
          "velocity": 1,
          "duration": 0.06153839999999988
        },
        {
          "name": "C#5",
          "midi": 73,
          "time": 26.999973000000054,
          "velocity": 1,
          "duration": 0.18461519999999965
        },
        {
          "name": "C5",
          "midi": 72,
          "time": 26.999973000000054,
          "velocity": 1,
          "duration": 0.18461519999999965
        },
        {
          "name": "F#4",
          "midi": 66,
          "time": 27.230742000000053,
          "velocity": 1,
          "duration": 0.18461519999999965
        },
        {
          "name": "A4",
          "midi": 69,
          "time": 27.46151100000005,
          "velocity": 1,
          "duration": 0.18461519999999965
        },
        {
          "name": "C#5",
          "midi": 73,
          "time": 27.69228000000005,
          "velocity": 1,
          "duration": 0.06153839999999988
        },
        {
          "name": "C5",
          "midi": 72,
          "time": 27.69228000000005,
          "velocity": 1,
          "duration": 0.06153839999999988
        },
        {
          "name": "C#5",
          "midi": 73,
          "time": 27.84612600000005,
          "velocity": 1,
          "duration": 0.06153839999999988
        },
        {
          "name": "C5",
          "midi": 72,
          "time": 27.84612600000005,
          "velocity": 1,
          "duration": 0.06153839999999988
        },
        {
          "name": "C5",
          "midi": 72,
          "time": 27.923049000000052,
          "velocity": 1,
          "duration": 0.18461519999999965
        },
        {
          "name": "C#5",
          "midi": 73,
          "time": 27.923049000000052,
          "velocity": 1,
          "duration": 0.18461519999999965
        },
        {
          "name": "C#5",
          "midi": 73,
          "time": 28.15381800000005,
          "velocity": 1,
          "duration": 0.06153839999999988
        },
        {
          "name": "C5",
          "midi": 72,
          "time": 28.15381800000005,
          "velocity": 1,
          "duration": 0.06153839999999988
        },
        {
          "name": "C5",
          "midi": 72,
          "time": 28.307664000000052,
          "velocity": 1,
          "duration": 0.06153839999999988
        },
        {
          "name": "C#5",
          "midi": 73,
          "time": 28.307664000000052,
          "velocity": 1,
          "duration": 0.06153839999999988
        },
        {
          "name": "C5",
          "midi": 72,
          "time": 28.384587000000053,
          "velocity": 1,
          "duration": 0.18461519999999965
        },
        {
          "name": "C#5",
          "midi": 73,
          "time": 28.384587000000053,
          "velocity": 1,
          "duration": 0.18461519999999965
        },
        {
          "name": "C#5",
          "midi": 73,
          "time": 28.61535600000005,
          "velocity": 1,
          "duration": 0.18461519999999965
        },
        {
          "name": "C5",
          "midi": 72,
          "time": 28.61535600000005,
          "velocity": 1,
          "duration": 0.18461519999999965
        }
      ],
      "controlChanges": {
        "7": [
          {
            "number": 7,
            "time": 0,
            "value": 1
          }
        ],
        "10": [
          {
            "number": 10,
            "time": 0,
            "value": 0.5039370078740157
          }
        ]
      },
      "id": 1,
      "instrumentNumber": 27,
      "instrument": "electric guitar (clean)",
      "instrumentFamily": "guitar",
      "channelNumber": 1,
      "isPercussion": false
    },
    {
      "startTime": 0,
      "duration": 28.7999712,
      "length": 153,
      "notes": [
        {
          "name": "E2",
          "midi": 40,
          "time": 0,
          "velocity": 1,
          "duration": 0.18461519999999998
        },
        {
          "name": "E2",
          "midi": 40,
          "time": 0.23076899999999997,
          "velocity": 1,
          "duration": 0.1846152
        },
        {
          "name": "D2",
          "midi": 38,
          "time": 0.461538,
          "velocity": 1,
          "duration": 0.09230760000000005
        },
        {
          "name": "D#2",
          "midi": 39,
          "time": 0.5769225,
          "velocity": 1,
          "duration": 0.09230760000000005
        },
        {
          "name": "E2",
          "midi": 40,
          "time": 0.692307,
          "velocity": 1,
          "duration": 0.18461519999999998
        },
        {
          "name": "F#2",
          "midi": 42,
          "time": 0.923076,
          "velocity": 1,
          "duration": 0.09230760000000005
        },
        {
          "name": "G2",
          "midi": 43,
          "time": 1.0384605,
          "velocity": 1,
          "duration": 0.09230760000000005
        },
        {
          "name": "E2",
          "midi": 40,
          "time": 1.153845,
          "velocity": 1,
          "duration": 0.1846152000000001
        },
        {
          "name": "D2",
          "midi": 38,
          "time": 1.384614,
          "velocity": 1,
          "duration": 0.09230760000000005
        },
        {
          "name": "D#2",
          "midi": 39,
          "time": 1.4999985,
          "velocity": 1,
          "duration": 0.09230760000000005
        },
        {
          "name": "E2",
          "midi": 40,
          "time": 1.615383,
          "velocity": 1,
          "duration": 0.1846152000000001
        },
        {
          "name": "F#2",
          "midi": 42,
          "time": 1.846152,
          "velocity": 1,
          "duration": 0.09230760000000005
        },
        {
          "name": "G2",
          "midi": 43,
          "time": 1.9615365,
          "velocity": 1,
          "duration": 0.09230760000000005
        },
        {
          "name": "E2",
          "midi": 40,
          "time": 2.076921,
          "velocity": 1,
          "duration": 0.1846152000000001
        },
        {
          "name": "D2",
          "midi": 38,
          "time": 2.30769,
          "velocity": 1,
          "duration": 0.09230759999999982
        },
        {
          "name": "D#2",
          "midi": 39,
          "time": 2.4230745,
          "velocity": 1,
          "duration": 0.09230759999999982
        },
        {
          "name": "E2",
          "midi": 40,
          "time": 2.5384589999999996,
          "velocity": 1,
          "duration": 0.1846152000000001
        },
        {
          "name": "E2",
          "midi": 40,
          "time": 2.7692279999999996,
          "velocity": 1,
          "duration": 0.1846152000000001
        },
        {
          "name": "E2",
          "midi": 40,
          "time": 3.6923039999999996,
          "velocity": 1,
          "duration": 0.1846152000000001
        },
        {
          "name": "E2",
          "midi": 40,
          "time": 3.9230729999999996,
          "velocity": 1,
          "duration": 0.18461519999999965
        },
        {
          "name": "D2",
          "midi": 38,
          "time": 4.153841999999999,
          "velocity": 1,
          "duration": 0.09230759999999982
        },
        {
          "name": "D#2",
          "midi": 39,
          "time": 4.269226499999999,
          "velocity": 1,
          "duration": 0.09230759999999982
        },
        {
          "name": "E2",
          "midi": 40,
          "time": 4.384611,
          "velocity": 1,
          "duration": 0.18461519999999965
        },
        {
          "name": "F#2",
          "midi": 42,
          "time": 4.615379999999999,
          "velocity": 1,
          "duration": 0.09230759999999982
        },
        {
          "name": "G2",
          "midi": 43,
          "time": 4.730764499999999,
          "velocity": 1,
          "duration": 0.09230759999999982
        },
        {
          "name": "E2",
          "midi": 40,
          "time": 4.846149,
          "velocity": 1,
          "duration": 0.18461519999999965
        },
        {
          "name": "D2",
          "midi": 38,
          "time": 5.076917999999999,
          "velocity": 1,
          "duration": 0.09230759999999982
        },
        {
          "name": "D#2",
          "midi": 39,
          "time": 5.192302499999999,
          "velocity": 1,
          "duration": 0.09230759999999982
        },
        {
          "name": "E2",
          "midi": 40,
          "time": 5.307687,
          "velocity": 1,
          "duration": 0.18461519999999965
        },
        {
          "name": "F#2",
          "midi": 42,
          "time": 5.538455999999999,
          "velocity": 1,
          "duration": 0.09230759999999982
        },
        {
          "name": "G2",
          "midi": 43,
          "time": 5.653840499999999,
          "velocity": 1,
          "duration": 0.09230759999999982
        },
        {
          "name": "E2",
          "midi": 40,
          "time": 5.769225,
          "velocity": 1,
          "duration": 0.18461519999999965
        },
        {
          "name": "D2",
          "midi": 38,
          "time": 5.999993999999999,
          "velocity": 1,
          "duration": 0.09230759999999982
        },
        {
          "name": "D#2",
          "midi": 39,
          "time": 6.115378499999999,
          "velocity": 1,
          "duration": 0.09230759999999982
        },
        {
          "name": "E2",
          "midi": 40,
          "time": 6.230763,
          "velocity": 1,
          "duration": 0.18461519999999965
        },
        {
          "name": "F#2",
          "midi": 42,
          "time": 6.461531999999999,
          "velocity": 1,
          "duration": 0.09230759999999982
        },
        {
          "name": "G2",
          "midi": 43,
          "time": 6.576916499999999,
          "velocity": 1,
          "duration": 0.09230759999999982
        },
        {
          "name": "E2",
          "midi": 40,
          "time": 6.692301,
          "velocity": 1,
          "duration": 0.18461519999999965
        },
        {
          "name": "D#2",
          "midi": 39,
          "time": 6.923069999999999,
          "velocity": 1,
          "duration": 0.09230759999999982
        },
        {
          "name": "E2",
          "midi": 40,
          "time": 7.038454499999999,
          "velocity": 1,
          "duration": 0.09230759999999982
        },
        {
          "name": "G2",
          "midi": 43,
          "time": 7.153839,
          "velocity": 1,
          "duration": 0.18461519999999965
        },
        {
          "name": "G#2",
          "midi": 44,
          "time": 7.384607999999999,
          "velocity": 1,
          "duration": 0.09230759999999982
        },
        {
          "name": "A2",
          "midi": 45,
          "time": 7.499992499999999,
          "velocity": 1,
          "duration": 0.09230759999999982
        },
        {
          "name": "A2",
          "midi": 45,
          "time": 7.615377,
          "velocity": 1,
          "duration": 0.18461519999999965
        },
        {
          "name": "A2",
          "midi": 45,
          "time": 7.846145999999999,
          "velocity": 1,
          "duration": 0.3692303999999993
        },
        {
          "name": "B2",
          "midi": 47,
          "time": 8.307683999999998,
          "velocity": 1,
          "duration": 0.09230759999999982
        },
        {
          "name": "C3",
          "midi": 48,
          "time": 8.423068499999998,
          "velocity": 1,
          "duration": 0.09230759999999982
        },
        {
          "name": "C3",
          "midi": 48,
          "time": 8.538452999999997,
          "velocity": 1,
          "duration": 0.18461519999999965
        },
        {
          "name": "C3",
          "midi": 48,
          "time": 8.769221999999997,
          "velocity": 1,
          "duration": 0.3692303999999993
        },
        {
          "name": "G#2",
          "midi": 44,
          "time": 9.230759999999997,
          "velocity": 1,
          "duration": 0.09230759999999982
        },
        {
          "name": "A2",
          "midi": 45,
          "time": 9.346144499999996,
          "velocity": 1,
          "duration": 0.09230759999999982
        },
        {
          "name": "A2",
          "midi": 45,
          "time": 9.461528999999995,
          "velocity": 1,
          "duration": 0.18461519999999965
        },
        {
          "name": "A2",
          "midi": 45,
          "time": 9.692297999999996,
          "velocity": 1,
          "duration": 0.3692303999999993
        },
        {
          "name": "B2",
          "midi": 47,
          "time": 10.153835999999995,
          "velocity": 1,
          "duration": 0.09230759999999982
        },
        {
          "name": "C3",
          "midi": 48,
          "time": 10.269220499999994,
          "velocity": 1,
          "duration": 0.09230759999999982
        },
        {
          "name": "C3",
          "midi": 48,
          "time": 10.384604999999993,
          "velocity": 1,
          "duration": 0.18461519999999965
        },
        {
          "name": "C3",
          "midi": 48,
          "time": 10.615373999999994,
          "velocity": 1,
          "duration": 0.3692303999999993
        },
        {
          "name": "E2",
          "midi": 40,
          "time": 11.076911999999993,
          "velocity": 1,
          "duration": 0.18461519999999965
        },
        {
          "name": "E2",
          "midi": 40,
          "time": 11.307680999999993,
          "velocity": 1,
          "duration": 0.18461519999999965
        },
        {
          "name": "D2",
          "midi": 38,
          "time": 11.538449999999994,
          "velocity": 1,
          "duration": 0.09230759999999982
        },
        {
          "name": "D#2",
          "midi": 39,
          "time": 11.653834499999993,
          "velocity": 1,
          "duration": 0.09230759999999982
        },
        {
          "name": "E2",
          "midi": 40,
          "time": 11.769218999999993,
          "velocity": 1,
          "duration": 0.18461519999999965
        },
        {
          "name": "F#2",
          "midi": 42,
          "time": 11.999987999999993,
          "velocity": 1,
          "duration": 0.09230759999999982
        },
        {
          "name": "G2",
          "midi": 43,
          "time": 12.115372499999992,
          "velocity": 1,
          "duration": 0.09230759999999982
        },
        {
          "name": "E2",
          "midi": 40,
          "time": 12.230756999999992,
          "velocity": 1,
          "duration": 0.18461519999999965
        },
        {
          "name": "D2",
          "midi": 38,
          "time": 12.461525999999992,
          "velocity": 1,
          "duration": 0.09230759999999982
        },
        {
          "name": "D#2",
          "midi": 39,
          "time": 12.576910499999991,
          "velocity": 1,
          "duration": 0.09230759999999982
        },
        {
          "name": "E2",
          "midi": 40,
          "time": 12.69229499999999,
          "velocity": 1,
          "duration": 0.18461519999999965
        },
        {
          "name": "F#2",
          "midi": 42,
          "time": 12.923063999999991,
          "velocity": 1,
          "duration": 0.09230759999999982
        },
        {
          "name": "G2",
          "midi": 43,
          "time": 13.03844849999999,
          "velocity": 1,
          "duration": 0.09230759999999982
        },
        {
          "name": "E2",
          "midi": 40,
          "time": 13.15383299999999,
          "velocity": 1,
          "duration": 0.18461519999999965
        },
        {
          "name": "D2",
          "midi": 38,
          "time": 13.38460199999999,
          "velocity": 1,
          "duration": 0.09230759999999982
        },
        {
          "name": "D#2",
          "midi": 39,
          "time": 13.49998649999999,
          "velocity": 1,
          "duration": 0.09230759999999982
        },
        {
          "name": "E2",
          "midi": 40,
          "time": 13.615370999999989,
          "velocity": 1,
          "duration": 0.18461519999999965
        },
        {
          "name": "F#2",
          "midi": 42,
          "time": 13.84613999999999,
          "velocity": 1,
          "duration": 0.09230759999999982
        },
        {
          "name": "G2",
          "midi": 43,
          "time": 13.961524499999989,
          "velocity": 1,
          "duration": 0.09230759999999982
        },
        {
          "name": "E2",
          "midi": 40,
          "time": 14.076908999999988,
          "velocity": 1,
          "duration": 0.18461519999999965
        },
        {
          "name": "D#2",
          "midi": 39,
          "time": 14.307677999999989,
          "velocity": 1,
          "duration": 0.09230759999999982
        },
        {
          "name": "E2",
          "midi": 40,
          "time": 14.423062499999988,
          "velocity": 1,
          "duration": 0.09230759999999982
        },
        {
          "name": "G2",
          "midi": 43,
          "time": 14.538446999999987,
          "velocity": 1,
          "duration": 0.18461519999999965
        },
        {
          "name": "G#2",
          "midi": 44,
          "time": 14.769215999999988,
          "velocity": 1,
          "duration": 0.09230759999999982
        },
        {
          "name": "A2",
          "midi": 45,
          "time": 14.884600499999987,
          "velocity": 1,
          "duration": 0.09230759999999982
        },
        {
          "name": "A2",
          "midi": 45,
          "time": 14.999984999999986,
          "velocity": 1,
          "duration": 0.18461519999999965
        },
        {
          "name": "A2",
          "midi": 45,
          "time": 15.230753999999987,
          "velocity": 1,
          "duration": 0.3692303999999993
        },
        {
          "name": "B2",
          "midi": 47,
          "time": 15.692291999999986,
          "velocity": 1,
          "duration": 0.09230759999999982
        },
        {
          "name": "C3",
          "midi": 48,
          "time": 15.807676499999985,
          "velocity": 1,
          "duration": 0.09230759999999982
        },
        {
          "name": "C3",
          "midi": 48,
          "time": 15.923060999999985,
          "velocity": 1,
          "duration": 0.18461520000000142
        },
        {
          "name": "C3",
          "midi": 48,
          "time": 16.153829999999985,
          "velocity": 1,
          "duration": 0.3692303999999993
        },
        {
          "name": "G#2",
          "midi": 44,
          "time": 16.615367999999986,
          "velocity": 1,
          "duration": 0.0923076000000016
        },
        {
          "name": "A2",
          "midi": 45,
          "time": 16.730752499999987,
          "velocity": 1,
          "duration": 0.0923076000000016
        },
        {
          "name": "A2",
          "midi": 45,
          "time": 16.846136999999988,
          "velocity": 1,
          "duration": 0.18461519999999965
        },
        {
          "name": "A2",
          "midi": 45,
          "time": 17.076905999999987,
          "velocity": 1,
          "duration": 0.3692303999999993
        },
        {
          "name": "B2",
          "midi": 47,
          "time": 17.538443999999988,
          "velocity": 1,
          "duration": 0.0923076000000016
        },
        {
          "name": "C3",
          "midi": 48,
          "time": 17.65382849999999,
          "velocity": 1,
          "duration": 0.0923076000000016
        },
        {
          "name": "C3",
          "midi": 48,
          "time": 17.76921299999999,
          "velocity": 1,
          "duration": 0.18461519999999965
        },
        {
          "name": "C3",
          "midi": 48,
          "time": 17.99998199999999,
          "velocity": 1,
          "duration": 0.3692303999999993
        },
        {
          "name": "E2",
          "midi": 40,
          "time": 18.46151999999999,
          "velocity": 1,
          "duration": 0.18461519999999965
        },
        {
          "name": "E2",
          "midi": 40,
          "time": 18.692288999999988,
          "velocity": 1,
          "duration": 0.18461519999999965
        },
        {
          "name": "D2",
          "midi": 38,
          "time": 18.923057999999987,
          "velocity": 1,
          "duration": 0.0923076000000016
        },
        {
          "name": "D#2",
          "midi": 39,
          "time": 19.038442499999988,
          "velocity": 1,
          "duration": 0.0923076000000016
        },
        {
          "name": "E2",
          "midi": 40,
          "time": 19.15382699999999,
          "velocity": 1,
          "duration": 0.18461519999999965
        },
        {
          "name": "F#2",
          "midi": 42,
          "time": 19.384595999999988,
          "velocity": 1,
          "duration": 0.0923076000000016
        },
        {
          "name": "G2",
          "midi": 43,
          "time": 19.49998049999999,
          "velocity": 1,
          "duration": 0.0923076000000016
        },
        {
          "name": "E2",
          "midi": 40,
          "time": 19.61536499999999,
          "velocity": 1,
          "duration": 0.18461519999999965
        },
        {
          "name": "D2",
          "midi": 38,
          "time": 19.84613399999999,
          "velocity": 1,
          "duration": 0.0923076000000016
        },
        {
          "name": "D#2",
          "midi": 39,
          "time": 19.96151849999999,
          "velocity": 1,
          "duration": 0.0923076000000016
        },
        {
          "name": "E2",
          "midi": 40,
          "time": 20.07690299999999,
          "velocity": 1,
          "duration": 0.18461519999999965
        },
        {
          "name": "F#2",
          "midi": 42,
          "time": 20.30767199999999,
          "velocity": 1,
          "duration": 0.0923076000000016
        },
        {
          "name": "G2",
          "midi": 43,
          "time": 20.42305649999999,
          "velocity": 1,
          "duration": 0.0923076000000016
        },
        {
          "name": "E2",
          "midi": 40,
          "time": 20.53844099999999,
          "velocity": 1,
          "duration": 0.18461519999999965
        },
        {
          "name": "D2",
          "midi": 38,
          "time": 20.76920999999999,
          "velocity": 1,
          "duration": 0.0923076000000016
        },
        {
          "name": "D#2",
          "midi": 39,
          "time": 20.88459449999999,
          "velocity": 1,
          "duration": 0.0923076000000016
        },
        {
          "name": "E2",
          "midi": 40,
          "time": 20.999978999999993,
          "velocity": 1,
          "duration": 0.18461519999999965
        },
        {
          "name": "F#2",
          "midi": 42,
          "time": 21.23074799999999,
          "velocity": 1,
          "duration": 0.0923076000000016
        },
        {
          "name": "G2",
          "midi": 43,
          "time": 21.346132499999992,
          "velocity": 1,
          "duration": 0.0923076000000016
        },
        {
          "name": "E2",
          "midi": 40,
          "time": 21.461516999999994,
          "velocity": 1,
          "duration": 0.18461519999999965
        },
        {
          "name": "F#2",
          "midi": 42,
          "time": 21.692285999999992,
          "velocity": 1,
          "duration": 0.0923076000000016
        },
        {
          "name": "G2",
          "midi": 43,
          "time": 21.807670499999993,
          "velocity": 1,
          "duration": 0.0923076000000016
        },
        {
          "name": "A2",
          "midi": 45,
          "time": 21.923054999999994,
          "velocity": 1,
          "duration": 0.18461519999999965
        },
        {
          "name": "G#2",
          "midi": 44,
          "time": 22.153823999999993,
          "velocity": 1,
          "duration": 0.0923076000000016
        },
        {
          "name": "A2",
          "midi": 45,
          "time": 22.269208499999994,
          "velocity": 1,
          "duration": 0.0923076000000016
        },
        {
          "name": "A2",
          "midi": 45,
          "time": 22.384592999999995,
          "velocity": 1,
          "duration": 0.18461519999999965
        },
        {
          "name": "A2",
          "midi": 45,
          "time": 22.615361999999994,
          "velocity": 1,
          "duration": 0.3692303999999993
        },
        {
          "name": "B2",
          "midi": 47,
          "time": 23.076899999999995,
          "velocity": 1,
          "duration": 0.0923076000000016
        },
        {
          "name": "C3",
          "midi": 48,
          "time": 23.192284499999996,
          "velocity": 1,
          "duration": 0.0923076000000016
        },
        {
          "name": "C3",
          "midi": 48,
          "time": 23.307668999999997,
          "velocity": 1,
          "duration": 0.18461519999999965
        },
        {
          "name": "C3",
          "midi": 48,
          "time": 23.538437999999996,
          "velocity": 1,
          "duration": 0.3692303999999993
        },
        {
          "name": "G#2",
          "midi": 44,
          "time": 23.999975999999997,
          "velocity": 1,
          "duration": 0.0923076000000016
        },
        {
          "name": "A2",
          "midi": 45,
          "time": 24.115360499999998,
          "velocity": 1,
          "duration": 0.0923076000000016
        },
        {
          "name": "A2",
          "midi": 45,
          "time": 24.230745,
          "velocity": 1,
          "duration": 0.18461519999999965
        },
        {
          "name": "A2",
          "midi": 45,
          "time": 24.461513999999998,
          "velocity": 1,
          "duration": 0.3692303999999993
        },
        {
          "name": "B2",
          "midi": 47,
          "time": 24.923052,
          "velocity": 1,
          "duration": 0.0923076000000016
        },
        {
          "name": "C3",
          "midi": 48,
          "time": 25.0384365,
          "velocity": 1,
          "duration": 0.0923076000000016
        },
        {
          "name": "C3",
          "midi": 48,
          "time": 25.153821,
          "velocity": 1,
          "duration": 0.18461519999999965
        },
        {
          "name": "C3",
          "midi": 48,
          "time": 25.38459,
          "velocity": 1,
          "duration": 0.3692303999999993
        },
        {
          "name": "E2",
          "midi": 40,
          "time": 25.846128,
          "velocity": 1,
          "duration": 0.18461519999999965
        },
        {
          "name": "E2",
          "midi": 40,
          "time": 26.076897,
          "velocity": 1,
          "duration": 0.18461519999999965
        },
        {
          "name": "D2",
          "midi": 38,
          "time": 26.307665999999998,
          "velocity": 1,
          "duration": 0.0923076000000016
        },
        {
          "name": "D#2",
          "midi": 39,
          "time": 26.4230505,
          "velocity": 1,
          "duration": 0.0923076000000016
        },
        {
          "name": "E2",
          "midi": 40,
          "time": 26.538435,
          "velocity": 1,
          "duration": 0.18461519999999965
        },
        {
          "name": "F#2",
          "midi": 42,
          "time": 26.769204,
          "velocity": 1,
          "duration": 0.0923076000000016
        },
        {
          "name": "G2",
          "midi": 43,
          "time": 26.8845885,
          "velocity": 1,
          "duration": 0.0923076000000016
        },
        {
          "name": "E2",
          "midi": 40,
          "time": 26.999973,
          "velocity": 1,
          "duration": 0.18461519999999965
        },
        {
          "name": "D2",
          "midi": 38,
          "time": 27.230742,
          "velocity": 1,
          "duration": 0.0923076000000016
        },
        {
          "name": "D#2",
          "midi": 39,
          "time": 27.3461265,
          "velocity": 1,
          "duration": 0.0923076000000016
        },
        {
          "name": "E2",
          "midi": 40,
          "time": 27.461511,
          "velocity": 1,
          "duration": 0.18461519999999965
        },
        {
          "name": "F#2",
          "midi": 42,
          "time": 27.69228,
          "velocity": 1,
          "duration": 0.0923076000000016
        },
        {
          "name": "G2",
          "midi": 43,
          "time": 27.8076645,
          "velocity": 1,
          "duration": 0.0923076000000016
        },
        {
          "name": "E2",
          "midi": 40,
          "time": 27.923049000000002,
          "velocity": 1,
          "duration": 0.18461519999999965
        },
        {
          "name": "D2",
          "midi": 38,
          "time": 28.153818,
          "velocity": 1,
          "duration": 0.0923076000000016
        },
        {
          "name": "D#2",
          "midi": 39,
          "time": 28.269202500000002,
          "velocity": 1,
          "duration": 0.0923076000000016
        },
        {
          "name": "E2",
          "midi": 40,
          "time": 28.384587000000003,
          "velocity": 1,
          "duration": 0.18461519999999965
        },
        {
          "name": "E2",
          "midi": 40,
          "time": 28.615356000000002,
          "velocity": 1,
          "duration": 0.18461519999999965
        }
      ],
      "controlChanges": {
        "7": [
          {
            "number": 7,
            "time": 0,
            "value": 1
          }
        ],
        "10": [
          {
            "number": 10,
            "time": 0,
            "value": 0.5039370078740157
          }
        ]
      },
      "id": 2,
      "instrumentNumber": 33,
      "instrument": "electric bass (finger)",
      "instrumentFamily": "bass",
      "channelNumber": 2,
      "isPercussion": false
    },
    {
      "startTime": 2.9999969999999996,
      "duration": 3.1846121999999997,
      "length": 2,
      "notes": [
        {
          "name": "E4",
          "midi": 64,
          "time": 2.9999969999999996,
          "velocity": 1,
          "duration": 0.1846152000000001
        },
        {
          "name": "A#4",
          "midi": 70,
          "time": 2.9999969999999996,
          "velocity": 1,
          "duration": 0.1846152000000001
        }
      ],
      "controlChanges": {
        "7": [
          {
            "number": 7,
            "time": 0,
            "value": 1
          }
        ],
        "10": [
          {
            "number": 10,
            "time": 0,
            "value": 0.5039370078740157
          }
        ]
      },
      "id": 3,
      "instrumentNumber": 120,
      "instrument": "guitar fret noise",
      "instrumentFamily": "sound effects",
      "channelNumber": 3,
      "isPercussion": false
    },
    {
      "startTime": 0,
      "duration": 29.446124399999935,
      "length": 126,
      "notes": [
        {
          "name": "C2",
          "midi": 36,
          "time": 0,
          "velocity": 1,
          "duration": 0.18461519999999998
        },
        {
          "name": "A#2",
          "midi": 46,
          "time": 0.23076899999999997,
          "velocity": 1,
          "duration": 0.1846152
        },
        {
          "name": "C2",
          "midi": 36,
          "time": 0.461538,
          "velocity": 1,
          "duration": 0.18461519999999998
        },
        {
          "name": "A#2",
          "midi": 46,
          "time": 0.692307,
          "velocity": 1,
          "duration": 0.18461519999999998
        },
        {
          "name": "C2",
          "midi": 36,
          "time": 0.923076,
          "velocity": 1,
          "duration": 0.1846152000000001
        },
        {
          "name": "A#2",
          "midi": 46,
          "time": 1.153845,
          "velocity": 1,
          "duration": 0.1846152000000001
        },
        {
          "name": "C2",
          "midi": 36,
          "time": 1.384614,
          "velocity": 1,
          "duration": 0.1846152000000001
        },
        {
          "name": "A#2",
          "midi": 46,
          "time": 1.615383,
          "velocity": 1,
          "duration": 0.1846152000000001
        },
        {
          "name": "C2",
          "midi": 36,
          "time": 1.846152,
          "velocity": 1,
          "duration": 0.1846152000000001
        },
        {
          "name": "A#2",
          "midi": 46,
          "time": 2.076921,
          "velocity": 1,
          "duration": 0.1846152000000001
        },
        {
          "name": "C2",
          "midi": 36,
          "time": 2.30769,
          "velocity": 1,
          "duration": 0.1846152000000001
        },
        {
          "name": "A#2",
          "midi": 46,
          "time": 2.538459,
          "velocity": 1,
          "duration": 0.1846152000000001
        },
        {
          "name": "C2",
          "midi": 36,
          "time": 2.769228,
          "velocity": 1,
          "duration": 0.3692304000000002
        },
        {
          "name": "A#2",
          "midi": 46,
          "time": 3.230766,
          "velocity": 1,
          "duration": 0.3692304000000002
        },
        {
          "name": "C2",
          "midi": 36,
          "time": 3.230766,
          "velocity": 1,
          "duration": 0.3692304000000002
        },
        {
          "name": "C2",
          "midi": 36,
          "time": 3.692304,
          "velocity": 1,
          "duration": 0.1846152000000001
        },
        {
          "name": "A#2",
          "midi": 46,
          "time": 3.923073,
          "velocity": 1,
          "duration": 0.1846152000000001
        },
        {
          "name": "C2",
          "midi": 36,
          "time": 4.153842,
          "velocity": 1,
          "duration": 0.18461519999999965
        },
        {
          "name": "A#2",
          "midi": 46,
          "time": 4.384611,
          "velocity": 1,
          "duration": 0.18461519999999965
        },
        {
          "name": "C2",
          "midi": 36,
          "time": 4.615379999999999,
          "velocity": 1,
          "duration": 0.18461519999999965
        },
        {
          "name": "A#2",
          "midi": 46,
          "time": 4.846148999999999,
          "velocity": 1,
          "duration": 0.18461519999999965
        },
        {
          "name": "C2",
          "midi": 36,
          "time": 5.076917999999998,
          "velocity": 1,
          "duration": 0.18461519999999965
        },
        {
          "name": "A#2",
          "midi": 46,
          "time": 5.307686999999998,
          "velocity": 1,
          "duration": 0.18461519999999965
        },
        {
          "name": "C2",
          "midi": 36,
          "time": 5.538455999999997,
          "velocity": 1,
          "duration": 0.18461519999999965
        },
        {
          "name": "A#2",
          "midi": 46,
          "time": 5.769224999999997,
          "velocity": 1,
          "duration": 0.18461519999999965
        },
        {
          "name": "C2",
          "midi": 36,
          "time": 5.9999939999999965,
          "velocity": 1,
          "duration": 0.18461519999999965
        },
        {
          "name": "A#2",
          "midi": 46,
          "time": 6.230762999999996,
          "velocity": 1,
          "duration": 0.18461519999999965
        },
        {
          "name": "C2",
          "midi": 36,
          "time": 6.461531999999996,
          "velocity": 1,
          "duration": 0.18461519999999965
        },
        {
          "name": "A#2",
          "midi": 46,
          "time": 6.692300999999995,
          "velocity": 1,
          "duration": 0.18461519999999965
        },
        {
          "name": "C2",
          "midi": 36,
          "time": 6.923069999999995,
          "velocity": 1,
          "duration": 0.18461519999999965
        },
        {
          "name": "A#2",
          "midi": 46,
          "time": 7.153838999999994,
          "velocity": 1,
          "duration": 0.18461519999999965
        },
        {
          "name": "C2",
          "midi": 36,
          "time": 7.384607999999994,
          "velocity": 1,
          "duration": 0.18461519999999965
        },
        {
          "name": "A#2",
          "midi": 46,
          "time": 7.615376999999993,
          "velocity": 1,
          "duration": 0.18461519999999965
        },
        {
          "name": "C2",
          "midi": 36,
          "time": 7.846145999999993,
          "velocity": 1,
          "duration": 0.18461520000000053
        },
        {
          "name": "A#2",
          "midi": 46,
          "time": 8.076914999999994,
          "velocity": 1,
          "duration": 0.18461519999999965
        },
        {
          "name": "C2",
          "midi": 36,
          "time": 8.307683999999995,
          "velocity": 1,
          "duration": 0.18461519999999965
        },
        {
          "name": "A#2",
          "midi": 46,
          "time": 8.538452999999995,
          "velocity": 1,
          "duration": 0.18461519999999965
        },
        {
          "name": "C2",
          "midi": 36,
          "time": 8.769221999999996,
          "velocity": 1,
          "duration": 0.18461519999999965
        },
        {
          "name": "A#2",
          "midi": 46,
          "time": 8.999990999999996,
          "velocity": 1,
          "duration": 0.18461519999999965
        },
        {
          "name": "C2",
          "midi": 36,
          "time": 9.230759999999997,
          "velocity": 1,
          "duration": 0.18461519999999965
        },
        {
          "name": "A#2",
          "midi": 46,
          "time": 9.461528999999997,
          "velocity": 1,
          "duration": 0.18461519999999965
        },
        {
          "name": "C2",
          "midi": 36,
          "time": 9.692297999999997,
          "velocity": 1,
          "duration": 0.18461519999999965
        },
        {
          "name": "A#2",
          "midi": 46,
          "time": 9.923066999999998,
          "velocity": 1,
          "duration": 0.18461519999999965
        },
        {
          "name": "C2",
          "midi": 36,
          "time": 10.153835999999998,
          "velocity": 1,
          "duration": 0.18461519999999965
        },
        {
          "name": "A#2",
          "midi": 46,
          "time": 10.384604999999999,
          "velocity": 1,
          "duration": 0.18461519999999965
        },
        {
          "name": "C2",
          "midi": 36,
          "time": 10.615374,
          "velocity": 1,
          "duration": 0.18461519999999965
        },
        {
          "name": "A#2",
          "midi": 46,
          "time": 10.846143,
          "velocity": 1,
          "duration": 0.18461519999999965
        },
        {
          "name": "C2",
          "midi": 36,
          "time": 11.076912,
          "velocity": 1,
          "duration": 0.18461519999999965
        },
        {
          "name": "A#2",
          "midi": 46,
          "time": 11.307681,
          "velocity": 1,
          "duration": 0.18461519999999965
        },
        {
          "name": "C2",
          "midi": 36,
          "time": 11.538450000000001,
          "velocity": 1,
          "duration": 0.18461519999999965
        },
        {
          "name": "A#2",
          "midi": 46,
          "time": 11.769219000000001,
          "velocity": 1,
          "duration": 0.18461519999999965
        },
        {
          "name": "C2",
          "midi": 36,
          "time": 11.999988000000002,
          "velocity": 1,
          "duration": 0.18461519999999965
        },
        {
          "name": "A#2",
          "midi": 46,
          "time": 12.230757000000002,
          "velocity": 1,
          "duration": 0.18461519999999965
        },
        {
          "name": "C2",
          "midi": 36,
          "time": 12.461526000000003,
          "velocity": 1,
          "duration": 0.18461519999999965
        },
        {
          "name": "A#2",
          "midi": 46,
          "time": 12.692295000000003,
          "velocity": 1,
          "duration": 0.18461519999999965
        },
        {
          "name": "C2",
          "midi": 36,
          "time": 12.923064000000004,
          "velocity": 1,
          "duration": 0.18461519999999965
        },
        {
          "name": "A#2",
          "midi": 46,
          "time": 13.153833000000004,
          "velocity": 1,
          "duration": 0.18461519999999965
        },
        {
          "name": "C2",
          "midi": 36,
          "time": 13.384602000000005,
          "velocity": 1,
          "duration": 0.18461519999999965
        },
        {
          "name": "A#2",
          "midi": 46,
          "time": 13.615371000000005,
          "velocity": 1,
          "duration": 0.18461519999999965
        },
        {
          "name": "C2",
          "midi": 36,
          "time": 13.846140000000005,
          "velocity": 1,
          "duration": 0.18461519999999965
        },
        {
          "name": "A#2",
          "midi": 46,
          "time": 14.076909000000006,
          "velocity": 1,
          "duration": 0.18461519999999965
        },
        {
          "name": "C2",
          "midi": 36,
          "time": 14.307678000000006,
          "velocity": 1,
          "duration": 0.18461519999999965
        },
        {
          "name": "A#2",
          "midi": 46,
          "time": 14.538447000000007,
          "velocity": 1,
          "duration": 0.18461519999999965
        },
        {
          "name": "C2",
          "midi": 36,
          "time": 14.769216000000007,
          "velocity": 1,
          "duration": 0.18461519999999965
        },
        {
          "name": "A#2",
          "midi": 46,
          "time": 14.999985000000008,
          "velocity": 1,
          "duration": 0.18461519999999965
        },
        {
          "name": "C2",
          "midi": 36,
          "time": 15.230754000000008,
          "velocity": 1,
          "duration": 0.18461519999999965
        },
        {
          "name": "A#2",
          "midi": 46,
          "time": 15.461523000000009,
          "velocity": 1,
          "duration": 0.18461519999999965
        },
        {
          "name": "C2",
          "midi": 36,
          "time": 15.692292000000009,
          "velocity": 1,
          "duration": 0.18461519999999965
        },
        {
          "name": "A#2",
          "midi": 46,
          "time": 15.92306100000001,
          "velocity": 1,
          "duration": 0.18461520000000142
        },
        {
          "name": "C2",
          "midi": 36,
          "time": 16.15383000000001,
          "velocity": 1,
          "duration": 0.18461519999999965
        },
        {
          "name": "A#2",
          "midi": 46,
          "time": 16.38459900000001,
          "velocity": 1,
          "duration": 0.18461519999999965
        },
        {
          "name": "C2",
          "midi": 36,
          "time": 16.615368000000007,
          "velocity": 1,
          "duration": 0.18461519999999965
        },
        {
          "name": "A#2",
          "midi": 46,
          "time": 16.846137000000006,
          "velocity": 1,
          "duration": 0.18461519999999965
        },
        {
          "name": "C2",
          "midi": 36,
          "time": 17.076906000000005,
          "velocity": 1,
          "duration": 0.18461519999999965
        },
        {
          "name": "A#2",
          "midi": 46,
          "time": 17.307675000000003,
          "velocity": 1,
          "duration": 0.18461519999999965
        },
        {
          "name": "C2",
          "midi": 36,
          "time": 17.538444000000002,
          "velocity": 1,
          "duration": 0.18461519999999965
        },
        {
          "name": "A#2",
          "midi": 46,
          "time": 17.769213,
          "velocity": 1,
          "duration": 0.18461519999999965
        },
        {
          "name": "C2",
          "midi": 36,
          "time": 17.999982,
          "velocity": 1,
          "duration": 0.18461519999999965
        },
        {
          "name": "A#2",
          "midi": 46,
          "time": 18.230750999999998,
          "velocity": 1,
          "duration": 0.18461519999999965
        },
        {
          "name": "C2",
          "midi": 36,
          "time": 18.461519999999997,
          "velocity": 1,
          "duration": 0.18461519999999965
        },
        {
          "name": "A#2",
          "midi": 46,
          "time": 18.692288999999995,
          "velocity": 1,
          "duration": 0.18461519999999965
        },
        {
          "name": "C2",
          "midi": 36,
          "time": 18.923057999999994,
          "velocity": 1,
          "duration": 0.18461519999999965
        },
        {
          "name": "A#2",
          "midi": 46,
          "time": 19.153826999999993,
          "velocity": 1,
          "duration": 0.18461519999999965
        },
        {
          "name": "C2",
          "midi": 36,
          "time": 19.38459599999999,
          "velocity": 1,
          "duration": 0.18461519999999965
        },
        {
          "name": "A#2",
          "midi": 46,
          "time": 19.61536499999999,
          "velocity": 1,
          "duration": 0.18461519999999965
        },
        {
          "name": "C2",
          "midi": 36,
          "time": 19.84613399999999,
          "velocity": 1,
          "duration": 0.18461519999999965
        },
        {
          "name": "A#2",
          "midi": 46,
          "time": 20.076902999999987,
          "velocity": 1,
          "duration": 0.18461519999999965
        },
        {
          "name": "C2",
          "midi": 36,
          "time": 20.307671999999986,
          "velocity": 1,
          "duration": 0.18461519999999965
        },
        {
          "name": "A#2",
          "midi": 46,
          "time": 20.538440999999985,
          "velocity": 1,
          "duration": 0.18461519999999965
        },
        {
          "name": "C2",
          "midi": 36,
          "time": 20.769209999999983,
          "velocity": 1,
          "duration": 0.18461519999999965
        },
        {
          "name": "A#2",
          "midi": 46,
          "time": 20.999978999999982,
          "velocity": 1,
          "duration": 0.18461519999999965
        },
        {
          "name": "C2",
          "midi": 36,
          "time": 21.23074799999998,
          "velocity": 1,
          "duration": 0.18461519999999965
        },
        {
          "name": "A#2",
          "midi": 46,
          "time": 21.46151699999998,
          "velocity": 1,
          "duration": 0.18461519999999965
        },
        {
          "name": "C2",
          "midi": 36,
          "time": 21.692285999999978,
          "velocity": 1,
          "duration": 0.18461519999999965
        },
        {
          "name": "A#2",
          "midi": 46,
          "time": 21.923054999999977,
          "velocity": 1,
          "duration": 0.18461519999999965
        },
        {
          "name": "C2",
          "midi": 36,
          "time": 22.153823999999975,
          "velocity": 1,
          "duration": 0.18461519999999965
        },
        {
          "name": "A#2",
          "midi": 46,
          "time": 22.384592999999974,
          "velocity": 1,
          "duration": 0.18461519999999965
        },
        {
          "name": "C2",
          "midi": 36,
          "time": 22.615361999999973,
          "velocity": 1,
          "duration": 0.18461519999999965
        },
        {
          "name": "A#2",
          "midi": 46,
          "time": 22.84613099999997,
          "velocity": 1,
          "duration": 0.18461519999999965
        },
        {
          "name": "C2",
          "midi": 36,
          "time": 23.07689999999997,
          "velocity": 1,
          "duration": 0.18461519999999965
        },
        {
          "name": "A#2",
          "midi": 46,
          "time": 23.30766899999997,
          "velocity": 1,
          "duration": 0.18461519999999965
        },
        {
          "name": "C2",
          "midi": 36,
          "time": 23.538437999999967,
          "velocity": 1,
          "duration": 0.18461519999999965
        },
        {
          "name": "A#2",
          "midi": 46,
          "time": 23.769206999999966,
          "velocity": 1,
          "duration": 0.18461519999999965
        },
        {
          "name": "C2",
          "midi": 36,
          "time": 23.999975999999965,
          "velocity": 1,
          "duration": 0.18461519999999965
        },
        {
          "name": "A#2",
          "midi": 46,
          "time": 24.230744999999963,
          "velocity": 1,
          "duration": 0.18461519999999965
        },
        {
          "name": "C2",
          "midi": 36,
          "time": 24.461513999999962,
          "velocity": 1,
          "duration": 0.18461519999999965
        },
        {
          "name": "A#2",
          "midi": 46,
          "time": 24.69228299999996,
          "velocity": 1,
          "duration": 0.18461519999999965
        },
        {
          "name": "C2",
          "midi": 36,
          "time": 24.92305199999996,
          "velocity": 1,
          "duration": 0.18461519999999965
        },
        {
          "name": "A#2",
          "midi": 46,
          "time": 25.153820999999958,
          "velocity": 1,
          "duration": 0.18461519999999965
        },
        {
          "name": "C2",
          "midi": 36,
          "time": 25.384589999999957,
          "velocity": 1,
          "duration": 0.18461519999999965
        },
        {
          "name": "A#2",
          "midi": 46,
          "time": 25.615358999999955,
          "velocity": 1,
          "duration": 0.18461519999999965
        },
        {
          "name": "C2",
          "midi": 36,
          "time": 25.846127999999954,
          "velocity": 1,
          "duration": 0.18461519999999965
        },
        {
          "name": "A#2",
          "midi": 46,
          "time": 26.076896999999953,
          "velocity": 1,
          "duration": 0.18461519999999965
        },
        {
          "name": "C2",
          "midi": 36,
          "time": 26.30766599999995,
          "velocity": 1,
          "duration": 0.18461519999999965
        },
        {
          "name": "A#2",
          "midi": 46,
          "time": 26.53843499999995,
          "velocity": 1,
          "duration": 0.18461519999999965
        },
        {
          "name": "C2",
          "midi": 36,
          "time": 26.76920399999995,
          "velocity": 1,
          "duration": 0.18461519999999965
        },
        {
          "name": "A#2",
          "midi": 46,
          "time": 26.999972999999947,
          "velocity": 1,
          "duration": 0.18461519999999965
        },
        {
          "name": "C2",
          "midi": 36,
          "time": 27.230741999999946,
          "velocity": 1,
          "duration": 0.18461519999999965
        },
        {
          "name": "A#2",
          "midi": 46,
          "time": 27.461510999999945,
          "velocity": 1,
          "duration": 0.18461519999999965
        },
        {
          "name": "C2",
          "midi": 36,
          "time": 27.692279999999943,
          "velocity": 1,
          "duration": 0.18461519999999965
        },
        {
          "name": "A#2",
          "midi": 46,
          "time": 27.923048999999942,
          "velocity": 1,
          "duration": 0.18461519999999965
        },
        {
          "name": "C2",
          "midi": 36,
          "time": 28.15381799999994,
          "velocity": 1,
          "duration": 0.18461519999999965
        },
        {
          "name": "A#2",
          "midi": 46,
          "time": 28.38458699999994,
          "velocity": 1,
          "duration": 0.18461519999999965
        },
        {
          "name": "C2",
          "midi": 36,
          "time": 28.615355999999938,
          "velocity": 1,
          "duration": 0.18461519999999965
        },
        {
          "name": "D#6",
          "midi": 87,
          "time": 28.846124999999937,
          "velocity": 1,
          "duration": 0.18461519999999965
        },
        {
          "name": "C#2",
          "midi": 37,
          "time": 29.076893999999935,
          "velocity": 1,
          "duration": 0.3692303999999993
        }
      ],
      "controlChanges": {
        "7": [
          {
            "number": 7,
            "time": 0,
            "value": 1
          }
        ],
        "10": [
          {
            "number": 10,
            "time": 0,
            "value": 0.5039370078740157
          }
        ]
      },
      "id": 4,
      "channelNumber": 9,
      "isPercussion": true
    },
    {
      "startTime": 0,
      "duration": 0,
      "length": 0,
      "notes": [],
      "controlChanges": {},
      "id": 5,
      "name": "Theme to \"South Park\""
    },
    {
      "startTime": 0,
      "duration": 0,
      "length": 0,
      "notes": [],
      "controlChanges": {},
      "id": 6,
      "name": "Copyright by:"
    },
    {
      "startTime": 0,
      "duration": 0,
      "length": 0,
      "notes": [],
      "controlChanges": {},
      "id": 7,
      "name": "Comedy Central"
    },
    {
      "startTime": 0,
      "duration": 0,
      "length": 0,
      "notes": [],
      "controlChanges": {},
      "id": 8,
      "name": "Matt Stone & Trey Parker"
    },
    {
      "startTime": 0,
      "duration": 0,
      "length": 0,
      "notes": [],
      "controlChanges": {},
      "id": 9,
      "name": "Original Music by:"
    },
    {
      "startTime": 0,
      "duration": 0,
      "length": 0,
      "notes": [],
      "controlChanges": {},
      "id": 10,
      "name": "Primus"
    }
  ]
}
        },
        {
          "name": "A#4",
          "midi": 70,
          "time": 1.4201160000000002,
          "velocity": 0.3937007874015748,
          "duration": 0.08875725000000001
        },
        {
          "name": "B4",
          "midi": 71,
          "time": 1.5088732500000002,
          "velocity": 0.3937007874015748,
          "duration": 0.08875725000000001
        },
        {
          "name": "A#4",
          "midi": 70,
          "time": 1.5976305000000002,
          "velocity": 0.3937007874015748,
          "duration": 0.08875725000000001
        },
        {
          "name": "G#4",
          "midi": 68,
          "time": 1.6863877500000002,
          "velocity": 0.3937007874015748,
          "duration": 0.08875725000000001
        },
        {
          "name": "A#4",
          "midi": 70,
          "time": 1.7751450000000002,
          "velocity": 0.3937007874015748,
          "duration": 0.35502900000000004
        },
        {
          "name": "G4",
          "midi": 67,
          "time": 2.1301740000000002,
          "velocity": 0.3937007874015748,
          "duration": 0.35502900000000004
        },
        {
          "name": "E4",
          "midi": 64,
          "time": 2.4852030000000003,
          "velocity": 0.3937007874015748,
          "duration": 0.35502900000000004
        },
        {
          "name": "D#4",
          "midi": 63,
          "time": 2.8402320000000003,
          "velocity": 0.3937007874015748,
          "duration": 0.35502900000000004
        },
        {
          "name": "E4",
          "midi": 64,
          "time": 3.1952610000000004,
          "velocity": 0.3937007874015748,
          "duration": 0.08875725000000001
        },
        {
          "name": "D#4",
          "midi": 63,
          "time": 3.2840182500000004,
          "velocity": 0.3937007874015748,
          "duration": 0.08875725000000001
        },
        {
          "name": "C#4",
          "midi": 61,
          "time": 3.3727755000000004,
          "velocity": 0.3937007874015748,
          "duration": 0.08875725000000001
        },
        {
          "name": "D#4",
          "midi": 63,
          "time": 3.4615327500000004,
          "velocity": 0.3937007874015748,
          "duration": 0.7988152500000001
        },
        {
          "name": "A#3",
          "midi": 58,
          "time": 4.2603480000000005,
          "velocity": 0.3937007874015748,
          "duration": 1.0650870000000001
        },
        {
          "name": "D#3",
          "midi": 51,
          "time": 4.2603480000000005,
          "velocity": 0.3937007874015748,
          "duration": 1.3313587499999997
        },
        {
          "name": "E3",
          "midi": 52,
          "time": 4.2603480000000005,
          "velocity": 0.3937007874015748,
          "duration": 0.17751450000000002
        },
        {
          "name": "F#3",
          "midi": 54,
          "time": 4.2603480000000005,
          "velocity": 0.3937007874015748,
          "duration": 1.3313587499999997
        },
        {
          "name": "G#3",
          "midi": 56,
          "time": 4.2603480000000005,
          "velocity": 0.3937007874015748,
          "duration": 0.17751450000000002
        },
        {
          "name": "E3",
          "midi": 52,
          "time": 4.4378625000000005,
          "velocity": 0.3937007874015748,
          "duration": 0.35502900000000004
        },
        {
          "name": "G#3",
          "midi": 56,
          "time": 4.4378625000000005,
          "velocity": 0.3937007874015748,
          "duration": 0.35502900000000004
        },
        {
          "name": "D#4",
          "midi": 63,
          "time": 4.7928915000000005,
          "velocity": 0.3937007874015748,
          "duration": 0.17751450000000002
        },
        {
          "name": "B3",
          "midi": 59,
          "time": 4.7928915000000005,
          "velocity": 0.3937007874015748,
          "duration": 0.17751450000000002
        },
        {
          "name": "D#4",
          "midi": 63,
          "time": 4.9704060000000005,
          "velocity": 0.3937007874015748,
          "duration": 0.35502900000000004
        },
        {
          "name": "B3",
          "midi": 59,
          "time": 4.9704060000000005,
          "velocity": 0.3937007874015748,
          "duration": 0.35502900000000004
        },
        {
          "name": "C#4",
          "midi": 61,
          "time": 5.325435000000001,
          "velocity": 0.3937007874015748,
          "duration": 0.17751450000000002
        },
        {
          "name": "A#3",
          "midi": 58,
          "time": 5.325435000000001,
          "velocity": 0.3937007874015748,
          "duration": 0.2662717499999996
        },
        {
          "name": "B3",
          "midi": 59,
          "time": 5.502949500000001,
          "velocity": 0.3937007874015748,
          "duration": 0.17751450000000002
        },
        {
          "name": "G#3",
          "midi": 56,
          "time": 5.502949500000001,
          "velocity": 0.3937007874015748,
          "duration": 0.17751450000000002
        },
        {
          "name": "E3",
          "midi": 52,
          "time": 5.680464000000001,
          "velocity": 0.3937007874015748,
          "duration": 1.3313587499999997
        },
        {
          "name": "G#3",
          "midi": 56,
          "time": 5.680464000000001,
          "velocity": 0.3937007874015748,
          "duration": 1.3313587499999997
        },
        {
          "name": "C#4",
          "midi": 61,
          "time": 5.680464000000001,
          "velocity": 0.3937007874015748,
          "duration": 0.7100580000000001
        },
        {
          "name": "B3",
          "midi": 59,
          "time": 5.680464000000001,
          "velocity": 0.3937007874015748,
          "duration": 1.3313587499999997
        },
        {
          "name": "D#4",
          "midi": 63,
          "time": 6.923065500000001,
          "velocity": 0.3937007874015748,
          "duration": 0.17751450000000002
        },
        {
          "name": "G#3",
          "midi": 56,
          "time": 7.100580000000001,
          "velocity": 0.3937007874015748,
          "duration": 0.17751450000000002
        },
        {
          "name": "G#3",
          "midi": 56,
          "time": 7.100580000000001,
          "velocity": 0.3937007874015748,
          "duration": 1.3313587499999997
        },
        {
          "name": "B3",
          "midi": 59,
          "time": 7.100580000000001,
          "velocity": 0.3937007874015748,
          "duration": 1.2426014999999992
        },
        {
          "name": "E3",
          "midi": 52,
          "time": 7.100580000000001,
          "velocity": 0.3937007874015748,
          "duration": 1.3313587499999997
        },
        {
          "name": "G#3",
          "midi": 56,
          "time": 7.278094500000001,
          "velocity": 0.3937007874015748,
          "duration": 2.840232000000001
        },
        {
          "name": "D#4",
          "midi": 63,
          "time": 7.633123500000001,
          "velocity": 0.3937007874015748,
          "duration": 0.17751450000000002
        },
        {
          "name": "D#4",
          "midi": 63,
          "time": 7.810638000000001,
          "velocity": 0.3937007874015748,
          "duration": 0.35502900000000004
        },
        {
          "name": "C#4",
          "midi": 61,
          "time": 8.165667000000001,
          "velocity": 0.3937007874015748,
          "duration": 0.17751449999999913
        },
        {
          "name": "B3",
          "midi": 59,
          "time": 8.3431815,
          "velocity": 0.3937007874015748,
          "duration": 0.1775145000000009
        },
        {
          "name": "C#4",
          "midi": 61,
          "time": 8.520696000000001,
          "velocity": 0.3937007874015748,
          "duration": 0.9763297499999997
        },
        {
          "name": "D#3",
          "midi": 51,
          "time": 8.520696000000001,
          "velocity": 0.3937007874015748,
          "duration": 1.3313587499999997
        },
        {
          "name": "F#3",
          "midi": 54,
          "time": 8.520696000000001,
          "velocity": 0.3937007874015748,
          "duration": 1.3313587499999997
        },
        {
          "name": "A#3",
          "midi": 58,
          "time": 8.520696000000001,
          "velocity": 0.3937007874015748,
          "duration": 1.3313587499999997
        },
        {
          "name": "G#3",
          "midi": 56,
          "time": 9.940812000000001,
          "velocity": 0.3937007874015748,
          "duration": 0.532543500000001
        },
        {
          "name": "F#3",
          "midi": 54,
          "time": 9.940812000000001,
          "velocity": 0.3937007874015748,
          "duration": 1.3313587499999997
        },
        {
          "name": "A#3",
          "midi": 58,
          "time": 9.940812000000001,
          "velocity": 0.3937007874015748,
          "duration": 1.3313587499999997
        },
        {
          "name": "D#3",
          "midi": 51,
          "time": 9.940812000000001,
          "velocity": 0.3937007874015748,
          "duration": 1.3313587499999997
        },
        {
          "name": "G#3",
          "midi": 56,
          "time": 10.118326500000002,
          "velocity": 0.3937007874015748,
          "duration": 2.5739602500000025
        },
        {
          "name": "D#4",
          "midi": 63,
          "time": 10.473355500000002,
          "velocity": 0.3937007874015748,
          "duration": 0.17751449999999913
        },
        {
          "name": "D#4",
          "midi": 63,
          "time": 10.650870000000001,
          "velocity": 0.3937007874015748,
          "duration": 0.35502900000000004
        },
        {
          "name": "C#4",
          "midi": 61,
          "time": 11.005899000000001,
          "velocity": 0.3937007874015748,
          "duration": 0.17751449999999913
        },
        {
          "name": "B3",
          "midi": 59,
          "time": 11.1834135,
          "velocity": 0.3937007874015748,
          "duration": 0.1775145000000009
        },
        {
          "name": "C#4",
          "midi": 61,
          "time": 11.360928000000001,
          "velocity": 0.3937007874015748,
          "duration": 0.7100580000000001
        },
        {
          "name": "B3",
          "midi": 59,
          "time": 11.360928000000001,
          "velocity": 0.3937007874015748,
          "duration": 0.7100580000000001
        },
        {
          "name": "E3",
          "midi": 52,
          "time": 11.360928000000001,
          "velocity": 0.3937007874015748,
          "duration": 1.3313587500000033
        },
        {
          "name": "G#3",
          "midi": 56,
          "time": 11.360928000000001,
          "velocity": 0.3937007874015748,
          "duration": 1.4201160000000037
        },
        {
          "name": "D#4",
          "midi": 63,
          "time": 12.070986000000001,
          "velocity": 0.3937007874015748,
          "duration": 0.1775145000000009
        },
        {
          "name": "B3",
          "midi": 59,
          "time": 12.070986000000001,
          "velocity": 0.3937007874015748,
          "duration": 0.1775145000000009
        },
        {
          "name": "B3",
          "midi": 59,
          "time": 12.248500500000002,
          "velocity": 0.3937007874015748,
          "duration": 0.1775145000000009
        },
        {
          "name": "D#4",
          "midi": 63,
          "time": 12.248500500000002,
          "velocity": 0.3937007874015748,
          "duration": 0.1775145000000009
        },
        {
          "name": "B3",
          "midi": 59,
          "time": 12.426015000000003,
          "velocity": 0.3937007874015748,
          "duration": 0.1775145000000009
        },
        {
          "name": "D#4",
          "midi": 63,
          "time": 12.426015000000003,
          "velocity": 0.3937007874015748,
          "duration": 0.1775145000000009
        },
        {
          "name": "B3",
          "midi": 59,
          "time": 12.603529500000004,
          "velocity": 0.3937007874015748,
          "duration": 0.1775145000000009
        },
        {
          "name": "D#4",
          "midi": 63,
          "time": 12.603529500000004,
          "velocity": 0.3937007874015748,
          "duration": 0.1775145000000009
        },
        {
          "name": "G#3",
          "midi": 56,
          "time": 12.781044000000005,
          "velocity": 0.3937007874015748,
          "duration": 0.1775145000000009
        },
        {
          "name": "E3",
          "midi": 52,
          "time": 12.781044000000005,
          "velocity": 0.3937007874015748,
          "duration": 1.3313587499999997
        },
        {
          "name": "B3",
          "midi": 59,
          "time": 12.781044000000005,
          "velocity": 0.3937007874015748,
          "duration": 1.2426014999999992
        },
        {
          "name": "G#3",
          "midi": 56,
          "time": 12.781044000000005,
          "velocity": 0.3937007874015748,
          "duration": 1.3313587499999997
        },
        {
          "name": "G#3",
          "midi": 56,
          "time": 12.958558500000006,
          "velocity": 0.3937007874015748,
          "duration": 5.147920500000009
        },
        {
          "name": "D#4",
          "midi": 63,
          "time": 13.313587500000006,
          "velocity": 0.3937007874015748,
          "duration": 0.17751449999999913
        },
        {
          "name": "D#4",
          "midi": 63,
          "time": 13.491102000000005,
          "velocity": 0.3937007874015748,
          "duration": 0.35502900000000004
        },
        {
          "name": "C#4",
          "midi": 61,
          "time": 13.846131000000005,
          "velocity": 0.3937007874015748,
          "duration": 0.17751449999999913
        },
        {
          "name": "B3",
          "midi": 59,
          "time": 14.023645500000004,
          "velocity": 0.3937007874015748,
          "duration": 0.1775145000000009
        },
        {
          "name": "C#4",
          "midi": 61,
          "time": 14.201160000000005,
          "velocity": 0.3937007874015748,
          "duration": 0.1775145000000009
        },
        {
          "name": "F#3",
          "midi": 54,
          "time": 14.201160000000005,
          "velocity": 0.3937007874015748,
          "duration": 0.3550290000000018
        },
        {
          "name": "A#3",
          "midi": 58,
          "time": 14.201160000000005,
          "velocity": 0.3937007874015748,
          "duration": 0.3550290000000018
        },
        {
          "name": "D#3",
          "midi": 51,
          "time": 14.201160000000005,
          "velocity": 0.3937007874015748,
          "duration": 0.3550290000000018
        },
        {
          "name": "D#4",
          "midi": 63,
          "time": 14.556189000000007,
          "velocity": 0.3937007874015748,
          "duration": 0.35502900000000004
        },
        {
          "name": "D#4",
          "midi": 63,
          "time": 14.911218000000007,
          "velocity": 0.3937007874015748,
          "duration": 0.35502900000000004
        },
        {
          "name": "D#4",
          "midi": 63,
          "time": 15.266247000000007,
          "velocity": 0.3937007874015748,
          "duration": 0.35502900000000004
        },
        {
          "name": "D#3",
          "midi": 51,
          "time": 15.621276000000007,
          "velocity": 0.3937007874015748,
          "duration": 0.532543500000001
        },
        {
          "name": "G#4",
          "midi": 68,
          "time": 15.621276000000007,
          "velocity": 0.3937007874015748,
          "duration": 0.17751449999999913
        },
        {
          "name": "G#4",
          "midi": 68,
          "time": 15.798790500000006,
          "velocity": 0.3937007874015748,
          "duration": 0.1775145000000009
        },
        {
          "name": "A#4",
          "midi": 70,
          "time": 15.976305000000007,
          "velocity": 0.3937007874015748,
          "duration": 0.1775145000000009
        },
        {
          "name": "A#4",
          "midi": 70,
          "time": 16.153819500000008,
          "velocity": 0.3937007874015748,
          "duration": 0.1775145000000009
        },
        {
          "name": "A#3",
          "midi": 58,
          "time": 16.153819500000008,
          "velocity": 0.3937007874015748,
          "duration": 0.5325435000000027
        },
        {
          "name": "F#3",
          "midi": 54,
          "time": 16.153819500000008,
          "velocity": 0.3937007874015748,
          "duration": 0.5325435000000027
        },
        {
          "name": "B4",
          "midi": 71,
          "time": 16.33133400000001,
          "velocity": 0.3937007874015748,
          "duration": 0.1775145000000009
        },
        {
          "name": "B4",
          "midi": 71,
          "time": 16.50884850000001,
          "velocity": 0.3937007874015748,
          "duration": 0.1775145000000009
        },
        {
          "name": "A#4",
          "midi": 70,
          "time": 16.68636300000001,
          "velocity": 0.3937007874015748,
          "duration": 0.1775145000000009
        },
        {
          "name": "F#3",
          "midi": 54,
          "time": 16.68636300000001,
          "velocity": 0.3937007874015748,
          "duration": 0.3550290000000018
        },
        {
          "name": "A#3",
          "midi": 58,
          "time": 16.68636300000001,
          "velocity": 0.3937007874015748,
          "duration": 0.3550290000000018
        },
        {
          "name": "G#4",
          "midi": 68,
          "time": 16.86387750000001,
          "velocity": 0.3937007874015748,
          "duration": 0.1775145000000009
        },
        {
          "name": "E3",
          "midi": 52,
          "time": 17.041392000000013,
          "velocity": 0.3937007874015748,
          "duration": 0.5325435000000027
        },
        {
          "name": "D#4",
          "midi": 63,
          "time": 17.041392000000013,
          "velocity": 0.3937007874015748,
          "duration": 0.1775145000000009
        },
        {
          "name": "C#4",
          "midi": 61,
          "time": 17.218906500000013,
          "velocity": 0.3937007874015748,
          "duration": 0.1775145000000009
        },
        {
          "name": "B3",
          "midi": 59,
          "time": 17.396421000000014,
          "velocity": 0.3937007874015748,
          "duration": 0.1775145000000009
        },
        {
          "name": "G#3",
          "midi": 56,
          "time": 17.573935500000015,
          "velocity": 0.3937007874015748,
          "duration": 0.887572500000001
        },
        {
          "name": "B3",
          "midi": 59,
          "time": 17.573935500000015,
          "velocity": 0.3937007874015748,
          "duration": 0.5325434999999992
        },
        {
          "name": "B3",
          "midi": 59,
          "time": 18.106479000000014,
          "velocity": 0.3937007874015748,
          "duration": 0.3550290000000018
        },
        {
          "name": "G#3",
          "midi": 56,
          "time": 18.106479000000014,
          "velocity": 0.3937007874015748,
          "duration": 1.4201160000000073
        },
        {
          "name": "D#4",
          "midi": 63,
          "time": 18.283993500000015,
          "velocity": 0.3937007874015748,
          "duration": 0.1775145000000009
        },
        {
          "name": "G#4",
          "midi": 68,
          "time": 18.461508000000016,
          "velocity": 0.3937007874015748,
          "duration": 0.1775145000000009
        },
        {
          "name": "E3",
          "midi": 52,
          "time": 18.461508000000016,
          "velocity": 0.3937007874015748,
          "duration": 0.5325435000000027
        },
        {
          "name": "G#4",
          "midi": 68,
          "time": 18.639022500000017,
          "velocity": 0.3937007874015748,
          "duration": 0.1775145000000009
        },
        {
          "name": "A#4",
          "midi": 70,
          "time": 18.816537000000018,
          "velocity": 0.3937007874015748,
          "duration": 0.1775145000000009
        },
        {
          "name": "B3",
          "midi": 59,
          "time": 18.99405150000002,
          "velocity": 0.3937007874015748,
          "duration": 0.5325435000000027
        },
        {
          "name": "A#4",
          "midi": 70,
          "time": 18.99405150000002,
          "velocity": 0.3937007874015748,
          "duration": 0.1775145000000009
        },
        {
          "name": "G#3",
          "midi": 56,
          "time": 18.99405150000002,
          "velocity": 0.3937007874015748,
          "duration": 0.8875725000000045
        },
        {
          "name": "B4",
          "midi": 71,
          "time": 19.17156600000002,
          "velocity": 0.3937007874015748,
          "duration": 0.1775145000000009
        },
        {
          "name": "B4",
          "midi": 71,
          "time": 19.34908050000002,
          "velocity": 0.3937007874015748,
          "duration": 0.1775145000000009
        },
        {
          "name": "G#3",
          "midi": 56,
          "time": 19.52659500000002,
          "velocity": 0.3937007874015748,
          "duration": 3.727804500000019
        },
        {
          "name": "A#4",
          "midi": 70,
          "time": 19.52659500000002,
          "velocity": 0.3937007874015748,
          "duration": 0.1775145000000009
        },
        {
          "name": "B3",
          "midi": 59,
          "time": 19.52659500000002,
          "velocity": 0.3937007874015748,
          "duration": 0.3550290000000018
        },
        {
          "name": "G#4",
          "midi": 68,
          "time": 19.704109500000023,
          "velocity": 0.3937007874015748,
          "duration": 0.1775145000000009
        },
        {
          "name": "D#4",
          "midi": 63,
          "time": 19.881624000000023,
          "velocity": 0.3937007874015748,
          "duration": 0.1775145000000009
        },
        {
          "name": "D#3",
          "midi": 51,
          "time": 19.881624000000023,
          "velocity": 0.3937007874015748,
          "duration": 0.5325435000000027
        },
        {
          "name": "C#4",
          "midi": 61,
          "time": 20.059138500000024,
          "velocity": 0.3937007874015748,
          "duration": 0.1775145000000009
        },
        {
          "name": "B3",
          "midi": 59,
          "time": 20.236653000000025,
          "velocity": 0.3937007874015748,
          "duration": 0.3550290000000018
        },
        {
          "name": "A#3",
          "midi": 58,
          "time": 20.414167500000026,
          "velocity": 0.3937007874015748,
          "duration": 0.5325435000000027
        },
        {
          "name": "F#3",
          "midi": 54,
          "time": 20.414167500000026,
          "velocity": 0.3937007874015748,
          "duration": 0.5325435000000027
        },
        {
          "name": "D#4",
          "midi": 63,
          "time": 20.591682000000027,
          "velocity": 0.3937007874015748,
          "duration": 0.1775145000000009
        },
        {
          "name": "D#4",
          "midi": 63,
          "time": 20.769196500000028,
          "velocity": 0.3937007874015748,
          "duration": 0.1775145000000009
        },
        {
          "name": "F#3",
          "midi": 54,
          "time": 20.94671100000003,
          "velocity": 0.3937007874015748,
          "duration": 0.3550290000000018
        },
        {
          "name": "A#3",
          "midi": 58,
          "time": 20.94671100000003,
          "velocity": 0.3937007874015748,
          "duration": 0.3550290000000018
        },
        {
          "name": "D#4",
          "midi": 63,
          "time": 20.94671100000003,
          "velocity": 0.3937007874015748,
          "duration": 0.1775145000000009
        },
        {
          "name": "D#4",
          "midi": 63,
          "time": 21.12422550000003,
          "velocity": 0.3937007874015748,
          "duration": 0.1775145000000009
        },
        {
          "name": "E4",
          "midi": 64,
          "time": 21.30174000000003,
          "velocity": 0.3937007874015748,
          "duration": 0.1775145000000009
        },
        {
          "name": "G#4",
          "midi": 68,
          "time": 21.30174000000003,
          "velocity": 0.3937007874015748,
          "duration": 0.1775145000000009
        },
        {
          "name": "D#3",
          "midi": 51,
          "time": 21.30174000000003,
          "velocity": 0.3937007874015748,
          "duration": 0.5325435000000027
        },
        {
          "name": "E4",
          "midi": 64,
          "time": 21.47925450000003,
          "velocity": 0.3937007874015748,
          "duration": 0.1775145000000009
        },
        {
          "name": "G#4",
          "midi": 68,
          "time": 21.47925450000003,
          "velocity": 0.3937007874015748,
          "duration": 0.1775145000000009
        },
        {
          "name": "A#4",
          "midi": 70,
          "time": 21.656769000000033,
          "velocity": 0.3937007874015748,
          "duration": 0.1775145000000009
        },
        {
          "name": "F#4",
          "midi": 66,
          "time": 21.656769000000033,
          "velocity": 0.3937007874015748,
          "duration": 0.1775145000000009
        },
        {
          "name": "F#3",
          "midi": 54,
          "time": 21.834283500000033,
          "velocity": 0.3937007874015748,
          "duration": 0.5325435000000027
        },
        {
          "name": "F#4",
          "midi": 66,
          "time": 21.834283500000033,
          "velocity": 0.3937007874015748,
          "duration": 0.1775145000000009
        },
        {
          "name": "A#3",
          "midi": 58,
          "time": 21.834283500000033,
          "velocity": 0.3937007874015748,
          "duration": 0.5325435000000027
        },
        {
          "name": "A#4",
          "midi": 70,
          "time": 21.834283500000033,
          "velocity": 0.3937007874015748,
          "duration": 0.1775145000000009
        },
        {
          "name": "G#4",
          "midi": 68,
          "time": 22.011798000000034,
          "velocity": 0.3937007874015748,
          "duration": 0.1775145000000009
        },
        {
          "name": "B4",
          "midi": 71,
          "time": 22.011798000000034,
          "velocity": 0.3937007874015748,
          "duration": 0.1775145000000009
        },
        {
          "name": "B4",
          "midi": 71,
          "time": 22.189312500000035,
          "velocity": 0.3937007874015748,
          "duration": 0.1775145000000009
        },
        {
          "name": "G#4",
          "midi": 68,
          "time": 22.189312500000035,
          "velocity": 0.3937007874015748,
          "duration": 0.1775145000000009
        },
        {
          "name": "F#4",
          "midi": 66,
          "time": 22.366827000000036,
          "velocity": 0.3937007874015748,
          "duration": 0.1775145000000009
        },
        {
          "name": "A#4",
          "midi": 70,
          "time": 22.366827000000036,
          "velocity": 0.3937007874015748,
          "duration": 0.1775145000000009
        },
        {
          "name": "F#3",
          "midi": 54,
          "time": 22.366827000000036,
          "velocity": 0.3937007874015748,
          "duration": 0.3550290000000018
        },
        {
          "name": "A#3",
          "midi": 58,
          "time": 22.366827000000036,
          "velocity": 0.3937007874015748,
          "duration": 0.3550290000000018
        },
        {
          "name": "E4",
          "midi": 64,
          "time": 22.544341500000037,
          "velocity": 0.3937007874015748,
          "duration": 0.1775145000000009
        },
        {
          "name": "G#4",
          "midi": 68,
          "time": 22.544341500000037,
          "velocity": 0.3937007874015748,
          "duration": 0.1775145000000009
        },
        {
          "name": "D#4",
          "midi": 63,
          "time": 22.721856000000038,
          "velocity": 0.3937007874015748,
          "duration": 0.1775145000000009
        },
        {
          "name": "E3",
          "midi": 52,
          "time": 22.721856000000038,
          "velocity": 0.3937007874015748,
          "duration": 0.5325435000000027
        },
        {
          "name": "B3",
          "midi": 59,
          "time": 22.721856000000038,
          "velocity": 0.3937007874015748,
          "duration": 0.1775145000000009
        },
        {
          "name": "A#3",
          "midi": 58,
          "time": 22.89937050000004,
          "velocity": 0.3937007874015748,
          "duration": 0.1775145000000009
        },
        {
          "name": "C#4",
          "midi": 61,
          "time": 22.89937050000004,
          "velocity": 0.3937007874015748,
          "duration": 0.1775145000000009
        },
        {
          "name": "G#3",
          "midi": 56,
          "time": 23.07688500000004,
          "velocity": 0.3937007874015748,
          "duration": 0.7100580000000001
        },
        {
          "name": "B3",
          "midi": 59,
          "time": 23.07688500000004,
          "velocity": 0.3937007874015748,
          "duration": 0.1775145000000009
        },
        {
          "name": "G#3",
          "midi": 56,
          "time": 23.25439950000004,
          "velocity": 0.3937007874015748,
          "duration": 0.5325434999999992
        },
        {
          "name": "B3",
          "midi": 59,
          "time": 23.25439950000004,
          "velocity": 0.3937007874015748,
          "duration": 0.5325434999999992
        },
        {
          "name": "G#3",
          "midi": 56,
          "time": 23.78694300000004,
          "velocity": 0.3937007874015748,
          "duration": 0.1775145000000009
        },
        {
          "name": "G#3",
          "midi": 56,
          "time": 23.78694300000004,
          "velocity": 0.3937007874015748,
          "duration": 0.3550290000000018
        },
        {
          "name": "B3",
          "midi": 59,
          "time": 23.78694300000004,
          "velocity": 0.3937007874015748,
          "duration": 0.3550290000000018
        },
        {
          "name": "G#3",
          "midi": 56,
          "time": 23.96445750000004,
          "velocity": 0.3937007874015748,
          "duration": 1.2426015000000064
        },
        {
          "name": "E3",
          "midi": 52,
          "time": 24.14197200000004,
          "velocity": 0.3937007874015748,
          "duration": 0.5325435000000027
        },
        {
          "name": "D#4",
          "midi": 63,
          "time": 24.14197200000004,
          "velocity": 0.3937007874015748,
          "duration": 0.1775145000000009
        },
        {
          "name": "D#4",
          "midi": 63,
          "time": 24.319486500000043,
          "velocity": 0.3937007874015748,
          "duration": 0.1775145000000009
        },
        {
          "name": "C#4",
          "midi": 61,
          "time": 24.497001000000044,
          "velocity": 0.3937007874015748,
          "duration": 0.1775145000000009
        },
        {
          "name": "B3",
          "midi": 59,
          "time": 24.674515500000044,
          "velocity": 0.3937007874015748,
          "duration": 0.3550290000000018
        },
        {
          "name": "G#3",
          "midi": 56,
          "time": 24.674515500000044,
          "velocity": 0.3937007874015748,
          "duration": 0.5325435000000027
        },
        {
          "name": "B3",
          "midi": 59,
          "time": 24.674515500000044,
          "velocity": 0.3937007874015748,
          "duration": 0.5325435000000027
        },
        {
          "name": "C#4",
          "midi": 61,
          "time": 24.852030000000045,
          "velocity": 0.3937007874015748,
          "duration": 0.1775145000000009
        },
        {
          "name": "B3",
          "midi": 59,
          "time": 25.029544500000046,
          "velocity": 0.3937007874015748,
          "duration": 0.5325435000000027
        },
        {
          "name": "B3",
          "midi": 59,
          "time": 25.207059000000047,
          "velocity": 0.3937007874015748,
          "duration": 1.0650870000000054
        },
        {
          "name": "G#3",
          "midi": 56,
          "time": 25.207059000000047,
          "velocity": 0.3937007874015748,
          "duration": 0.1775145000000009
        },
        {
          "name": "G#3",
          "midi": 56,
          "time": 25.207059000000047,
          "velocity": 0.3937007874015748,
          "duration": 0.3550290000000018
        },
        {
          "name": "G#3",
          "midi": 56,
          "time": 25.384573500000048,
          "velocity": 0.3937007874015748,
          "duration": 4.349105250000012
        },
        {
          "name": "D#4",
          "midi": 63,
          "time": 25.56208800000005,
          "velocity": 0.3937007874015748,
          "duration": 0.1775145000000009
        },
        {
          "name": "D#3",
          "midi": 51,
          "time": 25.56208800000005,
          "velocity": 0.3937007874015748,
          "duration": 0.5325435000000027
        },
        {
          "name": "D#4",
          "midi": 63,
          "time": 25.73960250000005,
          "velocity": 0.3937007874015748,
          "duration": 0.1775145000000009
        },
        {
          "name": "C#4",
          "midi": 61,
          "time": 25.91711700000005,
          "velocity": 0.3937007874015748,
          "duration": 0.1775145000000009
        },
        {
          "name": "A#3",
          "midi": 58,
          "time": 26.09463150000005,
          "velocity": 0.3937007874015748,
          "duration": 0.5325434999999992
        },
        {
          "name": "F#3",
          "midi": 54,
          "time": 26.09463150000005,
          "velocity": 0.3937007874015748,
          "duration": 0.5325434999999992
        },
        {
          "name": "B3",
          "midi": 59,
          "time": 26.09463150000005,
          "velocity": 0.3937007874015748,
          "duration": 3.639047250000008
        },
        {
          "name": "C#4",
          "midi": 61,
          "time": 26.272146000000053,
          "velocity": 0.3937007874015748,
          "duration": 0.7100580000000001
        },
        {
          "name": "A#3",
          "midi": 58,
          "time": 26.62717500000005,
          "velocity": 0.3937007874015748,
          "duration": 0.3550290000000018
        },
        {
          "name": "F#3",
          "midi": 54,
          "time": 26.62717500000005,
          "velocity": 0.3937007874015748,
          "duration": 0.3550290000000018
        },
        {
          "name": "D#3",
          "midi": 51,
          "time": 26.982204000000053,
          "velocity": 0.3937007874015748,
          "duration": 1.3313587500000033
        },
        {
          "name": "F#3",
          "midi": 54,
          "time": 26.982204000000053,
          "velocity": 0.3937007874015748,
          "duration": 1.3313587500000033
        },
        {
          "name": "A#3",
          "midi": 58,
          "time": 26.982204000000053,
          "velocity": 0.3937007874015748,
          "duration": 1.3313587500000033
        },
        {
          "name": "G#5",
          "midi": 80,
          "time": 27.337233000000055,
          "velocity": 0.3937007874015748,
          "duration": 0.3550290000000018
        },
        {
          "name": "D#5",
          "midi": 75,
          "time": 27.692262000000056,
          "velocity": 0.3937007874015748,
          "duration": 0.5325434999999992
        },
        {
          "name": "B4",
          "midi": 71,
          "time": 28.224805500000056,
          "velocity": 0.3937007874015748,
          "duration": 0.1775145000000009
        },
        {
          "name": "C#5",
          "midi": 73,
          "time": 28.402320000000056,
          "velocity": 0.3937007874015748,
          "duration": 0.1775145000000009
        },
        {
          "name": "B3",
          "midi": 59,
          "time": 28.402320000000056,
          "velocity": 0.3937007874015748,
          "duration": 2.7514747500000105
        },
        {
          "name": "G#3",
          "midi": 56,
          "time": 28.402320000000056,
          "velocity": 0.3937007874015748,
          "duration": 2.7514747500000105
        },
        {
          "name": "E3",
          "midi": 52,
          "time": 28.402320000000056,
          "velocity": 0.3937007874015748,
          "duration": 1.3313587500000033
        },
        {
          "name": "D#5",
          "midi": 75,
          "time": 28.579834500000057,
          "velocity": 0.3937007874015748,
          "duration": 0.1775145000000009
        },
        {
          "name": "C#5",
          "midi": 73,
          "time": 28.75734900000006,
          "velocity": 0.3937007874015748,
          "duration": 0.1775145000000009
        },
        {
          "name": "B4",
          "midi": 71,
          "time": 28.93486350000006,
          "velocity": 0.3937007874015748,
          "duration": 0.1775145000000009
        },
        {
          "name": "G#4",
          "midi": 68,
          "time": 29.11237800000006,
          "velocity": 0.3937007874015748,
          "duration": 0.7100580000000001
        },
        {
          "name": "C#5",
          "midi": 73,
          "time": 29.82243600000006,
          "velocity": 0.3937007874015748,
          "duration": 0.1775145000000009
        },
        {
          "name": "E3",
          "midi": 52,
          "time": 29.82243600000006,
          "velocity": 0.3937007874015748,
          "duration": 1.3313587500000068
        },
        {
          "name": "G#3",
          "midi": 56,
          "time": 29.82243600000006,
          "velocity": 0.3937007874015748,
          "duration": 5.591706750000029
        },
        {
          "name": "B3",
          "midi": 59,
          "time": 29.82243600000006,
          "velocity": 0.3937007874015748,
          "duration": 5.591706750000029
        },
        {
          "name": "D#5",
          "midi": 75,
          "time": 29.99995050000006,
          "velocity": 0.3937007874015748,
          "duration": 0.1775145000000009
        },
        {
          "name": "C#5",
          "midi": 73,
          "time": 30.177465000000062,
          "velocity": 0.3937007874015748,
          "duration": 0.1775145000000009
        },
        {
          "name": "B4",
          "midi": 71,
          "time": 30.354979500000063,
          "velocity": 0.3937007874015748,
          "duration": 0.1775145000000009
        },
        {
          "name": "G#4",
          "midi": 68,
          "time": 30.532494000000064,
          "velocity": 0.3937007874015748,
          "duration": 0.3550290000000018
        },
        {
          "name": "B4",
          "midi": 71,
          "time": 30.887523000000066,
          "velocity": 0.3937007874015748,
          "duration": 0.3550290000000018
        },
        {
          "name": "F#3",
          "midi": 54,
          "time": 31.242552000000067,
          "velocity": 0.3937007874015748,
          "duration": 1.3313587500000068
        },
        {
          "name": "D#3",
          "midi": 51,
          "time": 31.242552000000067,
          "velocity": 0.3937007874015748,
          "duration": 1.3313587500000068
        },
        {
          "name": "C#5",
          "midi": 73,
          "time": 31.242552000000067,
          "velocity": 0.3937007874015748,
          "duration": 0.1775145000000009
        },
        {
          "name": "A#3",
          "midi": 58,
          "time": 31.242552000000067,
          "velocity": 0.3937007874015748,
          "duration": 1.3313587500000068
        },
        {
          "name": "D#5",
          "midi": 75,
          "time": 31.42006650000007,
          "velocity": 0.3937007874015748,
          "duration": 0.1775145000000009
        },
        {
          "name": "C#5",
          "midi": 73,
          "time": 31.59758100000007,
          "velocity": 0.3937007874015748,
          "duration": 0.1775145000000009
        },
        {
          "name": "B4",
          "midi": 71,
          "time": 31.77509550000007,
          "velocity": 0.3937007874015748,
          "duration": 0.1775145000000009
        },
        {
          "name": "A#4",
          "midi": 70,
          "time": 31.95261000000007,
          "velocity": 0.3937007874015748,
          "duration": 0.7100580000000036
        },
        {
          "name": "D#3",
          "midi": 51,
          "time": 32.662668000000075,
          "velocity": 0.3937007874015748,
          "duration": 1.3313587500000068
        },
        {
          "name": "F#3",
          "midi": 54,
          "time": 32.662668000000075,
          "velocity": 0.3937007874015748,
          "duration": 1.3313587500000068
        },
        {
          "name": "A#3",
          "midi": 58,
          "time": 32.662668000000075,
          "velocity": 0.3937007874015748,
          "duration": 1.3313587500000068
        },
        {
          "name": "G#5",
          "midi": 80,
          "time": 33.01769700000008,
          "velocity": 0.3937007874015748,
          "duration": 0.3550290000000018
        },
        {
          "name": "D#5",
          "midi": 75,
          "time": 33.37272600000008,
          "velocity": 0.3937007874015748,
          "duration": 0.5325435000000027
        },
        {
          "name": "B4",
          "midi": 71,
          "time": 33.90526950000008,
          "velocity": 0.3937007874015748,
          "duration": 0.1775145000000009
        },
        {
          "name": "C#5",
          "midi": 73,
          "time": 34.08278400000008,
          "velocity": 0.3937007874015748,
          "duration": 0.1775145000000009
        },
        {
          "name": "E3",
          "midi": 52,
          "time": 34.08278400000008,
          "velocity": 0.3937007874015748,
          "duration": 1.3313587500000068
        },
        {
          "name": "G#3",
          "midi": 56,
          "time": 34.08278400000008,
          "velocity": 0.3937007874015748,
          "duration": 2.751474750000014
        },
        {
          "name": "B3",
          "midi": 59,
          "time": 34.08278400000008,
          "velocity": 0.3937007874015748,
          "duration": 2.751474750000014
        },
        {
          "name": "D#5",
          "midi": 75,
          "time": 34.26029850000008,
          "velocity": 0.3937007874015748,
          "duration": 0.1775145000000009
        },
        {
          "name": "C#5",
          "midi": 73,
          "time": 34.437813000000084,
          "velocity": 0.3937007874015748,
          "duration": 0.1775145000000009
        },
        {
          "name": "B4",
          "midi": 71,
          "time": 34.615327500000085,
          "velocity": 0.3937007874015748,
          "duration": 0.1775145000000009
        },
        {
          "name": "G#4",
          "midi": 68,
          "time": 34.792842000000086,
          "velocity": 0.3937007874015748,
          "duration": 0.7100580000000036
        },
        {
          "name": "C#5",
          "midi": 73,
          "time": 35.50290000000009,
          "velocity": 0.3937007874015748,
          "duration": 0.1775145000000009
        },
        {
          "name": "G#3",
          "midi": 56,
          "time": 35.50290000000009,
          "velocity": 0.3937007874015748,
          "duration": 5.32543500000002
        },
        {
          "name": "B3",
          "midi": 59,
          "time": 35.50290000000009,
          "velocity": 0.3937007874015748,
          "duration": 5.32543500000002
        },
        {
          "name": "E3",
          "midi": 52,
          "time": 35.50290000000009,
          "velocity": 0.3937007874015748,
          "duration": 1.3313587500000068
        },
        {
          "name": "D#5",
          "midi": 75,
          "time": 35.68041450000009,
          "velocity": 0.3937007874015748,
          "duration": 0.1775145000000009
        },
        {
          "name": "C#5",
          "midi": 73,
          "time": 35.85792900000009,
          "velocity": 0.3937007874015748,
          "duration": 0.1775145000000009
        },
        {
          "name": "B4",
          "midi": 71,
          "time": 36.03544350000009,
          "velocity": 0.3937007874015748,
          "duration": 0.1775145000000009
        },
        {
          "name": "G#4",
          "midi": 68,
          "time": 36.21295800000009,
          "velocity": 0.3937007874015748,
          "duration": 0.3550290000000018
        },
        {
          "name": "B4",
          "midi": 71,
          "time": 36.567987000000095,
          "velocity": 0.3937007874015748,
          "duration": 0.3550290000000018
        },
        {
          "name": "C#5",
          "midi": 73,
          "time": 36.923016000000096,
          "velocity": 0.3937007874015748,
          "duration": 0.1775145000000009
        },
        {
          "name": "D#5",
          "midi": 75,
          "time": 37.1005305000001,
          "velocity": 0.3937007874015748,
          "duration": 0.1775145000000009
        },
        {
          "name": "C#5",
          "midi": 73,
          "time": 37.2780450000001,
          "velocity": 0.3937007874015748,
          "duration": 0.1775145000000009
        },
        {
          "name": "B4",
          "midi": 71,
          "time": 37.4555595000001,
          "velocity": 0.3937007874015748,
          "duration": 0.1775145000000009
        },
        {
          "name": "A#4",
          "midi": 70,
          "time": 37.6330740000001,
          "velocity": 0.3937007874015748,
          "duration": 0.7100579999999965
        },
        {
          "name": "D#4",
          "midi": 63,
          "time": 38.3431320000001,
          "velocity": 0.3937007874015748,
          "duration": 0.1775145000000009
        },
        {
          "name": "D#3",
          "midi": 51,
          "time": 38.3431320000001,
          "velocity": 0.3937007874015748,
          "duration": 0.5325435000000027
        },
        {
          "name": "D#4",
          "midi": 63,
          "time": 38.5206465000001,
          "velocity": 0.3937007874015748,
          "duration": 0.1775145000000009
        },
        {
          "name": "D#4",
          "midi": 63,
          "time": 38.6981610000001,
          "velocity": 0.3937007874015748,
          "duration": 0.1775145000000009
        },
        {
          "name": "A#3",
          "midi": 58,
          "time": 38.8756755000001,
          "velocity": 0.3937007874015748,
          "duration": 0.5325435000000027
        },
        {
          "name": "F#3",
          "midi": 54,
          "time": 38.8756755000001,
          "velocity": 0.3937007874015748,
          "duration": 0.5325435000000027
        },
        {
          "name": "C#4",
          "midi": 61,
          "time": 38.8756755000001,
          "velocity": 0.3937007874015748,
          "duration": 0.1775145000000009
        },
        {
          "name": "D#4",
          "midi": 63,
          "time": 39.0531900000001,
          "velocity": 0.3937007874015748,
          "duration": 0.7100580000000036
        },
        {
          "name": "A#3",
          "midi": 58,
          "time": 39.4082190000001,
          "velocity": 0.3937007874015748,
          "duration": 0.3550290000000018
        },
        {
          "name": "F#3",
          "midi": 54,
          "time": 39.4082190000001,
          "velocity": 0.3937007874015748,
          "duration": 0.3550290000000018
        },
        {
          "name": "E4",
          "midi": 64,
          "time": 39.763248000000104,
          "velocity": 0.3937007874015748,
          "duration": 0.1775145000000009
        },
        {
          "name": "E3",
          "midi": 52,
          "time": 39.763248000000104,
          "velocity": 0.3937007874015748,
          "duration": 0.5325435000000027
        },
        {
          "name": "E4",
          "midi": 64,
          "time": 39.940762500000105,
          "velocity": 0.3937007874015748,
          "duration": 0.1775145000000009
        },
        {
          "name": "E4",
          "midi": 64,
          "time": 40.118277000000106,
          "velocity": 0.3937007874015748,
          "duration": 0.1775145000000009
        },
        {
          "name": "D#4",
          "midi": 63,
          "time": 40.29579150000011,
          "velocity": 0.3937007874015748,
          "duration": 0.1775145000000009
        },
        {
          "name": "G#3",
          "midi": 56,
          "time": 40.29579150000011,
          "velocity": 0.3937007874015748,
          "duration": 0.8875725000000045
        },
        {
          "name": "B3",
          "midi": 59,
          "time": 40.29579150000011,
          "velocity": 0.3937007874015748,
          "duration": 0.8875725000000045
        },
        {
          "name": "E4",
          "midi": 64,
          "time": 40.47330600000011,
          "velocity": 0.3937007874015748,
          "duration": 0.7100580000000036
        },
        {
          "name": "B3",
          "midi": 59,
          "time": 40.82833500000011,
          "velocity": 0.3937007874015748,
          "duration": 1.4201160000000073
        },
        {
          "name": "G#3",
          "midi": 56,
          "time": 40.82833500000011,
          "velocity": 0.3937007874015748,
          "duration": 1.4201160000000073
        },
        {
          "name": "E4",
          "midi": 64,
          "time": 41.18336400000011,
          "velocity": 0.3937007874015748,
          "duration": 0.1775145000000009
        },
        {
          "name": "E3",
          "midi": 52,
          "time": 41.18336400000011,
          "velocity": 0.3937007874015748,
          "duration": 0.5325435000000027
        },
        {
          "name": "E4",
          "midi": 64,
          "time": 41.36087850000011,
          "velocity": 0.3937007874015748,
          "duration": 0.1775145000000009
        },
        {
          "name": "E4",
          "midi": 64,
          "time": 41.53839300000011,
          "velocity": 0.3937007874015748,
          "duration": 0.1775145000000009
        },
        {
          "name": "B3",
          "midi": 59,
          "time": 41.715907500000114,
          "velocity": 0.3937007874015748,
          "duration": 0.8875725000000045
        },
        {
          "name": "E4",
          "midi": 64,
          "time": 41.715907500000114,
          "velocity": 0.3937007874015748,
          "duration": 0.1775145000000009
        },
        {
          "name": "G#3",
          "midi": 56,
          "time": 41.715907500000114,
          "velocity": 0.3937007874015748,
          "duration": 0.8875725000000045
        },
        {
          "name": "F#4",
          "midi": 66,
          "time": 41.893422000000115,
          "velocity": 0.3937007874015748,
          "duration": 0.3550290000000018
        },
        {
          "name": "B3",
          "midi": 59,
          "time": 42.24845100000012,
          "velocity": 0.3937007874015748,
          "duration": 1.95265950000001
        },
        {
          "name": "G#3",
          "midi": 56,
          "time": 42.24845100000012,
          "velocity": 0.3937007874015748,
          "duration": 4.260348000000022
        },
        {
          "name": "E4",
          "midi": 64,
          "time": 42.24845100000012,
          "velocity": 0.3937007874015748,
          "duration": 0.3550290000000018
        },
        {
          "name": "D#4",
          "midi": 63,
          "time": 42.60348000000012,
          "velocity": 0.3937007874015748,
          "duration": 0.1775145000000009
        },
        {
          "name": "D#3",
          "midi": 51,
          "time": 42.60348000000012,
          "velocity": 0.3937007874015748,
          "duration": 0.5325435000000027
        },
        {
          "name": "D#4",
          "midi": 63,
          "time": 42.78099450000012,
          "velocity": 0.3937007874015748,
          "duration": 0.1775145000000009
        },
        {
          "name": "D#4",
          "midi": 63,
          "time": 42.95850900000012,
          "velocity": 0.3937007874015748,
          "duration": 0.1775145000000009
        },
        {
          "name": "A#3",
          "midi": 58,
          "time": 43.13602350000012,
          "velocity": 0.3937007874015748,
          "duration": 0.5325435000000027
        },
        {
          "name": "F#3",
          "midi": 54,
          "time": 43.13602350000012,
          "velocity": 0.3937007874015748,
          "duration": 0.5325435000000027
        },
        {
          "name": "C#4",
          "midi": 61,
          "time": 43.13602350000012,
          "velocity": 0.3937007874015748,
          "duration": 0.1775145000000009
        },
        {
          "name": "D#4",
          "midi": 63,
          "time": 43.31353800000012,
          "velocity": 0.3937007874015748,
          "duration": 0.7100580000000036
        },
        {
          "name": "A#3",
          "midi": 58,
          "time": 43.668567000000124,
          "velocity": 0.3937007874015748,
          "duration": 0.3550290000000018
        },
        {
          "name": "F#3",
          "midi": 54,
          "time": 43.668567000000124,
          "velocity": 0.3937007874015748,
          "duration": 0.3550290000000018
        },
        {
          "name": "B3",
          "midi": 59,
          "time": 44.023596000000126,
          "velocity": 0.3937007874015748,
          "duration": 0.3550290000000018
        },
        {
          "name": "D#4",
          "midi": 63,
          "time": 44.023596000000126,
          "velocity": 0.3937007874015748,
          "duration": 0.1775145000000009
        },
        {
          "name": "D#3",
          "midi": 51,
          "time": 44.023596000000126,
          "velocity": 0.3937007874015748,
          "duration": 0.5325435000000027
        },
        {
          "name": "D#4",
          "midi": 63,
          "time": 44.20111050000013,
          "velocity": 0.3937007874015748,
          "duration": 0.1775145000000009
        },
        {
          "name": "B3",
          "midi": 59,
          "time": 44.20111050000013,
          "velocity": 0.3937007874015748,
          "duration": 0.3550290000000018
        },
        {
          "name": "B3",
          "midi": 59,
          "time": 44.37862500000013,
          "velocity": 0.3937007874015748,
          "duration": 1.0650870000000054
        },
        {
          "name": "D#4",
          "midi": 63,
          "time": 44.37862500000013,
          "velocity": 0.3937007874015748,
          "duration": 0.1775145000000009
        },
        {
          "name": "A#3",
          "midi": 58,
          "time": 44.55613950000013,
          "velocity": 0.3937007874015748,
          "duration": 0.5325435000000027
        },
        {
          "name": "F#3",
          "midi": 54,
          "time": 44.55613950000013,
          "velocity": 0.3937007874015748,
          "duration": 0.5325435000000027
        },
        {
          "name": "A#3",
          "midi": 58,
          "time": 44.55613950000013,
          "velocity": 0.3937007874015748,
          "duration": 0.8875725000000045
        },
        {
          "name": "C#4",
          "midi": 61,
          "time": 44.55613950000013,
          "velocity": 0.3937007874015748,
          "duration": 0.1775145000000009
        },
        {
          "name": "B3",
          "midi": 59,
          "time": 44.73365400000013,
          "velocity": 0.3937007874015748,
          "duration": 1.2426015000000064
        },
        {
          "name": "D#4",
          "midi": 63,
          "time": 44.73365400000013,
          "velocity": 0.3937007874015748,
          "duration": 0.7100580000000036
        },
        {
          "name": "F#3",
          "midi": 54,
          "time": 45.08868300000013,
          "velocity": 0.3937007874015748,
          "duration": 0.3550290000000018
        },
        {
          "name": "A#3",
          "midi": 58,
          "time": 45.08868300000013,
          "velocity": 0.3937007874015748,
          "duration": 5.680464000000029
        },
        {
          "name": "E3",
          "midi": 52,
          "time": 45.44371200000013,
          "velocity": 0.3937007874015748,
          "duration": 0.5325435000000027
        },
        {
          "name": "C#4",
          "midi": 61,
          "time": 45.44371200000013,
          "velocity": 0.3937007874015748,
          "duration": 0.1775145000000009
        },
        {
          "name": "E4",
          "midi": 64,
          "time": 45.44371200000013,
          "velocity": 0.3937007874015748,
          "duration": 0.1775145000000009
        },
        {
          "name": "E4",
          "midi": 64,
          "time": 45.621226500000134,
          "velocity": 0.3937007874015748,
          "duration": 0.1775145000000009
        },
        {
          "name": "C#4",
          "midi": 61,
          "time": 45.621226500000134,
          "velocity": 0.3937007874015748,
          "duration": 0.1775145000000009
        },
        {
          "name": "E4",
          "midi": 64,
          "time": 45.798741000000135,
          "velocity": 0.3937007874015748,
          "duration": 0.1775145000000009
        },
        {
          "name": "C#4",
          "midi": 61,
          "time": 45.798741000000135,
          "velocity": 0.3937007874015748,
          "duration": 0.1775145000000009
        },
        {
          "name": "G#3",
          "midi": 56,
          "time": 45.976255500000136,
          "velocity": 0.3937007874015748,
          "duration": 0.8875725000000045
        },
        {
          "name": "B3",
          "midi": 59,
          "time": 45.976255500000136,
          "velocity": 0.3937007874015748,
          "duration": 0.5325435000000027
        },
        {
          "name": "D#4",
          "midi": 63,
          "time": 45.976255500000136,
          "velocity": 0.3937007874015748,
          "duration": 0.1775145000000009
        },
        {
          "name": "B3",
          "midi": 59,
          "time": 45.976255500000136,
          "velocity": 0.3937007874015748,
          "duration": 0.8875725000000045
        },
        {
          "name": "E4",
          "midi": 64,
          "time": 46.15377000000014,
          "velocity": 0.3937007874015748,
          "duration": 0.7100580000000036
        },
        {
          "name": "C#4",
          "midi": 61,
          "time": 46.15377000000014,
          "velocity": 0.3937007874015748,
          "duration": 0.7100580000000036
        },
        {
          "name": "B3",
          "midi": 59,
          "time": 46.50879900000014,
          "velocity": 0.3937007874015748,
          "duration": 1.4201160000000073
        },
        {
          "name": "G#3",
          "midi": 56,
          "time": 46.50879900000014,
          "velocity": 0.3937007874015748,
          "duration": 1.4201160000000073
        },
        {
          "name": "C#4",
          "midi": 61,
          "time": 46.86382800000014,
          "velocity": 0.3937007874015748,
          "duration": 0.1775145000000009
        },
        {
          "name": "E3",
          "midi": 52,
          "time": 46.86382800000014,
          "velocity": 0.3937007874015748,
          "duration": 0.5325435000000027
        },
        {
          "name": "E4",
          "midi": 64,
          "time": 46.86382800000014,
          "velocity": 0.3937007874015748,
          "duration": 0.1775145000000009
        },
        {
          "name": "C#4",
          "midi": 61,
          "time": 47.04134250000014,
          "velocity": 0.3937007874015748,
          "duration": 0.1775145000000009
        },
        {
          "name": "E4",
          "midi": 64,
          "time": 47.04134250000014,
          "velocity": 0.3937007874015748,
          "duration": 0.1775145000000009
        },
        {
          "name": "C#4",
          "midi": 61,
          "time": 47.21885700000014,
          "velocity": 0.3937007874015748,
          "duration": 0.1775145000000009
        },
        {
          "name": "E4",
          "midi": 64,
          "time": 47.21885700000014,
          "velocity": 0.3937007874015748,
          "duration": 0.1775145000000009
        },
        {
          "name": "E4",
          "midi": 64,
          "time": 47.39637150000014,
          "velocity": 0.3937007874015748,
          "duration": 0.1775145000000009
        },
        {
          "name": "B3",
          "midi": 59,
          "time": 47.39637150000014,
          "velocity": 0.3937007874015748,
          "duration": 0.8875725000000045
        },
        {
          "name": "C#4",
          "midi": 61,
          "time": 47.39637150000014,
          "velocity": 0.3937007874015748,
          "duration": 0.1775145000000009
        },
        {
          "name": "G#3",
          "midi": 56,
          "time": 47.39637150000014,
          "velocity": 0.3937007874015748,
          "duration": 0.8875725000000045
        },
        {
          "name": "D#4",
          "midi": 63,
          "time": 47.573886000000144,
          "velocity": 0.3937007874015748,
          "duration": 0.3550290000000018
        },
        {
          "name": "F#4",
          "midi": 66,
          "time": 47.573886000000144,
          "velocity": 0.3937007874015748,
          "duration": 0.3550290000000018
        },
        {
          "name": "B3",
          "midi": 59,
          "time": 47.928915000000146,
          "velocity": 0.3937007874015748,
          "duration": 3.106503750000016
        },
        {
          "name": "G#3",
          "midi": 56,
          "time": 47.928915000000146,
          "velocity": 0.3937007874015748,
          "duration": 1.4201160000000073
        },
        {
          "name": "C#4",
          "midi": 61,
          "time": 47.928915000000146,
          "velocity": 0.3937007874015748,
          "duration": 0.3550290000000018
        },
        {
          "name": "E4",
          "midi": 64,
          "time": 47.928915000000146,
          "velocity": 0.3937007874015748,
          "duration": 0.3550290000000018
        },
        {
          "name": "D#4",
          "midi": 63,
          "time": 48.28394400000015,
          "velocity": 0.3937007874015748,
          "duration": 0.1775145000000009
        },
        {
          "name": "D#4",
          "midi": 63,
          "time": 48.46145850000015,
          "velocity": 0.3937007874015748,
          "duration": 0.1775145000000009
        },
        {
          "name": "D#4",
          "midi": 63,
          "time": 48.63897300000015,
          "velocity": 0.3937007874015748,
          "duration": 0.1775145000000009
        },
        {
          "name": "C#4",
          "midi": 61,
          "time": 48.81648750000015,
          "velocity": 0.3937007874015748,
          "duration": 0.1775145000000009
        },
        {
          "name": "D#4",
          "midi": 63,
          "time": 48.99400200000015,
          "velocity": 0.3937007874015748,
          "duration": 0.1775145000000009
        },
        {
          "name": "G#3",
          "midi": 56,
          "time": 49.17151650000015,
          "velocity": 0.3937007874015748,
          "duration": 0.5325435000000027
        },
        {
          "name": "G#3",
          "midi": 56,
          "time": 49.34903100000015,
          "velocity": 0.3937007874015748,
          "duration": 1.6863877500000086
        },
        {
          "name": "D#4",
          "midi": 63,
          "time": 49.704060000000155,
          "velocity": 0.3937007874015748,
          "duration": 1.3313587500000068
        },
        {
          "name": "B3",
          "midi": 59,
          "time": 49.704060000000155,
          "velocity": 0.3937007874015748,
          "duration": 2.4852030000000127
        },
        {
          "name": "G#3",
          "midi": 56,
          "time": 49.704060000000155,
          "velocity": 0.3937007874015748,
          "duration": 2.4852030000000127
        },
        {
          "name": "D#2",
          "midi": 39,
          "time": 49.704060000000155,
          "velocity": 0.3937007874015748,
          "duration": 0.5325435000000027
        },
        {
          "name": "D#3",
          "midi": 51,
          "time": 50.23660350000016,
          "velocity": 0.3937007874015748,
          "duration": 0.5325435000000027
        },
        {
          "name": "F#3",
          "midi": 54,
          "time": 50.23660350000016,
          "velocity": 0.3937007874015748,
          "duration": 0.5325435000000027
        },
        {
          "name": "A#3",
          "midi": 58,
          "time": 50.23660350000016,
          "velocity": 0.3937007874015748,
          "duration": 0.8875725000000045
        },
        {
          "name": "A#3",
          "midi": 58,
          "time": 50.76914700000016,
          "velocity": 0.3937007874015748,
          "duration": 1.6863877500000086
        },
        {
          "name": "D#3",
          "midi": 51,
          "time": 50.76914700000016,
          "velocity": 0.3937007874015748,
          "duration": 0.3550290000000018
        },
        {
          "name": "F#3",
          "midi": 54,
          "time": 50.76914700000016,
          "velocity": 0.3937007874015748,
          "duration": 0.3550290000000018
        },
        {
          "name": "C#4",
          "midi": 61,
          "time": 51.12417600000016,
          "velocity": 0.3937007874015748,
          "duration": 1.3313587500000068
        },
        {
          "name": "E2",
          "midi": 40,
          "time": 51.12417600000016,
          "velocity": 0.3937007874015748,
          "duration": 0.5325435000000027
        },
        {
          "name": "E4",
          "midi": 64,
          "time": 51.12417600000016,
          "velocity": 0.3937007874015748,
          "duration": 1.3313587500000068
        },
        {
          "name": "A#3",
          "midi": 58,
          "time": 51.12417600000016,
          "velocity": 0.3937007874015748,
          "duration": 3.90531900000002
        },
        {
          "name": "E3",
          "midi": 52,
          "time": 51.656719500000165,
          "velocity": 0.3937007874015748,
          "duration": 0.5325435000000027
        },
        {
          "name": "B3",
          "midi": 59,
          "time": 51.656719500000165,
          "velocity": 0.3937007874015748,
          "duration": 0.8875725000000045
        },
        {
          "name": "G#3",
          "midi": 56,
          "time": 51.656719500000165,
          "velocity": 0.3937007874015748,
          "duration": 0.8875725000000045
        },
        {
          "name": "E3",
          "midi": 52,
          "time": 52.18926300000017,
          "velocity": 0.3937007874015748,
          "duration": 0.3550290000000018
        },
        {
          "name": "G#3",
          "midi": 56,
          "time": 52.18926300000017,
          "velocity": 0.3937007874015748,
          "duration": 1.4201160000000073
        },
        {
          "name": "B3",
          "midi": 59,
          "time": 52.18926300000017,
          "velocity": 0.3937007874015748,
          "duration": 1.4201160000000073
        },
        {
          "name": "E2",
          "midi": 40,
          "time": 52.54429200000017,
          "velocity": 0.3937007874015748,
          "duration": 0.5325435000000027
        },
        {
          "name": "E4",
          "midi": 64,
          "time": 52.54429200000017,
          "velocity": 0.3937007874015748,
          "duration": 0.7100580000000036
        },
        {
          "name": "C#4",
          "midi": 61,
          "time": 52.54429200000017,
          "velocity": 0.3937007874015748,
          "duration": 0.7100580000000036
        },
        {
          "name": "B3",
          "midi": 59,
          "time": 53.07683550000017,
          "velocity": 0.3937007874015748,
          "duration": 0.8875725000000045
        },
        {
          "name": "E3",
          "midi": 52,
          "time": 53.07683550000017,
          "velocity": 0.3937007874015748,
          "duration": 0.5325435000000027
        },
        {
          "name": "G#3",
          "midi": 56,
          "time": 53.07683550000017,
          "velocity": 0.3937007874015748,
          "duration": 0.8875725000000045
        },
        {
          "name": "F#4",
          "midi": 66,
          "time": 53.25435000000017,
          "velocity": 0.3937007874015748,
          "duration": 0.3550290000000018
        },
        {
          "name": "D#4",
          "midi": 63,
          "time": 53.25435000000017,
          "velocity": 0.3937007874015748,
          "duration": 0.3550290000000018
        },
        {
          "name": "E4",
          "midi": 64,
          "time": 53.609379000000175,
          "velocity": 0.3937007874015748,
          "duration": 0.3550290000000018
        },
        {
          "name": "G#3",
          "midi": 56,
          "time": 53.609379000000175,
          "velocity": 0.3937007874015748,
          "duration": 1.6863877500000086
        },
        {
          "name": "B3",
          "midi": 59,
          "time": 53.609379000000175,
          "velocity": 0.3937007874015748,
          "duration": 1.6863877500000086
        },
        {
          "name": "C#4",
          "midi": 61,
          "time": 53.609379000000175,
          "velocity": 0.3937007874015748,
          "duration": 0.3550290000000018
        },
        {
          "name": "E3",
          "midi": 52,
          "time": 53.609379000000175,
          "velocity": 0.3937007874015748,
          "duration": 0.3550290000000018
        },
        {
          "name": "D#2",
          "midi": 39,
          "time": 53.96440800000018,
          "velocity": 0.3937007874015748,
          "duration": 0.5325435000000027
        },
        {
          "name": "B3",
          "midi": 59,
          "time": 53.96440800000018,
          "velocity": 0.3937007874015748,
          "duration": 2.751474750000014
        },
        {
          "name": "G#3",
          "midi": 56,
          "time": 53.96440800000018,
          "velocity": 0.3937007874015748,
          "duration": 2.751474750000014
        },
        {
          "name": "D#4",
          "midi": 63,
          "time": 53.96440800000018,
          "velocity": 0.3937007874015748,
          "duration": 1.3313587500000068
        },
        {
          "name": "A#3",
          "midi": 58,
          "time": 54.49695150000018,
          "velocity": 0.3937007874015748,
          "duration": 0.8875725000000045
        },
        {
          "name": "F#3",
          "midi": 54,
          "time": 54.49695150000018,
          "velocity": 0.3937007874015748,
          "duration": 0.5325435000000027
        },
        {
          "name": "D#3",
          "midi": 51,
          "time": 54.49695150000018,
          "velocity": 0.3937007874015748,
          "duration": 0.5325435000000027
        },
        {
          "name": "A#3",
          "midi": 58,
          "time": 55.02949500000018,
          "velocity": 0.3937007874015748,
          "duration": 1.4201160000000073
        },
        {
          "name": "D#3",
          "midi": 51,
          "time": 55.02949500000018,
          "velocity": 0.3937007874015748,
          "duration": 0.3550290000000018
        },
        {
          "name": "F#3",
          "midi": 54,
          "time": 55.02949500000018,
          "velocity": 0.3937007874015748,
          "duration": 0.3550290000000018
        },
        {
          "name": "D#2",
          "midi": 39,
          "time": 55.384524000000184,
          "velocity": 0.3937007874015748,
          "duration": 0.5325435000000027
        },
        {
          "name": "G#3",
          "midi": 56,
          "time": 55.384524000000184,
          "velocity": 0.3937007874015748,
          "duration": 2.4852030000000127
        },
        {
          "name": "D#4",
          "midi": 63,
          "time": 55.384524000000184,
          "velocity": 0.3937007874015748,
          "duration": 1.3313587500000068
        },
        {
          "name": "B3",
          "midi": 59,
          "time": 55.384524000000184,
          "velocity": 0.3937007874015748,
          "duration": 2.4852030000000127
        },
        {
          "name": "F#3",
          "midi": 54,
          "time": 55.917067500000186,
          "velocity": 0.3937007874015748,
          "duration": 0.5325435000000027
        },
        {
          "name": "D#3",
          "midi": 51,
          "time": 55.917067500000186,
          "velocity": 0.3937007874015748,
          "duration": 0.5325435000000027
        },
        {
          "name": "A#3",
          "midi": 58,
          "time": 55.917067500000186,
          "velocity": 0.3937007874015748,
          "duration": 0.8875725000000045
        },
        {
          "name": "A#3",
          "midi": 58,
          "time": 56.44961100000019,
          "velocity": 0.3937007874015748,
          "duration": 1.6863877500000086
        },
        {
          "name": "D#3",
          "midi": 51,
          "time": 56.44961100000019,
          "velocity": 0.3937007874015748,
          "duration": 0.3550290000000018
        },
        {
          "name": "F#3",
          "midi": 54,
          "time": 56.44961100000019,
          "velocity": 0.3937007874015748,
          "duration": 0.3550290000000018
        },
        {
          "name": "E4",
          "midi": 64,
          "time": 56.80464000000019,
          "velocity": 0.3937007874015748,
          "duration": 1.3313587500000068
        },
        {
          "name": "E2",
          "midi": 40,
          "time": 56.80464000000019,
          "velocity": 0.3937007874015748,
          "duration": 0.5325435000000027
        },
        {
          "name": "C#4",
          "midi": 61,
          "time": 56.80464000000019,
          "velocity": 0.3937007874015748,
          "duration": 1.3313587500000068
        },
        {
          "name": "A#3",
          "midi": 58,
          "time": 56.80464000000019,
          "velocity": 0.3937007874015748,
          "duration": 3.90531900000002
        },
        {
          "name": "E3",
          "midi": 52,
          "time": 57.337183500000194,
          "velocity": 0.3937007874015748,
          "duration": 0.5325435000000027
        },
        {
          "name": "G#3",
          "midi": 56,
          "time": 57.337183500000194,
          "velocity": 0.3937007874015748,
          "duration": 0.8875725000000045
        },
        {
          "name": "B3",
          "midi": 59,
          "time": 57.337183500000194,
          "velocity": 0.3937007874015748,
          "duration": 0.8875725000000045
        },
        {
          "name": "G#3",
          "midi": 56,
          "time": 57.869727000000196,
          "velocity": 0.3937007874015748,
          "duration": 1.4201160000000073
        },
        {
          "name": "E3",
          "midi": 52,
          "time": 57.869727000000196,
          "velocity": 0.3937007874015748,
          "duration": 0.3550290000000018
        },
        {
          "name": "B3",
          "midi": 59,
          "time": 57.869727000000196,
          "velocity": 0.3937007874015748,
          "duration": 1.4201160000000073
        },
        {
          "name": "C#4",
          "midi": 61,
          "time": 58.2247560000002,
          "velocity": 0.3937007874015748,
          "duration": 0.7100580000000036
        },
        {
          "name": "E4",
          "midi": 64,
          "time": 58.2247560000002,
          "velocity": 0.3937007874015748,
          "duration": 0.7100580000000036
        },
        {
          "name": "E2",
          "midi": 40,
          "time": 58.2247560000002,
          "velocity": 0.3937007874015748,
          "duration": 0.5325435000000027
        },
        {
          "name": "G#3",
          "midi": 56,
          "time": 58.7572995000002,
          "velocity": 0.3937007874015748,
          "duration": 0.8875725000000045
        },
        {
          "name": "E3",
          "midi": 52,
          "time": 58.7572995000002,
          "velocity": 0.3937007874015748,
          "duration": 0.5325435000000027
        },
        {
          "name": "B3",
          "midi": 59,
          "time": 58.7572995000002,
          "velocity": 0.3937007874015748,
          "duration": 0.8875725000000045
        },
        {
          "name": "F#4",
          "midi": 66,
          "time": 58.9348140000002,
          "velocity": 0.3937007874015748,
          "duration": 0.3550290000000018
        },
        {
          "name": "D#4",
          "midi": 63,
          "time": 58.9348140000002,
          "velocity": 0.3937007874015748,
          "duration": 0.3550290000000018
        },
        {
          "name": "B3",
          "midi": 59,
          "time": 59.289843000000204,
          "velocity": 0.3937007874015748,
          "duration": 0.7100580000000036
        },
        {
          "name": "E4",
          "midi": 64,
          "time": 59.289843000000204,
          "velocity": 0.3937007874015748,
          "duration": 0.3550290000000018
        },
        {
          "name": "G#3",
          "midi": 56,
          "time": 59.289843000000204,
          "velocity": 0.3937007874015748,
          "duration": 0.7100580000000036
        },
        {
          "name": "C#4",
          "midi": 61,
          "time": 59.289843000000204,
          "velocity": 0.3937007874015748,
          "duration": 0.3550290000000018
        },
        {
          "name": "E3",
          "midi": 52,
          "time": 59.289843000000204,
          "velocity": 0.3937007874015748,
          "duration": 0.3550290000000018
        },
        {
          "name": "D#2",
          "midi": 39,
          "time": 59.644872000000206,
          "velocity": 0.3937007874015748,
          "duration": 0.5325435000000027
        },
        {
          "name": "B3",
          "midi": 59,
          "time": 59.644872000000206,
          "velocity": 0.3937007874015748,
          "duration": 4.171590750000014
        },
        {
          "name": "G#3",
          "midi": 56,
          "time": 59.644872000000206,
          "velocity": 0.3937007874015748,
          "duration": 4.171590750000014
        },
        {
          "name": "D#4",
          "midi": 63,
          "time": 59.644872000000206,
          "velocity": 0.3937007874015748,
          "duration": 0.3550290000000018
        },
        {
          "name": "D#5",
          "midi": 75,
          "time": 59.99990100000021,
          "velocity": 0.3937007874015748,
          "duration": 0.3550290000000018
        },
        {
          "name": "D#3",
          "midi": 51,
          "time": 60.17741550000021,
          "velocity": 0.3937007874015748,
          "duration": 0.5325435000000027
        },
        {
          "name": "F#3",
          "midi": 54,
          "time": 60.17741550000021,
          "velocity": 0.3937007874015748,
          "duration": 0.5325435000000027
        },
        {
          "name": "A#3",
          "midi": 58,
          "time": 60.17741550000021,
          "velocity": 0.3937007874015748,
          "duration": 0.8875725000000045
        },
        {
          "name": "A#3",
          "midi": 58,
          "time": 60.70995900000021,
          "velocity": 0.3937007874015748,
          "duration": 1.6863877500000015
        },
        {
          "name": "F#3",
          "midi": 54,
          "time": 60.70995900000021,
          "velocity": 0.3937007874015748,
          "duration": 0.3550290000000018
        },
        {
          "name": "D#5",
          "midi": 75,
          "time": 60.70995900000021,
          "velocity": 0.3937007874015748,
          "duration": 0.3550290000000018
        },
        {
          "name": "D#3",
          "midi": 51,
          "time": 60.70995900000021,
          "velocity": 0.3937007874015748,
          "duration": 0.3550290000000018
        },
        {
          "name": "A#3",
          "midi": 58,
          "time": 61.06498800000021,
          "velocity": 0.3937007874015748,
          "duration": 5.591706750000014
        },
        {
          "name": "F#3",
          "midi": 54,
          "time": 61.06498800000021,
          "velocity": 0.3937007874015748,
          "duration": 1.3313587499999997
        },
        {
          "name": "D#3",
          "midi": 51,
          "time": 61.06498800000021,
          "velocity": 0.3937007874015748,
          "duration": 1.3313587499999997
        },
        {
          "name": "G#4",
          "midi": 68,
          "time": 61.95256050000021,
          "velocity": 0.3937007874015748,
          "duration": 0.1775145000000009
        },
        {
          "name": "G#4",
          "midi": 68,
          "time": 62.13007500000021,
          "velocity": 0.3937007874015748,
          "duration": 0.1775145000000009
        },
        {
          "name": "G#4",
          "midi": 68,
          "time": 62.30758950000021,
          "velocity": 0.3937007874015748,
          "duration": 0.1775145000000009
        },
        {
          "name": "E3",
          "midi": 52,
          "time": 62.48510400000021,
          "velocity": 0.3937007874015748,
          "duration": 1.3313587500000068
        },
        {
          "name": "G#3",
          "midi": 56,
          "time": 62.48510400000021,
          "velocity": 0.3937007874015748,
          "duration": 2.751474750000007
        },
        {
          "name": "D#5",
          "midi": 75,
          "time": 62.48510400000021,
          "velocity": 0.3937007874015748,
          "duration": 0.1775145000000009
        },
        {
          "name": "B3",
          "midi": 59,
          "time": 62.48510400000021,
          "velocity": 0.3937007874015748,
          "duration": 2.751474750000007
        },
        {
          "name": "D#5",
          "midi": 75,
          "time": 62.662618500000214,
          "velocity": 0.3937007874015748,
          "duration": 0.3550290000000018
        },
        {
          "name": "B4",
          "midi": 71,
          "time": 63.017647500000216,
          "velocity": 0.3937007874015748,
          "duration": 0.1775145000000009
        },
        {
          "name": "C#5",
          "midi": 73,
          "time": 63.19516200000022,
          "velocity": 0.3937007874015748,
          "duration": 0.3550290000000018
        },
        {
          "name": "G#4",
          "midi": 68,
          "time": 63.55019100000022,
          "velocity": 0.3937007874015748,
          "duration": 0.5325434999999956
        },
        {
          "name": "B3",
          "midi": 59,
          "time": 63.90522000000022,
          "velocity": 0.3937007874015748,
          "duration": 5.5917067500000215
        },
        {
          "name": "E3",
          "midi": 52,
          "time": 63.90522000000022,
          "velocity": 0.3937007874015748,
          "duration": 1.3313587499999997
        },
        {
          "name": "G#3",
          "midi": 56,
          "time": 63.90522000000022,
          "velocity": 0.3937007874015748,
          "duration": 5.5917067500000215
        },
        {
          "name": "G#4",
          "midi": 68,
          "time": 64.08273450000021,
          "velocity": 0.3937007874015748,
          "duration": 0.1775145000000009
        },
        {
          "name": "G#4",
          "midi": 68,
          "time": 64.26024900000021,
          "velocity": 0.3937007874015748,
          "duration": 0.1775145000000009
        },
        {
          "name": "G#4",
          "midi": 68,
          "time": 64.43776350000022,
          "velocity": 0.3937007874015748,
          "duration": 0.1775145000000009
        },
        {
          "name": "D#5",
          "midi": 75,
          "time": 64.61527800000022,
          "velocity": 0.3937007874015748,
          "duration": 0.1775145000000009
        },
        {
          "name": "D#5",
          "midi": 75,
          "time": 64.79279250000022,
          "velocity": 0.3937007874015748,
          "duration": 0.3550290000000018
        },
        {
          "name": "B4",
          "midi": 71,
          "time": 65.14782150000022,
          "velocity": 0.3937007874015748,
          "duration": 0.1775145000000009
        },
        {
          "name": "A#3",
          "midi": 58,
          "time": 65.32533600000022,
          "velocity": 0.3937007874015748,
          "duration": 2.751474750000014
        },
        {
          "name": "D#5",
          "midi": 75,
          "time": 65.32533600000022,
          "velocity": 0.3937007874015748,
          "duration": 0.1775145000000009
        },
        {
          "name": "F#3",
          "midi": 54,
          "time": 65.32533600000022,
          "velocity": 0.3937007874015748,
          "duration": 1.3313587500000068
        },
        {
          "name": "D#3",
          "midi": 51,
          "time": 65.32533600000022,
          "velocity": 0.3937007874015748,
          "duration": 1.3313587500000068
        },
        {
          "name": "D#5",
          "midi": 75,
          "time": 65.50285050000022,
          "velocity": 0.3937007874015748,
          "duration": 0.3550290000000018
        },
        {
          "name": "B4",
          "midi": 71,
          "time": 65.85787950000022,
          "velocity": 0.3937007874015748,
          "duration": 0.1775145000000009
        },
        {
          "name": "C#5",
          "midi": 73,
          "time": 66.03539400000022,
          "velocity": 0.3937007874015748,
          "duration": 0.3550290000000018
        },
        {
          "name": "G#4",
          "midi": 68,
          "time": 66.39042300000023,
          "velocity": 0.3937007874015748,
          "duration": 0.5325435000000027
        },
        {
          "name": "F#3",
          "midi": 54,
          "time": 66.74545200000023,
          "velocity": 0.3937007874015748,
          "duration": 1.3313587500000068
        },
        {
          "name": "A#3",
          "midi": 58,
          "time": 66.74545200000023,
          "velocity": 0.3937007874015748,
          "duration": 4.615377000000024
        },
        {
          "name": "D#3",
          "midi": 51,
          "time": 66.74545200000023,
          "velocity": 0.3937007874015748,
          "duration": 1.3313587500000068
        },
        {
          "name": "G#4",
          "midi": 68,
          "time": 66.92296650000023,
          "velocity": 0.3937007874015748,
          "duration": 0.1775145000000009
        },
        {
          "name": "G#4",
          "midi": 68,
          "time": 67.10048100000023,
          "velocity": 0.3937007874015748,
          "duration": 0.1775145000000009
        },
        {
          "name": "G#4",
          "midi": 68,
          "time": 67.27799550000023,
          "velocity": 0.3937007874015748,
          "duration": 0.1775145000000009
        },
        {
          "name": "D#5",
          "midi": 75,
          "time": 67.45551000000023,
          "velocity": 0.3937007874015748,
          "duration": 0.1775145000000009
        },
        {
          "name": "D#5",
          "midi": 75,
          "time": 67.63302450000023,
          "velocity": 0.3937007874015748,
          "duration": 0.3550290000000018
        },
        {
          "name": "D#5",
          "midi": 75,
          "time": 67.98805350000023,
          "velocity": 0.3937007874015748,
          "duration": 0.1775145000000009
        },
        {
          "name": "E3",
          "midi": 52,
          "time": 68.16556800000023,
          "velocity": 0.3937007874015748,
          "duration": 1.3313587500000068
        },
        {
          "name": "G#3",
          "midi": 56,
          "time": 68.16556800000023,
          "velocity": 0.3937007874015748,
          "duration": 2.751474750000014
        },
        {
          "name": "B3",
          "midi": 59,
          "time": 68.16556800000023,
          "velocity": 0.3937007874015748,
          "duration": 2.751474750000014
        },
        {
          "name": "F#5",
          "midi": 78,
          "time": 68.16556800000023,
          "velocity": 0.3937007874015748,
          "duration": 0.1775145000000009
        },
        {
          "name": "E5",
          "midi": 76,
          "time": 68.34308250000024,
          "velocity": 0.3937007874015748,
          "duration": 0.3550290000000018
        },
        {
          "name": "D#5",
          "midi": 75,
          "time": 68.69811150000024,
          "velocity": 0.3937007874015748,
          "duration": 0.1775145000000009
        },
        {
          "name": "D#5",
          "midi": 75,
          "time": 68.87562600000024,
          "velocity": 0.3937007874015748,
          "duration": 0.3550290000000018
        },
        {
          "name": "C#5",
          "midi": 73,
          "time": 69.23065500000024,
          "velocity": 0.3937007874015748,
          "duration": 0.5325435000000027
        },
        {
          "name": "B3",
          "midi": 59,
          "time": 69.58568400000024,
          "velocity": 0.3937007874015748,
          "duration": 4.615377000000024
        },
        {
          "name": "G#3",
          "midi": 56,
          "time": 69.58568400000024,
          "velocity": 0.3937007874015748,
          "duration": 5.325435000000027
        },
        {
          "name": "E3",
          "midi": 52,
          "time": 69.58568400000024,
          "velocity": 0.3937007874015748,
          "duration": 1.3313587500000068
        },
        {
          "name": "G#4",
          "midi": 68,
          "time": 69.76319850000024,
          "velocity": 0.3937007874015748,
          "duration": 0.1775145000000009
        },
        {
          "name": "G#4",
          "midi": 68,
          "time": 69.94071300000024,
          "velocity": 0.3937007874015748,
          "duration": 0.1775145000000009
        },
        {
          "name": "G#4",
          "midi": 68,
          "time": 70.11822750000024,
          "velocity": 0.3937007874015748,
          "duration": 0.1775145000000009
        },
        {
          "name": "D#5",
          "midi": 75,
          "time": 70.29574200000025,
          "velocity": 0.3937007874015748,
          "duration": 0.1775145000000009
        },
        {
          "name": "D#5",
          "midi": 75,
          "time": 70.47325650000025,
          "velocity": 0.3937007874015748,
          "duration": 0.3550290000000018
        },
        {
          "name": "D#5",
          "midi": 75,
          "time": 70.82828550000025,
          "velocity": 0.3937007874015748,
          "duration": 0.1775145000000009
        },
        {
          "name": "F#5",
          "midi": 78,
          "time": 71.00580000000025,
          "velocity": 0.3937007874015748,
          "duration": 0.1775145000000009
        },
        {
          "name": "D#3",
          "midi": 51,
          "time": 71.00580000000025,
          "velocity": 0.3937007874015748,
          "duration": 0.1775145000000009
        },
        {
          "name": "A#3",
          "midi": 58,
          "time": 71.18331450000025,
          "velocity": 0.3937007874015748,
          "duration": 0.5325435000000027
        },
        {
          "name": "F#3",
          "midi": 54,
          "time": 71.18331450000025,
          "velocity": 0.3937007874015748,
          "duration": 0.1775145000000009
        },
        {
          "name": "E5",
          "midi": 76,
          "time": 71.18331450000025,
          "velocity": 0.3937007874015748,
          "duration": 0.3550290000000018
        },
        {
          "name": "D#3",
          "midi": 51,
          "time": 71.36082900000025,
          "velocity": 0.3937007874015748,
          "duration": 0.1775145000000009
        },
        {
          "name": "A#3",
          "midi": 58,
          "time": 71.53834350000025,
          "velocity": 0.3937007874015748,
          "duration": 0.5325435000000027
        },
        {
          "name": "D#5",
          "midi": 75,
          "time": 71.53834350000025,
          "velocity": 0.3937007874015748,
          "duration": 0.1775145000000009
        },
        {
          "name": "F#3",
          "midi": 54,
          "time": 71.53834350000025,
          "velocity": 0.3937007874015748,
          "duration": 0.1775145000000009
        },
        {
          "name": "D#3",
          "midi": 51,
          "time": 71.71585800000025,
          "velocity": 0.3937007874015748,
          "duration": 0.1775145000000009
        },
        {
          "name": "D#5",
          "midi": 75,
          "time": 71.71585800000025,
          "velocity": 0.3937007874015748,
          "duration": 0.3550290000000018
        },
        {
          "name": "F#3",
          "midi": 54,
          "time": 71.89337250000025,
          "velocity": 0.3937007874015748,
          "duration": 0.1775145000000009
        },
        {
          "name": "A#3",
          "midi": 58,
          "time": 71.89337250000025,
          "velocity": 0.3937007874015748,
          "duration": 0.5325435000000027
        },
        {
          "name": "D#3",
          "midi": 51,
          "time": 72.07088700000025,
          "velocity": 0.3937007874015748,
          "duration": 0.1775145000000009
        },
        {
          "name": "C#5",
          "midi": 73,
          "time": 72.07088700000025,
          "velocity": 0.3937007874015748,
          "duration": 0.3550290000000018
        },
        {
          "name": "A#3",
          "midi": 58,
          "time": 72.24840150000026,
          "velocity": 0.3937007874015748,
          "duration": 1.2426015000000064
        },
        {
          "name": "F#3",
          "midi": 54,
          "time": 72.24840150000026,
          "velocity": 0.3937007874015748,
          "duration": 0.1775145000000009
        },
        {
          "name": "D#2",
          "midi": 39,
          "time": 72.42591600000026,
          "velocity": 0.3937007874015748,
          "duration": 0.5325435000000027
        },
        {
          "name": "D#4",
          "midi": 63,
          "time": 72.42591600000026,
          "velocity": 0.3937007874015748,
          "duration": 0.5325435000000027
        },
        {
          "name": "A#3",
          "midi": 58,
          "time": 72.95845950000026,
          "velocity": 0.3937007874015748,
          "duration": 0.8875725000000045
        },
        {
          "name": "C#4",
          "midi": 61,
          "time": 72.95845950000026,
          "velocity": 0.3937007874015748,
          "duration": 0.5325435000000027
        },
        {
          "name": "F#3",
          "midi": 54,
          "time": 72.95845950000026,
          "velocity": 0.3937007874015748,
          "duration": 0.5325435000000027
        },
        {
          "name": "D#3",
          "midi": 51,
          "time": 72.95845950000026,
          "velocity": 0.3937007874015748,
          "duration": 0.5325435000000027
        },
        {
          "name": "B3",
          "midi": 59,
          "time": 73.49100300000026,
          "velocity": 0.3937007874015748,
          "duration": 1.4201160000000073
        },
        {
          "name": "F#3",
          "midi": 54,
          "time": 73.49100300000026,
          "velocity": 0.3937007874015748,
          "duration": 0.3550290000000018
        },
        {
          "name": "A#3",
          "midi": 58,
          "time": 73.49100300000026,
          "velocity": 0.3937007874015748,
          "duration": 4.260348000000022
        },
        {
          "name": "D#3",
          "midi": 51,
          "time": 73.49100300000026,
          "velocity": 0.3937007874015748,
          "duration": 0.3550290000000018
        },
        {
          "name": "E2",
          "midi": 40,
          "time": 73.84603200000026,
          "velocity": 0.3937007874015748,
          "duration": 0.5325435000000027
        },
        {
          "name": "D#4",
          "midi": 63,
          "time": 74.20106100000027,
          "velocity": 0.3937007874015748,
          "duration": 0.1775145000000009
        },
        {
          "name": "E3",
          "midi": 52,
          "time": 74.37857550000027,
          "velocity": 0.3937007874015748,
          "duration": 0.5325435000000027
        },
        {
          "name": "G#3",
          "midi": 56,
          "time": 74.37857550000027,
          "velocity": 0.3937007874015748,
          "duration": 0.8875725000000045
        },
        {
          "name": "D#4",
          "midi": 63,
          "time": 74.37857550000027,
          "velocity": 0.3937007874015748,
          "duration": 0.5325435000000027
        },
        {
          "name": "B3",
          "midi": 59,
          "time": 74.37857550000027,
          "velocity": 0.3937007874015748,
          "duration": 0.5325435000000027
        },
        {
          "name": "G#3",
          "midi": 56,
          "time": 74.91111900000027,
          "velocity": 0.3937007874015748,
          "duration": 1.4201160000000073
        },
        {
          "name": "B3",
          "midi": 59,
          "time": 74.91111900000027,
          "velocity": 0.3937007874015748,
          "duration": 0.3550290000000018
        },
        {
          "name": "B3",
          "midi": 59,
          "time": 74.91111900000027,
          "velocity": 0.3937007874015748,
          "duration": 1.2426015000000064
        },
        {
          "name": "E3",
          "midi": 52,
          "time": 74.91111900000027,
          "velocity": 0.3937007874015748,
          "duration": 0.3550290000000018
        },
        {
          "name": "C#4",
          "midi": 61,
          "time": 75.08863350000027,
          "velocity": 0.3937007874015748,
          "duration": 0.3550290000000018
        },
        {
          "name": "E2",
          "midi": 40,
          "time": 75.26614800000027,
          "velocity": 0.3937007874015748,
          "duration": 0.5325435000000027
        },
        {
          "name": "C#4",
          "midi": 61,
          "time": 75.44366250000027,
          "velocity": 0.3937007874015748,
          "duration": 0.1775145000000009
        },
        {
          "name": "D#4",
          "midi": 63,
          "time": 75.62117700000027,
          "velocity": 0.3937007874015748,
          "duration": 0.1775145000000009
        },
        {
          "name": "G#3",
          "midi": 56,
          "time": 75.79869150000027,
          "velocity": 0.3937007874015748,
          "duration": 0.8875725000000045
        },
        {
          "name": "C#4",
          "midi": 61,
          "time": 75.79869150000027,
          "velocity": 0.3937007874015748,
          "duration": 0.3550290000000018
        },
        {
          "name": "E3",
          "midi": 52,
          "time": 75.79869150000027,
          "velocity": 0.3937007874015748,
          "duration": 0.5325435000000027
        },
        {
          "name": "B3",
          "midi": 59,
          "time": 75.79869150000027,
          "velocity": 0.3937007874015748,
          "duration": 0.5325435000000027
        },
        {
          "name": "B3",
          "midi": 59,
          "time": 76.15372050000028,
          "velocity": 0.3937007874015748,
          "duration": 0.1775145000000009
        },
        {
          "name": "B3",
          "midi": 59,
          "time": 76.33123500000028,
          "velocity": 0.3937007874015748,
          "duration": 0.3550290000000018
        },
        {
          "name": "G#3",
          "midi": 56,
          "time": 76.33123500000028,
          "velocity": 0.3937007874015748,
          "duration": 4.260348000000022
        },
        {
          "name": "E3",
          "midi": 52,
          "time": 76.33123500000028,
          "velocity": 0.3937007874015748,
          "duration": 0.3550290000000018
        },
        {
          "name": "B3",
          "midi": 59,
          "time": 76.33123500000028,
          "velocity": 0.3937007874015748,
          "duration": 1.5976305000000082
        },
        {
          "name": "C#4",
          "midi": 61,
          "time": 76.50874950000028,
          "velocity": 0.3937007874015748,
          "duration": 0.1775145000000009
        },
        {
          "name": "C#4",
          "midi": 61,
          "time": 76.68626400000028,
          "velocity": 0.3937007874015748,
          "duration": 0.1775145000000009
        },
        {
          "name": "D#2",
          "midi": 39,
          "time": 76.68626400000028,
          "velocity": 0.3937007874015748,
          "duration": 0.5325435000000027
        },
        {
          "name": "C#4",
          "midi": 61,
          "time": 76.86377850000028,
          "velocity": 0.3937007874015748,
          "duration": 0.1775145000000009
        },
        {
          "name": "D#4",
          "midi": 63,
          "time": 77.04129300000028,
          "velocity": 0.3937007874015748,
          "duration": 0.1775145000000009
        },
        {
          "name": "A#3",
          "midi": 58,
          "time": 77.21880750000028,
          "velocity": 0.3937007874015748,
          "duration": 0.8875725000000045
        },
        {
          "name": "D#4",
          "midi": 63,
          "time": 77.21880750000028,
          "velocity": 0.3937007874015748,
          "duration": 0.5325435000000027
        },
        {
          "name": "D#3",
          "midi": 51,
          "time": 77.21880750000028,
          "velocity": 0.3937007874015748,
          "duration": 0.5325435000000027
        },
        {
          "name": "F#3",
          "midi": 54,
          "time": 77.21880750000028,
          "velocity": 0.3937007874015748,
          "duration": 0.5325435000000027
        },
        {
          "name": "A#3",
          "midi": 58,
          "time": 77.75135100000028,
          "velocity": 0.3937007874015748,
          "duration": 1.4201160000000073
        },
        {
          "name": "B3",
          "midi": 59,
          "time": 77.75135100000028,
          "velocity": 0.3937007874015748,
          "duration": 1.4201160000000073
        },
        {
          "name": "D#3",
          "midi": 51,
          "time": 77.75135100000028,
          "velocity": 0.3937007874015748,
          "duration": 0.3550290000000018
        },
        {
          "name": "F#3",
          "midi": 54,
          "time": 77.75135100000028,
          "velocity": 0.3937007874015748,
          "duration": 0.3550290000000018
        },
        {
          "name": "C#4",
          "midi": 61,
          "time": 77.92886550000028,
          "velocity": 0.3937007874015748,
          "duration": 0.1775145000000009
        },
        {
          "name": "D#2",
          "midi": 39,
          "time": 78.10638000000029,
          "velocity": 0.3937007874015748,
          "duration": 0.5325435000000027
        },
        {
          "name": "C#4",
          "midi": 61,
          "time": 78.10638000000029,
          "velocity": 0.3937007874015748,
          "duration": 0.1775145000000009
        },
        {
          "name": "C#4",
          "midi": 61,
          "time": 78.28389450000029,
          "velocity": 0.3937007874015748,
          "duration": 0.1775145000000009
        },
        {
          "name": "D#4",
          "midi": 63,
          "time": 78.46140900000029,
          "velocity": 0.3937007874015748,
          "duration": 0.1775145000000009
        },
        {
          "name": "F#3",
          "midi": 54,
          "time": 78.63892350000029,
          "velocity": 0.3937007874015748,
          "duration": 0.5325435000000027
        },
        {
          "name": "D#3",
          "midi": 51,
          "time": 78.63892350000029,
          "velocity": 0.3937007874015748,
          "duration": 0.5325435000000027
        },
        {
          "name": "A#3",
          "midi": 58,
          "time": 78.63892350000029,
          "velocity": 0.3937007874015748,
          "duration": 0.8875725000000045
        },
        {
          "name": "C#4",
          "midi": 61,
          "time": 78.63892350000029,
          "velocity": 0.3937007874015748,
          "duration": 0.1775145000000009
        },
        {
          "name": "C#4",
          "midi": 61,
          "time": 78.81643800000029,
          "velocity": 0.3937007874015748,
          "duration": 0.1775145000000009
        },
        {
          "name": "B3",
          "midi": 59,
          "time": 78.99395250000029,
          "velocity": 0.3937007874015748,
          "duration": 0.3550290000000018
        },
        {
          "name": "F#3",
          "midi": 54,
          "time": 79.17146700000029,
          "velocity": 0.3937007874015748,
          "duration": 0.3550290000000018
        },
        {
          "name": "D#3",
          "midi": 51,
          "time": 79.17146700000029,
          "velocity": 0.3937007874015748,
          "duration": 0.3550290000000018
        },
        {
          "name": "B3",
          "midi": 59,
          "time": 79.17146700000029,
          "velocity": 0.3937007874015748,
          "duration": 1.2426015000000064
        },
        {
          "name": "A#3",
          "midi": 58,
          "time": 79.17146700000029,
          "velocity": 0.3937007874015748,
          "duration": 4.260348000000022
        },
        {
          "name": "C#4",
          "midi": 61,
          "time": 79.34898150000029,
          "velocity": 0.3937007874015748,
          "duration": 0.1775145000000009
        },
        {
          "name": "E2",
          "midi": 40,
          "time": 79.5264960000003,
          "velocity": 0.3937007874015748,
          "duration": 0.5325435000000027
        },
        {
          "name": "C#4",
          "midi": 61,
          "time": 79.5264960000003,
          "velocity": 0.3937007874015748,
          "duration": 0.1775145000000009
        },
        {
          "name": "D#4",
          "midi": 63,
          "time": 79.7040105000003,
          "velocity": 0.3937007874015748,
          "duration": 0.1775145000000009
        },
        {
          "name": "D#4",
          "midi": 63,
          "time": 79.8815250000003,
          "velocity": 0.3937007874015748,
          "duration": 0.1775145000000009
        },
        {
          "name": "E3",
          "midi": 52,
          "time": 80.0590395000003,
          "velocity": 0.3937007874015748,
          "duration": 0.5325435000000027
        },
        {
          "name": "B3",
          "midi": 59,
          "time": 80.0590395000003,
          "velocity": 0.3937007874015748,
          "duration": 0.5325435000000027
        },
        {
          "name": "G#3",
          "midi": 56,
          "time": 80.0590395000003,
          "velocity": 0.3937007874015748,
          "duration": 0.8875725000000045
        },
        {
          "name": "D#4",
          "midi": 63,
          "time": 80.0590395000003,
          "velocity": 0.3937007874015748,
          "duration": 0.1775145000000009
        },
        {
          "name": "D#4",
          "midi": 63,
          "time": 80.2365540000003,
          "velocity": 0.3937007874015748,
          "duration": 0.1775145000000009
        },
        {
          "name": "B3",
          "midi": 59,
          "time": 80.4140685000003,
          "velocity": 0.3937007874015748,
          "duration": 0.1775145000000009
        },
        {
          "name": "E3",
          "midi": 52,
          "time": 80.5915830000003,
          "velocity": 0.3937007874015748,
          "duration": 0.3550290000000018
        },
        {
          "name": "B3",
          "midi": 59,
          "time": 80.5915830000003,
          "velocity": 0.3937007874015748,
          "duration": 0.3550290000000018
        },
        {
          "name": "B3",
          "midi": 59,
          "time": 80.5915830000003,
          "velocity": 0.3937007874015748,
          "duration": 1.2426015000000064
        },
        {
          "name": "G#3",
          "midi": 56,
          "time": 80.5915830000003,
          "velocity": 0.3937007874015748,
          "duration": 1.4201160000000073
        },
        {
          "name": "C#4",
          "midi": 61,
          "time": 80.7690975000003,
          "velocity": 0.3937007874015748,
          "duration": 0.3550290000000018
        },
        {
          "name": "E2",
          "midi": 40,
          "time": 80.9466120000003,
          "velocity": 0.3937007874015748,
          "duration": 0.5325435000000027
        },
        {
          "name": "C#4",
          "midi": 61,
          "time": 81.1241265000003,
          "velocity": 0.3937007874015748,
          "duration": 0.1775145000000009
        },
        {
          "name": "D#4",
          "midi": 63,
          "time": 81.3016410000003,
          "velocity": 0.3937007874015748,
          "duration": 0.1775145000000009
        },
        {
          "name": "C#4",
          "midi": 61,
          "time": 81.4791555000003,
          "velocity": 0.3937007874015748,
          "duration": 0.3550290000000018
        },
        {
          "name": "G#3",
          "midi": 56,
          "time": 81.4791555000003,
          "velocity": 0.3937007874015748,
          "duration": 0.8875725000000045
        },
        {
          "name": "E3",
          "midi": 52,
          "time": 81.4791555000003,
          "velocity": 0.3937007874015748,
          "duration": 0.5325435000000027
        },
        {
          "name": "B3",
          "midi": 59,
          "time": 81.4791555000003,
          "velocity": 0.3937007874015748,
          "duration": 0.5325435000000027
        },
        {
          "name": "B3",
          "midi": 59,
          "time": 81.8341845000003,
          "velocity": 0.3937007874015748,
          "duration": 0.1775145000000009
        },
        {
          "name": "G#3",
          "midi": 56,
          "time": 82.0116990000003,
          "velocity": 0.3937007874015748,
          "duration": 4.260348000000022
        },
        {
          "name": "E3",
          "midi": 52,
          "time": 82.0116990000003,
          "velocity": 0.3937007874015748,
          "duration": 0.3550290000000018
        },
        {
          "name": "B3",
          "midi": 59,
          "time": 82.0116990000003,
          "velocity": 0.3937007874015748,
          "duration": 0.3550290000000018
        },
        {
          "name": "B3",
          "midi": 59,
          "time": 82.0116990000003,
          "velocity": 0.3937007874015748,
          "duration": 1.4201160000000073
        },
        {
          "name": "C#4",
          "midi": 61,
          "time": 82.1892135000003,
          "velocity": 0.3937007874015748,
          "duration": 0.3550290000000018
        },
        {
          "name": "D#2",
          "midi": 39,
          "time": 82.36672800000031,
          "velocity": 0.3937007874015748,
          "duration": 0.5325435000000027
        },
        {
          "name": "C#4",
          "midi": 61,
          "time": 82.54424250000031,
          "velocity": 0.3937007874015748,
          "duration": 0.1775145000000009
        },
        {
          "name": "D#4",
          "midi": 63,
          "time": 82.72175700000031,
          "velocity": 0.3937007874015748,
          "duration": 0.1775145000000009
        },
        {
          "name": "D#4",
          "midi": 63,
          "time": 82.89927150000031,
          "velocity": 0.3937007874015748,
          "duration": 0.3550290000000018
        },
        {
          "name": "A#3",
          "midi": 58,
          "time": 82.89927150000031,
          "velocity": 0.3937007874015748,
          "duration": 0.8875725000000045
        },
        {
          "name": "F#3",
          "midi": 54,
          "time": 82.89927150000031,
          "velocity": 0.3937007874015748,
          "duration": 0.5325435000000027
        },
        {
          "name": "D#3",
          "midi": 51,
          "time": 82.89927150000031,
          "velocity": 0.3937007874015748,
          "duration": 0.5325435000000027
        },
        {
          "name": "B3",
          "midi": 59,
          "time": 83.25430050000031,
          "velocity": 0.3937007874015748,
          "duration": 0.3550290000000018
        },
        {
          "name": "D#3",
          "midi": 51,
          "time": 83.43181500000031,
          "velocity": 0.3937007874015748,
          "duration": 0.3550290000000018
        },
        {
          "name": "F#3",
          "midi": 54,
          "time": 83.43181500000031,
          "velocity": 0.3937007874015748,
          "duration": 0.3550290000000018
        },
        {
          "name": "A#3",
          "midi": 58,
          "time": 83.43181500000031,
          "velocity": 0.3937007874015748,
          "duration": 1.4201160000000073
        },
        {
          "name": "B3",
          "midi": 59,
          "time": 83.43181500000031,
          "velocity": 0.3937007874015748,
          "duration": 2.8402320000000145
        },
        {
          "name": "C#4",
          "midi": 61,
          "time": 83.60932950000031,
          "velocity": 0.3937007874015748,
          "duration": 0.3550290000000018
        },
        {
          "name": "D#2",
          "midi": 39,
          "time": 83.78684400000031,
          "velocity": 0.3937007874015748,
          "duration": 0.5325435000000027
        },
        {
          "name": "D#4",
          "midi": 63,
          "time": 83.96435850000032,
          "velocity": 0.3937007874015748,
          "duration": 0.3550290000000018
        },
        {
          "name": "D#3",
          "midi": 51,
          "time": 84.31938750000032,
          "velocity": 0.3937007874015748,
          "duration": 0.5325435000000027
        },
        {
          "name": "C#4",
          "midi": 61,
          "time": 84.31938750000032,
          "velocity": 0.3937007874015748,
          "duration": 0.7100580000000036
        },
        {
          "name": "A#3",
          "midi": 58,
          "time": 84.31938750000032,
          "velocity": 0.3937007874015748,
          "duration": 0.8875725000000045
        },
        {
          "name": "F#3",
          "midi": 54,
          "time": 84.31938750000032,
          "velocity": 0.3937007874015748,
          "duration": 0.5325435000000027
        },
        {
          "name": "D#3",
          "midi": 51,
          "time": 84.85193100000032,
          "velocity": 0.3937007874015748,
          "duration": 0.3550290000000018
        },
        {
          "name": "F#3",
          "midi": 54,
          "time": 84.85193100000032,
          "velocity": 0.3937007874015748,
          "duration": 0.3550290000000018
        },
        {
          "name": "A#3",
          "midi": 58,
          "time": 84.85193100000032,
          "velocity": 0.3937007874015748,
          "duration": 4.260348000000022
        },
        {
          "name": "E2",
          "midi": 40,
          "time": 85.20696000000032,
          "velocity": 0.3937007874015748,
          "duration": 0.5325435000000027
        },
        {
          "name": "B4",
          "midi": 71,
          "time": 85.38447450000032,
          "velocity": 0.3937007874015748,
          "duration": 0.1775145000000009
        },
        {
          "name": "C#5",
          "midi": 73,
          "time": 85.56198900000032,
          "velocity": 0.3937007874015748,
          "duration": 0.1775145000000009
        },
        {
          "name": "E3",
          "midi": 52,
          "time": 85.73950350000032,
          "velocity": 0.3937007874015748,
          "duration": 0.5325435000000027
        },
        {
          "name": "G#3",
          "midi": 56,
          "time": 85.73950350000032,
          "velocity": 0.3937007874015748,
          "duration": 0.8875725000000045
        },
        {
          "name": "B3",
          "midi": 59,
          "time": 85.73950350000032,
          "velocity": 0.3937007874015748,
          "duration": 0.8875725000000045
        },
        {
          "name": "B4",
          "midi": 71,
          "time": 85.73950350000032,
          "velocity": 0.3937007874015748,
          "duration": 0.1775145000000009
        },
        {
          "name": "C#5",
          "midi": 73,
          "time": 85.91701800000033,
          "velocity": 0.3937007874015748,
          "duration": 0.1775145000000009
        },
        {
          "name": "B4",
          "midi": 71,
          "time": 86.09453250000033,
          "velocity": 0.3937007874015748,
          "duration": 0.1775145000000009
        },
        {
          "name": "G#3",
          "midi": 56,
          "time": 86.27204700000033,
          "velocity": 0.3937007874015748,
          "duration": 1.4201160000000073
        },
        {
          "name": "B3",
          "midi": 59,
          "time": 86.27204700000033,
          "velocity": 0.3937007874015748,
          "duration": 1.4201160000000073
        },
        {
          "name": "C#5",
          "midi": 73,
          "time": 86.27204700000033,
          "velocity": 0.3937007874015748,
          "duration": 0.1775145000000009
        },
        {
          "name": "E3",
          "midi": 52,
          "time": 86.27204700000033,
          "velocity": 0.3937007874015748,
          "duration": 0.3550290000000018
        },
        {
          "name": "B4",
          "midi": 71,
          "time": 86.44956150000033,
          "velocity": 0.3937007874015748,
          "duration": 0.1775145000000009
        },
        {
          "name": "E2",
          "midi": 40,
          "time": 86.62707600000033,
          "velocity": 0.3937007874015748,
          "duration": 0.5325435000000027
        },
        {
          "name": "C#5",
          "midi": 73,
          "time": 86.62707600000033,
          "velocity": 0.3937007874015748,
          "duration": 0.3550290000000018
        },
        {
          "name": "D#5",
          "midi": 75,
          "time": 86.98210500000033,
          "velocity": 0.3937007874015748,
          "duration": 0.3550290000000018
        },
        {
          "name": "B3",
          "midi": 59,
          "time": 87.15961950000033,
          "velocity": 0.3937007874015748,
          "duration": 0.8875725000000045
        },
        {
          "name": "G#3",
          "midi": 56,
          "time": 87.15961950000033,
          "velocity": 0.3937007874015748,
          "duration": 0.8875725000000045
        },
        {
          "name": "E3",
          "midi": 52,
          "time": 87.15961950000033,
          "velocity": 0.3937007874015748,
          "duration": 0.5325435000000027
        },
        {
          "name": "C#5",
          "midi": 73,
          "time": 87.33713400000033,
          "velocity": 0.3937007874015748,
          "duration": 0.7100580000000036
        },
        {
          "name": "G#3",
          "midi": 56,
          "time": 87.69216300000033,
          "velocity": 0.3937007874015748,
          "duration": 4.260348000000022
        },
        {
          "name": "B3",
          "midi": 59,
          "time": 87.69216300000033,
          "velocity": 0.3937007874015748,
          "duration": 4.260348000000022
        },
        {
          "name": "E3",
          "midi": 52,
          "time": 87.69216300000033,
          "velocity": 0.3937007874015748,
          "duration": 0.3550290000000018
        },
        {
          "name": "C#5",
          "midi": 73,
          "time": 88.04719200000034,
          "velocity": 0.3937007874015748,
          "duration": 0.1775145000000009
        },
        {
          "name": "D#2",
          "midi": 39,
          "time": 88.04719200000034,
          "velocity": 0.3937007874015748,
          "duration": 0.5325435000000027
        },
        {
          "name": "B4",
          "midi": 71,
          "time": 88.22470650000034,
          "velocity": 0.3937007874015748,
          "duration": 0.1775145000000009
        },
        {
          "name": "C#5",
          "midi": 73,
          "time": 88.40222100000034,
          "velocity": 0.3937007874015748,
          "duration": 0.1775145000000009
        },
        {
          "name": "B4",
          "midi": 71,
          "time": 88.57973550000034,
          "velocity": 0.3937007874015748,
          "duration": 0.1775145000000009
        },
        {
          "name": "F#3",
          "midi": 54,
          "time": 88.57973550000034,
          "velocity": 0.3937007874015748,
          "duration": 0.5325435000000027
        },
        {
          "name": "A#3",
          "midi": 58,
          "time": 88.57973550000034,
          "velocity": 0.3937007874015748,
          "duration": 0.8875725000000045
        },
        {
          "name": "D#3",
          "midi": 51,
          "time": 88.57973550000034,
          "velocity": 0.3937007874015748,
          "duration": 0.5325435000000027
        },
        {
          "name": "C#5",
          "midi": 73,
          "time": 88.75725000000034,
          "velocity": 0.3937007874015748,
          "duration": 0.1775145000000009
        },
        {
          "name": "B4",
          "midi": 71,
          "time": 88.93476450000034,
          "velocity": 0.3937007874015748,
          "duration": 0.1775145000000009
        },
        {
          "name": "F#3",
          "midi": 54,
          "time": 89.11227900000034,
          "velocity": 0.3937007874015748,
          "duration": 0.3550290000000018
        },
        {
          "name": "C#5",
          "midi": 73,
          "time": 89.11227900000034,
          "velocity": 0.3937007874015748,
          "duration": 0.1775145000000009
        },
        {
          "name": "A#3",
          "midi": 58,
          "time": 89.11227900000034,
          "velocity": 0.3937007874015748,
          "duration": 1.4201160000000073
        },
        {
          "name": "D#3",
          "midi": 51,
          "time": 89.11227900000034,
          "velocity": 0.3937007874015748,
          "duration": 0.3550290000000018
        },
        {
          "name": "B4",
          "midi": 71,
          "time": 89.28979350000034,
          "velocity": 0.3937007874015748,
          "duration": 0.1775145000000009
        },
        {
          "name": "C#5",
          "midi": 73,
          "time": 89.46730800000034,
          "velocity": 0.3937007874015748,
          "duration": 0.3550290000000018
        },
        {
          "name": "D#2",
          "midi": 39,
          "time": 89.46730800000034,
          "velocity": 0.3937007874015748,
          "duration": 0.5325435000000027
        },
        {
          "name": "D#5",
          "midi": 75,
          "time": 89.82233700000035,
          "velocity": 0.3937007874015748,
          "duration": 0.3550290000000018
        },
        {
          "name": "D#3",
          "midi": 51,
          "time": 89.99985150000035,
          "velocity": 0.3937007874015748,
          "duration": 0.5325435000000027
        },
        {
          "name": "F#3",
          "midi": 54,
          "time": 89.99985150000035,
          "velocity": 0.3937007874015748,
          "duration": 0.5325435000000027
        },
        {
          "name": "A#3",
          "midi": 58,
          "time": 89.99985150000035,
          "velocity": 0.3937007874015748,
          "duration": 0.8875725000000045
        },
        {
          "name": "C#5",
          "midi": 73,
          "time": 90.17736600000035,
          "velocity": 0.3937007874015748,
          "duration": 0.7100580000000036
        },
        {
          "name": "A#3",
          "midi": 58,
          "time": 90.53239500000035,
          "velocity": 0.3937007874015748,
          "duration": 5.680464000000029
        },
        {
          "name": "F#3",
          "midi": 54,
          "time": 90.53239500000035,
          "velocity": 0.3937007874015748,
          "duration": 0.3550290000000018
        },
        {
          "name": "D#3",
          "midi": 51,
          "time": 90.53239500000035,
          "velocity": 0.3937007874015748,
          "duration": 0.3550290000000018
        },
        {
          "name": "E2",
          "midi": 40,
          "time": 90.88742400000035,
          "velocity": 0.3937007874015748,
          "duration": 0.5325435000000027
        },
        {
          "name": "B4",
          "midi": 71,
          "time": 91.06493850000035,
          "velocity": 0.3937007874015748,
          "duration": 0.1775145000000009
        },
        {
          "name": "C#5",
          "midi": 73,
          "time": 91.24245300000035,
          "velocity": 0.3937007874015748,
          "duration": 0.1775145000000009
        },
        {
          "name": "B3",
          "midi": 59,
          "time": 91.41996750000035,
          "velocity": 0.3937007874015748,
          "duration": 0.8875725000000045
        },
        {
          "name": "E3",
          "midi": 52,
          "time": 91.41996750000035,
          "velocity": 0.3937007874015748,
          "duration": 0.5325435000000027
        },
        {
          "name": "G#3",
          "midi": 56,
          "time": 91.41996750000035,
          "velocity": 0.3937007874015748,
          "duration": 0.8875725000000045
        },
        {
          "name": "B4",
          "midi": 71,
          "time": 91.41996750000035,
          "velocity": 0.3937007874015748,
          "duration": 0.1775145000000009
        },
        {
          "name": "C#5",
          "midi": 73,
          "time": 91.59748200000035,
          "velocity": 0.3937007874015748,
          "duration": 0.1775145000000009
        },
        {
          "name": "B4",
          "midi": 71,
          "time": 91.77499650000036,
          "velocity": 0.3937007874015748,
          "duration": 0.1775145000000009
        },
        {
          "name": "C#5",
          "midi": 73,
          "time": 91.95251100000036,
          "velocity": 0.3937007874015748,
          "duration": 0.1775145000000009
        },
        {
          "name": "E3",
          "midi": 52,
          "time": 91.95251100000036,
          "velocity": 0.3937007874015748,
          "duration": 0.3550290000000018
        },
        {
          "name": "G#3",
          "midi": 56,
          "time": 91.95251100000036,
          "velocity": 0.3937007874015748,
          "duration": 1.4201160000000073
        },
        {
          "name": "B3",
          "midi": 59,
          "time": 91.95251100000036,
          "velocity": 0.3937007874015748,
          "duration": 1.4201160000000073
        },
        {
          "name": "B4",
          "midi": 71,
          "time": 92.13002550000036,
          "velocity": 0.3937007874015748,
          "duration": 0.1775145000000009
        },
        {
          "name": "C#5",
          "midi": 73,
          "time": 92.30754000000036,
          "velocity": 0.3937007874015748,
          "duration": 0.3550290000000018
        },
        {
          "name": "E2",
          "midi": 40,
          "time": 92.30754000000036,
          "velocity": 0.3937007874015748,
          "duration": 0.5325435000000027
        },
        {
          "name": "G#4",
          "midi": 68,
          "time": 92.66256900000036,
          "velocity": 0.3937007874015748,
          "duration": 0.5325435000000027
        },
        {
          "name": "B3",
          "midi": 59,
          "time": 92.84008350000036,
          "velocity": 0.3937007874015748,
          "duration": 0.8875725000000045
        },
        {
          "name": "G#3",
          "midi": 56,
          "time": 92.84008350000036,
          "velocity": 0.3937007874015748,
          "duration": 0.8875725000000045
        },
        {
          "name": "E3",
          "midi": 52,
          "time": 92.84008350000036,
          "velocity": 0.3937007874015748,
          "duration": 0.5325435000000027
        },
        {
          "name": "G#4",
          "midi": 68,
          "time": 93.19511250000036,
          "velocity": 0.3937007874015748,
          "duration": 0.1775145000000009
        },
        {
          "name": "E4",
          "midi": 64,
          "time": 93.19511250000036,
          "velocity": 0.3937007874015748,
          "duration": 0.1775145000000009
        },
        {
          "name": "D#5",
          "midi": 75,
          "time": 93.37262700000036,
          "velocity": 0.3937007874015748,
          "duration": 0.7100580000000036
        },
        {
          "name": "E3",
          "midi": 52,
          "time": 93.37262700000036,
          "velocity": 0.3937007874015748,
          "duration": 0.3550290000000018
        },
        {
          "name": "B4",
          "midi": 71,
          "time": 93.37262700000036,
          "velocity": 0.3937007874015748,
          "duration": 0.7100580000000036
        },
        {
          "name": "B3",
          "midi": 59,
          "time": 93.37262700000036,
          "velocity": 0.3937007874015748,
          "duration": 4.260348000000022
        },
        {
          "name": "G#3",
          "midi": 56,
          "time": 93.37262700000036,
          "velocity": 0.3937007874015748,
          "duration": 4.260348000000022
        },
        {
          "name": "A#4",
          "midi": 70,
          "time": 94.08268500000037,
          "velocity": 0.3937007874015748,
          "duration": 0.976329750000005
        },
        {
          "name": "C#5",
          "midi": 73,
          "time": 94.08268500000037,
          "velocity": 0.3937007874015748,
          "duration": 0.976329750000005
        },
        {
          "name": "D#2",
          "midi": 39,
          "time": 95.14777200000037,
          "velocity": 0.3937007874015748,
          "duration": 0.5325435000000027
        },
        {
          "name": "G#5",
          "midi": 80,
          "time": 95.50280100000037,
          "velocity": 0.3937007874015748,
          "duration": 0.3550290000000018
        },
        {
          "name": "D#3",
          "midi": 51,
          "time": 95.68031550000038,
          "velocity": 0.3937007874015748,
          "duration": 0.5325435000000027
        },
        {
          "name": "F#3",
          "midi": 54,
          "time": 95.68031550000038,
          "velocity": 0.3937007874015748,
          "duration": 0.5325435000000027
        },
        {
          "name": "A#3",
          "midi": 58,
          "time": 95.68031550000038,
          "velocity": 0.3937007874015748,
          "duration": 0.8875725000000045
        },
        {
          "name": "D#5",
          "midi": 75,
          "time": 95.85783000000038,
          "velocity": 0.3937007874015748,
          "duration": 0.5325435000000027
        },
        {
          "name": "F#3",
          "midi": 54,
          "time": 96.21285900000038,
          "velocity": 0.3937007874015748,
          "duration": 0.3550290000000018
        },
        {
          "name": "A#3",
          "midi": 58,
          "time": 96.21285900000038,
          "velocity": 0.3937007874015748,
          "duration": 4.260348000000022
        },
        {
          "name": "D#3",
          "midi": 51,
          "time": 96.21285900000038,
          "velocity": 0.3937007874015748,
          "duration": 0.3550290000000018
        },
        {
          "name": "B4",
          "midi": 71,
          "time": 96.39037350000038,
          "velocity": 0.3937007874015748,
          "duration": 0.1775145000000009
        },
        {
          "name": "E2",
          "midi": 40,
          "time": 96.56788800000038,
          "velocity": 0.3937007874015748,
          "duration": 0.5325435000000027
        },
        {
          "name": "C#5",
          "midi": 73,
          "time": 96.56788800000038,
          "velocity": 0.3937007874015748,
          "duration": 0.1775145000000009
        },
        {
          "name": "D#5",
          "midi": 75,
          "time": 96.74540250000038,
          "velocity": 0.3937007874015748,
          "duration": 0.1775145000000009
        },
        {
          "name": "C#5",
          "midi": 73,
          "time": 96.92291700000038,
          "velocity": 0.3937007874015748,
          "duration": 0.1775145000000009
        },
        {
          "name": "B4",
          "midi": 71,
          "time": 97.10043150000038,
          "velocity": 0.3937007874015748,
          "duration": 0.1775145000000009
        },
        {
          "name": "B3",
          "midi": 59,
          "time": 97.10043150000038,
          "velocity": 0.3937007874015748,
          "duration": 0.8875725000000045
        },
        {
          "name": "E3",
          "midi": 52,
          "time": 97.10043150000038,
          "velocity": 0.3937007874015748,
          "duration": 0.5325435000000027
        },
        {
          "name": "G#3",
          "midi": 56,
          "time": 97.10043150000038,
          "velocity": 0.3937007874015748,
          "duration": 0.8875725000000045
        },
        {
          "name": "G#4",
          "midi": 68,
          "time": 97.27794600000038,
          "velocity": 0.3937007874015748,
          "duration": 0.7100580000000036
        },
        {
          "name": "G#3",
          "midi": 56,
          "time": 97.63297500000039,
          "velocity": 0.3937007874015748,
          "duration": 1.4201160000000073
        },
        {
          "name": "B3",
          "midi": 59,
          "time": 97.63297500000039,
          "velocity": 0.3937007874015748,
          "duration": 1.4201160000000073
        },
        {
          "name": "E3",
          "midi": 52,
          "time": 97.63297500000039,
          "velocity": 0.3937007874015748,
          "duration": 0.3550290000000018
        },
        {
          "name": "C#5",
          "midi": 73,
          "time": 97.98800400000039,
          "velocity": 0.3937007874015748,
          "duration": 0.1775145000000009
        },
        {
          "name": "E2",
          "midi": 40,
          "time": 97.98800400000039,
          "velocity": 0.3937007874015748,
          "duration": 0.5325435000000027
        },
        {
          "name": "D#5",
          "midi": 75,
          "time": 98.16551850000039,
          "velocity": 0.3937007874015748,
          "duration": 0.1775145000000009
        },
        {
          "name": "C#5",
          "midi": 73,
          "time": 98.34303300000039,
          "velocity": 0.3937007874015748,
          "duration": 0.1775145000000009
        },
        {
          "name": "E3",
          "midi": 52,
          "time": 98.52054750000039,
          "velocity": 0.3937007874015748,
          "duration": 0.5325435000000027
        },
        {
          "name": "G#3",
          "midi": 56,
          "time": 98.52054750000039,
          "velocity": 0.3937007874015748,
          "duration": 0.8875725000000045
        },
        {
          "name": "B3",
          "midi": 59,
          "time": 98.52054750000039,
          "velocity": 0.3937007874015748,
          "duration": 0.8875725000000045
        },
        {
          "name": "B4",
          "midi": 71,
          "time": 98.52054750000039,
          "velocity": 0.3937007874015748,
          "duration": 0.1775145000000009
        },
        {
          "name": "G#4",
          "midi": 68,
          "time": 98.69806200000039,
          "velocity": 0.3937007874015748,
          "duration": 0.3550290000000018
        },
        {
          "name": "B3",
          "midi": 59,
          "time": 99.05309100000039,
          "velocity": 0.3937007874015748,
          "duration": 4.260348000000022
        },
        {
          "name": "E3",
          "midi": 52,
          "time": 99.05309100000039,
          "velocity": 0.3937007874015748,
          "duration": 0.3550290000000018
        },
        {
          "name": "B4",
          "midi": 71,
          "time": 99.05309100000039,
          "velocity": 0.3937007874015748,
          "duration": 0.3550290000000018
        },
        {
          "name": "G#3",
          "midi": 56,
          "time": 99.05309100000039,
          "velocity": 0.3937007874015748,
          "duration": 4.260348000000022
        },
        {
          "name": "D#2",
          "midi": 39,
          "time": 99.4081200000004,
          "velocity": 0.3937007874015748,
          "duration": 0.5325435000000027
        },
        {
          "name": "C#5",
          "midi": 73,
          "time": 99.4081200000004,
          "velocity": 0.3937007874015748,
          "duration": 0.1775145000000009
        },
        {
          "name": "D#5",
          "midi": 75,
          "time": 99.5856345000004,
          "velocity": 0.3937007874015748,
          "duration": 0.1775145000000009
        },
        {
          "name": "C#5",
          "midi": 73,
          "time": 99.7631490000004,
          "velocity": 0.3937007874015748,
          "duration": 0.1775145000000009
        },
        {
          "name": "D#3",
          "midi": 51,
          "time": 99.9406635000004,
          "velocity": 0.3937007874015748,
          "duration": 0.5325435000000027
        },
        {
          "name": "F#3",
          "midi": 54,
          "time": 99.9406635000004,
          "velocity": 0.3937007874015748,
          "duration": 0.5325435000000027
        },
        {
          "name": "A#3",
          "midi": 58,
          "time": 99.9406635000004,
          "velocity": 0.3937007874015748,
          "duration": 0.8875725000000045
        },
        {
          "name": "B4",
          "midi": 71,
          "time": 99.9406635000004,
          "velocity": 0.3937007874015748,
          "duration": 0.1775145000000009
        },
        {
          "name": "A#4",
          "midi": 70,
          "time": 100.1181780000004,
          "velocity": 0.3937007874015748,
          "duration": 0.7100580000000036
        },
        {
          "name": "F#3",
          "midi": 54,
          "time": 100.4732070000004,
          "velocity": 0.3937007874015748,
          "duration": 0.3550290000000018
        },
        {
          "name": "A#3",
          "midi": 58,
          "time": 100.4732070000004,
          "velocity": 0.3937007874015748,
          "duration": 1.4201160000000073
        },
        {
          "name": "D#3",
          "midi": 51,
          "time": 100.4732070000004,
          "velocity": 0.3937007874015748,
          "duration": 0.3550290000000018
        },
        {
          "name": "D#2",
          "midi": 39,
          "time": 100.8282360000004,
          "velocity": 0.3937007874015748,
          "duration": 0.5325435000000027
        },
        {
          "name": "G#5",
          "midi": 80,
          "time": 101.1832650000004,
          "velocity": 0.3937007874015748,
          "duration": 0.3550290000000018
        },
        {
          "name": "F#3",
          "midi": 54,
          "time": 101.3607795000004,
          "velocity": 0.3937007874015748,
          "duration": 0.5325435000000027
        },
        {
          "name": "A#3",
          "midi": 58,
          "time": 101.3607795000004,
          "velocity": 0.3937007874015748,
          "duration": 0.8875725000000045
        },
        {
          "name": "D#3",
          "midi": 51,
          "time": 101.3607795000004,
          "velocity": 0.3937007874015748,
          "duration": 0.5325435000000027
        },
        {
          "name": "D#5",
          "midi": 75,
          "time": 101.5382940000004,
          "velocity": 0.3937007874015748,
          "duration": 0.5325435000000027
        },
        {
          "name": "F#3",
          "midi": 54,
          "time": 101.89332300000041,
          "velocity": 0.3937007874015748,
          "duration": 0.3550290000000018
        },
        {
          "name": "D#3",
          "midi": 51,
          "time": 101.89332300000041,
          "velocity": 0.3937007874015748,
          "duration": 0.3550290000000018
        },
        {
          "name": "A#3",
          "midi": 58,
          "time": 101.89332300000041,
          "velocity": 0.3937007874015748,
          "duration": 5.680464000000029
        },
        {
          "name": "B4",
          "midi": 71,
          "time": 102.07083750000041,
          "velocity": 0.3937007874015748,
          "duration": 0.1775145000000009
        },
        {
          "name": "E2",
          "midi": 40,
          "time": 102.24835200000041,
          "velocity": 0.3937007874015748,
          "duration": 0.5325435000000027
        },
        {
          "name": "C#5",
          "midi": 73,
          "time": 102.24835200000041,
          "velocity": 0.3937007874015748,
          "duration": 0.1775145000000009
        },
        {
          "name": "D#5",
          "midi": 75,
          "time": 102.42586650000041,
          "velocity": 0.3937007874015748,
          "duration": 0.1775145000000009
        },
        {
          "name": "C#5",
          "midi": 73,
          "time": 102.60338100000041,
          "velocity": 0.3937007874015748,
          "duration": 0.1775145000000009
        },
        {
          "name": "B4",
          "midi": 71,
          "time": 102.78089550000041,
          "velocity": 0.3937007874015748,
          "duration": 0.1775145000000009
        },
        {
          "name": "E3",
          "midi": 52,
          "time": 102.78089550000041,
          "velocity": 0.3937007874015748,
          "duration": 0.5325435000000027
        },
        {
          "name": "B3",
          "midi": 59,
          "time": 102.78089550000041,
          "velocity": 0.3937007874015748,
          "duration": 0.8875725000000045
        },
        {
          "name": "G#3",
          "midi": 56,
          "time": 102.78089550000041,
          "velocity": 0.3937007874015748,
          "duration": 0.8875725000000045
        },
        {
          "name": "G#4",
          "midi": 68,
          "time": 102.95841000000041,
          "velocity": 0.3937007874015748,
          "duration": 0.7100580000000036
        },
        {
          "name": "B3",
          "midi": 59,
          "time": 103.31343900000041,
          "velocity": 0.3937007874015748,
          "duration": 1.4201160000000073
        },
        {
          "name": "G#3",
          "midi": 56,
          "time": 103.31343900000041,
          "velocity": 0.3937007874015748,
          "duration": 1.4201160000000073
        },
        {
          "name": "E3",
          "midi": 52,
          "time": 103.31343900000041,
          "velocity": 0.3937007874015748,
          "duration": 0.3550290000000018
        },
        {
          "name": "C#5",
          "midi": 73,
          "time": 103.66846800000042,
          "velocity": 0.3937007874015748,
          "duration": 0.1775145000000009
        },
        {
          "name": "E2",
          "midi": 40,
          "time": 103.66846800000042,
          "velocity": 0.3937007874015748,
          "duration": 0.5325435000000027
        },
        {
          "name": "D#5",
          "midi": 75,
          "time": 103.84598250000042,
          "velocity": 0.3937007874015748,
          "duration": 0.1775145000000009
        },
        {
          "name": "C#5",
          "midi": 73,
          "time": 104.02349700000042,
          "velocity": 0.3937007874015748,
          "duration": 0.1775145000000009
        },
        {
          "name": "E3",
          "midi": 52,
          "time": 104.20101150000042,
          "velocity": 0.3937007874015748,
          "duration": 0.5325435000000027
        },
        {
          "name": "G#3",
          "midi": 56,
          "time": 104.20101150000042,
          "velocity": 0.3937007874015748,
          "duration": 0.8875725000000045
        },
        {
          "name": "B3",
          "midi": 59,
          "time": 104.20101150000042,
          "velocity": 0.3937007874015748,
          "duration": 0.8875725000000045
        },
        {
          "name": "B4",
          "midi": 71,
          "time": 104.20101150000042,
          "velocity": 0.3937007874015748,
          "duration": 0.1775145000000009
        },
        {
          "name": "G#4",
          "midi": 68,
          "time": 104.37852600000042,
          "velocity": 0.3937007874015748,
          "duration": 0.3550290000000018
        },
        {
          "name": "B4",
          "midi": 71,
          "time": 104.73355500000042,
          "velocity": 0.3937007874015748,
          "duration": 0.3550290000000018
        },
        {
          "name": "E3",
          "midi": 52,
          "time": 104.73355500000042,
          "velocity": 0.3937007874015748,
          "duration": 0.3550290000000018
        },
        {
          "name": "G#3",
          "midi": 56,
          "time": 104.73355500000042,
          "velocity": 0.3937007874015748,
          "duration": 4.260348000000022
        },
        {
          "name": "B3",
          "midi": 59,
          "time": 104.73355500000042,
          "velocity": 0.3937007874015748,
          "duration": 4.260348000000022
        },
        {
          "name": "C#5",
          "midi": 73,
          "time": 105.08858400000042,
          "velocity": 0.3937007874015748,
          "duration": 0.1775145000000009
        },
        {
          "name": "D#5",
          "midi": 75,
          "time": 105.26609850000042,
          "velocity": 0.3937007874015748,
          "duration": 0.1775145000000009
        },
        {
          "name": "C#5",
          "midi": 73,
          "time": 105.44361300000043,
          "velocity": 0.3937007874015748,
          "duration": 0.1775145000000009
        },
        {
          "name": "B4",
          "midi": 71,
          "time": 105.62112750000043,
          "velocity": 0.3937007874015748,
          "duration": 0.1775145000000009
        },
        {
          "name": "A#4",
          "midi": 70,
          "time": 105.79864200000043,
          "velocity": 0.3937007874015748,
          "duration": 0.7100580000000036
        },
        {
          "name": "A#2",
          "midi": 46,
          "time": 106.50870000000043,
          "velocity": 0.3937007874015748,
          "duration": 0.5325435000000027
        },
        {
          "name": "D#4",
          "midi": 63,
          "time": 106.50870000000043,
          "velocity": 0.3937007874015748,
          "duration": 0.1775145000000009
        },
        {
          "name": "D#5",
          "midi": 75,
          "time": 106.50870000000043,
          "velocity": 0.3937007874015748,
          "duration": 0.1775145000000009
        },
        {
          "name": "F#2",
          "midi": 42,
          "time": 106.50870000000043,
          "velocity": 0.3937007874015748,
          "duration": 0.5325435000000027
        },
        {
          "name": "D#2",
          "midi": 39,
          "time": 106.50870000000043,
          "velocity": 0.3937007874015748,
          "duration": 0.5325435000000027
        },
        {
          "name": "D#4",
          "midi": 63,
          "time": 106.68621450000043,
          "velocity": 0.3937007874015748,
          "duration": 0.1775145000000009
        },
        {
          "name": "D#5",
          "midi": 75,
          "time": 106.68621450000043,
          "velocity": 0.3937007874015748,
          "duration": 0.1775145000000009
        },
        {
          "name": "D#5",
          "midi": 75,
          "time": 106.86372900000043,
          "velocity": 0.3937007874015748,
          "duration": 0.1775145000000009
        },
        {
          "name": "D#4",
          "midi": 63,
          "time": 106.86372900000043,
          "velocity": 0.3937007874015748,
          "duration": 0.1775145000000009
        },
        {
          "name": "A#3",
          "midi": 58,
          "time": 107.04124350000043,
          "velocity": 0.3937007874015748,
          "duration": 0.8875725000000045
        },
        {
          "name": "F#3",
          "midi": 54,
          "time": 107.04124350000043,
          "velocity": 0.3937007874015748,
          "duration": 0.5325435000000027
        },
        {
          "name": "D#3",
          "midi": 51,
          "time": 107.04124350000043,
          "velocity": 0.3937007874015748,
          "duration": 0.5325435000000027
        },
        {
          "name": "C#5",
          "midi": 73,
          "time": 107.04124350000043,
          "velocity": 0.3937007874015748,
          "duration": 0.1775145000000009
        },
        {
          "name": "C#4",
          "midi": 61,
          "time": 107.04124350000043,
          "velocity": 0.3937007874015748,
          "duration": 0.1775145000000009
        },
        {
          "name": "D#4",
          "midi": 63,
          "time": 107.21875800000043,
          "velocity": 0.3937007874015748,
          "duration": 0.7100580000000036
        },
        {
          "name": "D#5",
          "midi": 75,
          "time": 107.21875800000043,
          "velocity": 0.3937007874015748,
          "duration": 0.7100580000000036
        },
        {
          "name": "A#3",
          "midi": 58,
          "time": 107.57378700000044,
          "velocity": 0.3937007874015748,
          "duration": 4.260348000000022
        },
        {
          "name": "D#3",
          "midi": 51,
          "time": 107.57378700000044,
          "velocity": 0.3937007874015748,
          "duration": 0.3550290000000018
        },
        {
          "name": "F#3",
          "midi": 54,
          "time": 107.57378700000044,
          "velocity": 0.3937007874015748,
          "duration": 0.3550290000000018
        },
        {
          "name": "E5",
          "midi": 76,
          "time": 107.92881600000044,
          "velocity": 0.3937007874015748,
          "duration": 0.1775145000000009
        },
        {
          "name": "E4",
          "midi": 64,
          "time": 107.92881600000044,
          "velocity": 0.3937007874015748,
          "duration": 0.1775145000000009
        },
        {
          "name": "E2",
          "midi": 40,
          "time": 107.92881600000044,
          "velocity": 0.3937007874015748,
          "duration": 0.5325435000000027
        },
        {
          "name": "G#2",
          "midi": 44,
          "time": 107.92881600000044,
          "velocity": 0.3937007874015748,
          "duration": 0.5325435000000027
        },
        {
          "name": "B2",
          "midi": 47,
          "time": 107.92881600000044,
          "velocity": 0.3937007874015748,
          "duration": 0.5325435000000027
        },
        {
          "name": "E4",
          "midi": 64,
          "time": 108.10633050000044,
          "velocity": 0.3937007874015748,
          "duration": 0.1775145000000009
        },
        {
          "name": "E5",
          "midi": 76,
          "time": 108.10633050000044,
          "velocity": 0.3937007874015748,
          "duration": 0.1775145000000009
        },
        {
          "name": "E4",
          "midi": 64,
          "time": 108.28384500000044,
          "velocity": 0.3937007874015748,
          "duration": 0.1775145000000009
        },
        {
          "name": "E5",
          "midi": 76,
          "time": 108.28384500000044,
          "velocity": 0.3937007874015748,
          "duration": 0.1775145000000009
        },
        {
          "name": "D#4",
          "midi": 63,
          "time": 108.46135950000044,
          "velocity": 0.3937007874015748,
          "duration": 0.1775145000000009
        },
        {
          "name": "G#3",
          "midi": 56,
          "time": 108.46135950000044,
          "velocity": 0.3937007874015748,
          "duration": 0.8875725000000045
        },
        {
          "name": "D#5",
          "midi": 75,
          "time": 108.46135950000044,
          "velocity": 0.3937007874015748,
          "duration": 0.1775145000000009
        },
        {
          "name": "B3",
          "midi": 59,
          "time": 108.46135950000044,
          "velocity": 0.3937007874015748,
          "duration": 0.8875725000000045
        },
        {
          "name": "E3",
          "midi": 52,
          "time": 108.46135950000044,
          "velocity": 0.3937007874015748,
          "duration": 0.5325435000000027
        },
        {
          "name": "E5",
          "midi": 76,
          "time": 108.63887400000044,
          "velocity": 0.3937007874015748,
          "duration": 0.7100580000000036
        },
        {
          "name": "E4",
          "midi": 64,
          "time": 108.63887400000044,
          "velocity": 0.3937007874015748,
          "duration": 0.7100580000000036
        },
        {
          "name": "E3",
          "midi": 52,
          "time": 108.99390300000044,
          "velocity": 0.3937007874015748,
          "duration": 0.3550290000000018
        },
        {
          "name": "G#3",
          "midi": 56,
          "time": 108.99390300000044,
          "velocity": 0.3937007874015748,
          "duration": 1.4201160000000073
        },
        {
          "name": "B3",
          "midi": 59,
          "time": 108.99390300000044,
          "velocity": 0.3937007874015748,
          "duration": 1.4201160000000073
        },
        {
          "name": "E4",
          "midi": 64,
          "time": 109.34893200000045,
          "velocity": 0.3937007874015748,
          "duration": 0.1775145000000009
        },
        {
          "name": "E5",
          "midi": 76,
          "time": 109.34893200000045,
          "velocity": 0.3937007874015748,
          "duration": 0.1775145000000009
        },
        {
          "name": "B2",
          "midi": 47,
          "time": 109.34893200000045,
          "velocity": 0.3937007874015748,
          "duration": 0.5325435000000027
        },
        {
          "name": "G#2",
          "midi": 44,
          "time": 109.34893200000045,
          "velocity": 0.3937007874015748,
          "duration": 0.5325435000000027
        },
        {
          "name": "E2",
          "midi": 40,
          "time": 109.34893200000045,
          "velocity": 0.3937007874015748,
          "duration": 0.5325435000000027
        },
        {
          "name": "E5",
          "midi": 76,
          "time": 109.52644650000045,
          "velocity": 0.3937007874015748,
          "duration": 0.1775145000000009
        },
        {
          "name": "E4",
          "midi": 64,
          "time": 109.52644650000045,
          "velocity": 0.3937007874015748,
          "duration": 0.1775145000000009
        },
        {
          "name": "E5",
          "midi": 76,
          "time": 109.70396100000045,
          "velocity": 0.3937007874015748,
          "duration": 0.1775145000000009
        },
        {
          "name": "E4",
          "midi": 64,
          "time": 109.70396100000045,
          "velocity": 0.3937007874015748,
          "duration": 0.1775145000000009
        },
        {
          "name": "E4",
          "midi": 64,
          "time": 109.88147550000045,
          "velocity": 0.3937007874015748,
          "duration": 0.1775145000000009
        },
        {
          "name": "E5",
          "midi": 76,
          "time": 109.88147550000045,
          "velocity": 0.3937007874015748,
          "duration": 0.1775145000000009
        },
        {
          "name": "E3",
          "midi": 52,
          "time": 109.88147550000045,
          "velocity": 0.3937007874015748,
          "duration": 0.5325435000000027
        },
        {
          "name": "G#3",
          "midi": 56,
          "time": 109.88147550000045,
          "velocity": 0.3937007874015748,
          "duration": 0.8875725000000045
        },
        {
          "name": "B3",
          "midi": 59,
          "time": 109.88147550000045,
          "velocity": 0.3937007874015748,
          "duration": 0.8875725000000045
        },
        {
          "name": "F#5",
          "midi": 78,
          "time": 110.05899000000045,
          "velocity": 0.3937007874015748,
          "duration": 0.3550290000000018
        },
        {
          "name": "F#4",
          "midi": 66,
          "time": 110.05899000000045,
          "velocity": 0.3937007874015748,
          "duration": 0.3550290000000018
        },
        {
          "name": "E4",
          "midi": 64,
          "time": 110.41401900000045,
          "velocity": 0.3937007874015748,
          "duration": 0.3550290000000018
        },
        {
          "name": "E5",
          "midi": 76,
          "time": 110.41401900000045,
          "velocity": 0.3937007874015748,
          "duration": 0.3550290000000018
        },
        {
          "name": "G#3",
          "midi": 56,
          "time": 110.41401900000045,
          "velocity": 0.3937007874015748,
          "duration": 4.260348000000022
        },
        {
          "name": "E3",
          "midi": 52,
          "time": 110.41401900000045,
          "velocity": 0.3937007874015748,
          "duration": 0.3550290000000018
        },
        {
          "name": "B3",
          "midi": 59,
          "time": 110.41401900000045,
          "velocity": 0.3937007874015748,
          "duration": 4.260348000000022
        },
        {
          "name": "D#4",
          "midi": 63,
          "time": 110.76904800000045,
          "velocity": 0.3937007874015748,
          "duration": 0.1775145000000009
        },
        {
          "name": "D#2",
          "midi": 39,
          "time": 110.76904800000045,
          "velocity": 0.3937007874015748,
          "duration": 0.5325435000000027
        },
        {
          "name": "D#5",
          "midi": 75,
          "time": 110.76904800000045,
          "velocity": 0.3937007874015748,
          "duration": 0.1775145000000009
        },
        {
          "name": "F#2",
          "midi": 42,
          "time": 110.76904800000045,
          "velocity": 0.3937007874015748,
          "duration": 0.5325435000000027
        },
        {
          "name": "A#2",
          "midi": 46,
          "time": 110.76904800000045,
          "velocity": 0.3937007874015748,
          "duration": 0.5325435000000027
        },
        {
          "name": "D#5",
          "midi": 75,
          "time": 110.94656250000045,
          "velocity": 0.3937007874015748,
          "duration": 0.1775145000000009
        },
        {
          "name": "D#4",
          "midi": 63,
          "time": 110.94656250000045,
          "velocity": 0.3937007874015748,
          "duration": 0.1775145000000009
        },
        {
          "name": "D#5",
          "midi": 75,
          "time": 111.12407700000045,
          "velocity": 0.3937007874015748,
          "duration": 0.1775145000000009
        },
        {
          "name": "D#4",
          "midi": 63,
          "time": 111.12407700000045,
          "velocity": 0.3937007874015748,
          "duration": 0.1775145000000009
        },
        {
          "name": "D#3",
          "midi": 51,
          "time": 111.30159150000046,
          "velocity": 0.3937007874015748,
          "duration": 0.5325435000000027
        },
        {
          "name": "F#3",
          "midi": 54,
          "time": 111.30159150000046,
          "velocity": 0.3937007874015748,
          "duration": 0.5325435000000027
        },
        {
          "name": "A#3",
          "midi": 58,
          "time": 111.30159150000046,
          "velocity": 0.3937007874015748,
          "duration": 0.8875725000000045
        },
        {
          "name": "C#5",
          "midi": 73,
          "time": 111.30159150000046,
          "velocity": 0.3937007874015748,
          "duration": 0.1775145000000009
        },
        {
          "name": "C#4",
          "midi": 61,
          "time": 111.30159150000046,
          "velocity": 0.3937007874015748,
          "duration": 0.1775145000000009
        },
        {
          "name": "D#5",
          "midi": 75,
          "time": 111.47910600000046,
          "velocity": 0.3937007874015748,
          "duration": 0.7100580000000036
        },
        {
          "name": "D#4",
          "midi": 63,
          "time": 111.47910600000046,
          "velocity": 0.3937007874015748,
          "duration": 0.7100580000000036
        },
        {
          "name": "A#3",
          "midi": 58,
          "time": 111.83413500000046,
          "velocity": 0.3937007874015748,
          "duration": 1.4201160000000073
        },
        {
          "name": "D#3",
          "midi": 51,
          "time": 111.83413500000046,
          "velocity": 0.3937007874015748,
          "duration": 0.3550290000000018
        },
        {
          "name": "F#3",
          "midi": 54,
          "time": 111.83413500000046,
          "velocity": 0.3937007874015748,
          "duration": 0.3550290000000018
        },
        {
          "name": "D#2",
          "midi": 39,
          "time": 112.18916400000046,
          "velocity": 0.3937007874015748,
          "duration": 0.5325435000000027
        },
        {
          "name": "F#2",
          "midi": 42,
          "time": 112.18916400000046,
          "velocity": 0.3937007874015748,
          "duration": 0.5325435000000027
        },
        {
          "name": "A#2",
          "midi": 46,
          "time": 112.18916400000046,
          "velocity": 0.3937007874015748,
          "duration": 0.5325435000000027
        },
        {
          "name": "D#4",
          "midi": 63,
          "time": 112.18916400000046,
          "velocity": 0.3937007874015748,
          "duration": 0.1775145000000009
        },
        {
          "name": "D#5",
          "midi": 75,
          "time": 112.18916400000046,
          "velocity": 0.3937007874015748,
          "duration": 0.1775145000000009
        },
        {
          "name": "D#4",
          "midi": 63,
          "time": 112.36667850000046,
          "velocity": 0.3937007874015748,
          "duration": 0.1775145000000009
        },
        {
          "name": "D#5",
          "midi": 75,
          "time": 112.36667850000046,
          "velocity": 0.3937007874015748,
          "duration": 0.1775145000000009
        },
        {
          "name": "D#5",
          "midi": 75,
          "time": 112.54419300000046,
          "velocity": 0.3937007874015748,
          "duration": 0.1775145000000009
        },
        {
          "name": "D#4",
          "midi": 63,
          "time": 112.54419300000046,
          "velocity": 0.3937007874015748,
          "duration": 0.1775145000000009
        },
        {
          "name": "A#3",
          "midi": 58,
          "time": 112.72170750000046,
          "velocity": 0.3937007874015748,
          "duration": 0.8875725000000045
        },
        {
          "name": "F#3",
          "midi": 54,
          "time": 112.72170750000046,
          "velocity": 0.3937007874015748,
          "duration": 0.5325435000000027
        },
        {
          "name": "D#3",
          "midi": 51,
          "time": 112.72170750000046,
          "velocity": 0.3937007874015748,
          "duration": 0.5325435000000027
        },
        {
          "name": "C#4",
          "midi": 61,
          "time": 112.72170750000046,
          "velocity": 0.3937007874015748,
          "duration": 0.1775145000000009
        },
        {
          "name": "C#5",
          "midi": 73,
          "time": 112.72170750000046,
          "velocity": 0.3937007874015748,
          "duration": 0.1775145000000009
        },
        {
          "name": "D#5",
          "midi": 75,
          "time": 112.89922200000046,
          "velocity": 0.3937007874015748,
          "duration": 0.7100580000000036
        },
        {
          "name": "D#4",
          "midi": 63,
          "time": 112.89922200000046,
          "velocity": 0.3937007874015748,
          "duration": 0.7100580000000036
        },
        {
          "name": "D#3",
          "midi": 51,
          "time": 113.25425100000047,
          "velocity": 0.3937007874015748,
          "duration": 0.3550290000000018
        },
        {
          "name": "A#3",
          "midi": 58,
          "time": 113.25425100000047,
          "velocity": 0.3937007874015748,
          "duration": 5.147920500000026
        },
        {
          "name": "F#3",
          "midi": 54,
          "time": 113.25425100000047,
          "velocity": 0.3937007874015748,
          "duration": 0.3550290000000018
        },
        {
          "name": "E5",
          "midi": 76,
          "time": 113.60928000000047,
          "velocity": 0.3937007874015748,
          "duration": 0.1775145000000009
        },
        {
          "name": "E4",
          "midi": 64,
          "time": 113.60928000000047,
          "velocity": 0.3937007874015748,
          "duration": 0.1775145000000009
        },
        {
          "name": "B2",
          "midi": 47,
          "time": 113.60928000000047,
          "velocity": 0.3937007874015748,
          "duration": 0.5325435000000027
        },
        {
          "name": "G#2",
          "midi": 44,
          "time": 113.60928000000047,
          "velocity": 0.3937007874015748,
          "duration": 0.5325435000000027
        },
        {
          "name": "E2",
          "midi": 40,
          "time": 113.60928000000047,
          "velocity": 0.3937007874015748,
          "duration": 0.5325435000000027
        },
        {
          "name": "E5",
          "midi": 76,
          "time": 113.78679450000047,
          "velocity": 0.3937007874015748,
          "duration": 0.1775145000000009
        },
        {
          "name": "E4",
          "midi": 64,
          "time": 113.78679450000047,
          "velocity": 0.3937007874015748,
          "duration": 0.1775145000000009
        },
        {
          "name": "E5",
          "midi": 76,
          "time": 113.96430900000047,
          "velocity": 0.3937007874015748,
          "duration": 0.1775145000000009
        },
        {
          "name": "E4",
          "midi": 64,
          "time": 113.96430900000047,
          "velocity": 0.3937007874015748,
          "duration": 0.1775145000000009
        },
        {
          "name": "D#4",
          "midi": 63,
          "time": 114.14182350000047,
          "velocity": 0.3937007874015748,
          "duration": 0.1775145000000009
        },
        {
          "name": "E3",
          "midi": 52,
          "time": 114.14182350000047,
          "velocity": 0.3937007874015748,
          "duration": 0.5325435000000027
        },
        {
          "name": "B3",
          "midi": 59,
          "time": 114.14182350000047,
          "velocity": 0.3937007874015748,
          "duration": 0.8875725000000045
        },
        {
          "name": "D#5",
          "midi": 75,
          "time": 114.14182350000047,
          "velocity": 0.3937007874015748,
          "duration": 0.1775145000000009
        },
        {
          "name": "G#3",
          "midi": 56,
          "time": 114.14182350000047,
          "velocity": 0.3937007874015748,
          "duration": 0.8875725000000045
        },
        {
          "name": "E5",
          "midi": 76,
          "time": 114.31933800000047,
          "velocity": 0.3937007874015748,
          "duration": 0.7100580000000036
        },
        {
          "name": "E4",
          "midi": 64,
          "time": 114.31933800000047,
          "velocity": 0.3937007874015748,
          "duration": 0.7100580000000036
        },
        {
          "name": "E3",
          "midi": 52,
          "time": 114.67436700000047,
          "velocity": 0.3937007874015748,
          "duration": 0.3550290000000018
        },
        {
          "name": "B3",
          "midi": 59,
          "time": 114.67436700000047,
          "velocity": 0.3937007874015748,
          "duration": 1.4201160000000073
        },
        {
          "name": "G#3",
          "midi": 56,
          "time": 114.67436700000047,
          "velocity": 0.3937007874015748,
          "duration": 1.4201160000000073
        },
        {
          "name": "E4",
          "midi": 64,
          "time": 115.02939600000047,
          "velocity": 0.3937007874015748,
          "duration": 0.1775145000000009
        },
        {
          "name": "E5",
          "midi": 76,
          "time": 115.02939600000047,
          "velocity": 0.3937007874015748,
          "duration": 0.1775145000000009
        },
        {
          "name": "B2",
          "midi": 47,
          "time": 115.02939600000047,
          "velocity": 0.3937007874015748,
          "duration": 0.5325435000000027
        },
        {
          "name": "G#2",
          "midi": 44,
          "time": 115.02939600000047,
          "velocity": 0.3937007874015748,
          "duration": 0.5325435000000027
        },
        {
          "name": "E2",
          "midi": 40,
          "time": 115.02939600000047,
          "velocity": 0.3937007874015748,
          "duration": 0.5325435000000027
        },
        {
          "name": "E4",
          "midi": 64,
          "time": 115.20691050000048,
          "velocity": 0.3937007874015748,
          "duration": 0.1775145000000009
        },
        {
          "name": "E5",
          "midi": 76,
          "time": 115.20691050000048,
          "velocity": 0.3937007874015748,
          "duration": 0.1775145000000009
        },
        {
          "name": "E5",
          "midi": 76,
          "time": 115.38442500000048,
          "velocity": 0.3937007874015748,
          "duration": 0.1775145000000009
        },
        {
          "name": "E4",
          "midi": 64,
          "time": 115.38442500000048,
          "velocity": 0.3937007874015748,
          "duration": 0.1775145000000009
        },
        {
          "name": "B3",
          "midi": 59,
          "time": 115.56193950000048,
          "velocity": 0.3937007874015748,
          "duration": 0.8875725000000045
        },
        {
          "name": "E5",
          "midi": 76,
          "time": 115.56193950000048,
          "velocity": 0.3937007874015748,
          "duration": 0.1775145000000009
        },
        {
          "name": "E4",
          "midi": 64,
          "time": 115.56193950000048,
          "velocity": 0.3937007874015748,
          "duration": 0.1775145000000009
        },
        {
          "name": "E3",
          "midi": 52,
          "time": 115.56193950000048,
          "velocity": 0.3937007874015748,
          "duration": 0.5325435000000027
        },
        {
          "name": "G#3",
          "midi": 56,
          "time": 115.56193950000048,
          "velocity": 0.3937007874015748,
          "duration": 0.8875725000000045
        },
        {
          "name": "F#4",
          "midi": 66,
          "time": 115.73945400000048,
          "velocity": 0.3937007874015748,
          "duration": 0.3550290000000018
        },
        {
          "name": "F#5",
          "midi": 78,
          "time": 115.73945400000048,
          "velocity": 0.3937007874015748,
          "duration": 0.3550290000000018
        },
        {
          "name": "E5",
          "midi": 76,
          "time": 116.09448300000048,
          "velocity": 0.3937007874015748,
          "duration": 0.3550290000000018
        },
        {
          "name": "B3",
          "midi": 59,
          "time": 116.09448300000048,
          "velocity": 0.3937007874015748,
          "duration": 2.8402320000000145
        },
        {
          "name": "G#3",
          "midi": 56,
          "time": 116.09448300000048,
          "velocity": 0.3937007874015748,
          "duration": 1.4201160000000073
        },
        {
          "name": "E3",
          "midi": 52,
          "time": 116.09448300000048,
          "velocity": 0.3937007874015748,
          "duration": 0.3550290000000018
        },
        {
          "name": "E4",
          "midi": 64,
          "time": 116.09448300000048,
          "velocity": 0.3937007874015748,
          "duration": 0.3550290000000018
        },
        {
          "name": "D#4",
          "midi": 63,
          "time": 116.44951200000048,
          "velocity": 0.3937007874015748,
          "duration": 0.1775145000000009
        },
        {
          "name": "D#4",
          "midi": 63,
          "time": 116.62702650000048,
          "velocity": 0.3937007874015748,
          "duration": 0.1775145000000009
        },
        {
          "name": "D#4",
          "midi": 63,
          "time": 116.80454100000048,
          "velocity": 0.3937007874015748,
          "duration": 0.1775145000000009
        },
        {
          "name": "C#4",
          "midi": 61,
          "time": 116.98205550000048,
          "velocity": 0.3937007874015748,
          "duration": 0.1775145000000009
        },
        {
          "name": "D#4",
          "midi": 63,
          "time": 117.15957000000049,
          "velocity": 0.3937007874015748,
          "duration": 0.1775145000000009
        },
        {
          "name": "B4",
          "midi": 71,
          "time": 117.33708450000049,
          "velocity": 0.3937007874015748,
          "duration": 0.1775145000000009
        },
        {
          "name": "G#3",
          "midi": 56,
          "time": 117.33708450000049,
          "velocity": 0.3937007874015748,
          "duration": 0.5325435000000027
        },
        {
          "name": "C#5",
          "midi": 73,
          "time": 117.51459900000049,
          "velocity": 0.3937007874015748,
          "duration": 0.1775145000000009
        },
        {
          "name": "G#3",
          "midi": 56,
          "time": 117.69211350000049,
          "velocity": 0.3937007874015748,
          "duration": 1.775145000000009
        },
        {
          "name": "D#5",
          "midi": 75,
          "time": 117.69211350000049,
          "velocity": 0.3937007874015748,
          "duration": 0.1775145000000009
        },
        {
          "name": "D#5",
          "midi": 75,
          "time": 117.86962800000049,
          "velocity": 0.3937007874015748,
          "duration": 0.5325435000000027
        },
        {
          "name": "A#3",
          "midi": 58,
          "time": 117.86962800000049,
          "velocity": 0.3937007874015748,
          "duration": 1.0650870000000054
        },
        {
          "name": "D#4",
          "midi": 63,
          "time": 117.86962800000049,
          "velocity": 0.3937007874015748,
          "duration": 0.5325435000000027
        },
        {
          "name": "F#3",
          "midi": 54,
          "time": 117.86962800000049,
          "velocity": 0.3937007874015748,
          "duration": 0.5325435000000027
        },
        {
          "name": "D#3",
          "midi": 51,
          "time": 117.86962800000049,
          "velocity": 0.3937007874015748,
          "duration": 0.5325435000000027
        },
        {
          "name": "A#3",
          "midi": 58,
          "time": 118.40217150000049,
          "velocity": 0.3937007874015748,
          "duration": 0.8875725000000045
        },
        {
          "name": "B4",
          "midi": 71,
          "time": 118.40217150000049,
          "velocity": 0.3937007874015748,
          "duration": 0.5325435000000027
        },
        {
          "name": "B3",
          "midi": 59,
          "time": 118.40217150000049,
          "velocity": 0.3937007874015748,
          "duration": 1.4201160000000073
        },
        {
          "name": "D#3",
          "midi": 51,
          "time": 118.40217150000049,
          "velocity": 0.3937007874015748,
          "duration": 0.5325435000000027
        },
        {
          "name": "F#3",
          "midi": 54,
          "time": 118.40217150000049,
          "velocity": 0.3937007874015748,
          "duration": 0.5325435000000027
        },
        {
          "name": "C#4",
          "midi": 61,
          "time": 118.9347150000005,
          "velocity": 0.3937007874015748,
          "duration": 0.5325435000000027
        },
        {
          "name": "C#5",
          "midi": 73,
          "time": 118.9347150000005,
          "velocity": 0.3937007874015748,
          "duration": 0.5325435000000027
        },
        {
          "name": "D#3",
          "midi": 51,
          "time": 118.9347150000005,
          "velocity": 0.3937007874015748,
          "duration": 0.3550290000000018
        },
        {
          "name": "F#3",
          "midi": 54,
          "time": 118.9347150000005,
          "velocity": 0.3937007874015748,
          "duration": 0.3550290000000018
        },
        {
          "name": "A#3",
          "midi": 58,
          "time": 118.9347150000005,
          "velocity": 0.3937007874015748,
          "duration": 3.727804500000019
        },
        {
          "name": "E3",
          "midi": 52,
          "time": 119.2897440000005,
          "velocity": 0.3937007874015748,
          "duration": 0.5325435000000027
        },
        {
          "name": "B3",
          "midi": 59,
          "time": 119.2897440000005,
          "velocity": 0.3937007874015748,
          "duration": 0.7100580000000036
        },
        {
          "name": "G#3",
          "midi": 56,
          "time": 119.2897440000005,
          "velocity": 0.3937007874015748,
          "duration": 0.5325435000000027
        },
        {
          "name": "G#4",
          "midi": 68,
          "time": 119.4672585000005,
          "velocity": 0.3937007874015748,
          "duration": 0.5325435000000027
        },
        {
          "name": "G#3",
          "midi": 56,
          "time": 119.4672585000005,
          "velocity": 0.3937007874015748,
          "duration": 0.8875725000000045
        },
        {
          "name": "E3",
          "midi": 52,
          "time": 119.8222875000005,
          "velocity": 0.3937007874015748,
          "duration": 0.5325435000000027
        },
        {
          "name": "B3",
          "midi": 59,
          "time": 119.8222875000005,
          "velocity": 0.3937007874015748,
          "duration": 0.5325435000000027
        },
        {
          "name": "G#3",
          "midi": 56,
          "time": 119.8222875000005,
          "velocity": 0.3937007874015748,
          "duration": 0.8875725000000045
        },
        {
          "name": "B3",
          "midi": 59,
          "time": 119.9998020000005,
          "velocity": 0.3937007874015748,
          "duration": 0.7100580000000036
        },
        {
          "name": "B4",
          "midi": 71,
          "time": 119.9998020000005,
          "velocity": 0.3937007874015748,
          "duration": 0.7100580000000036
        },
        {
          "name": "G#3",
          "midi": 56,
          "time": 120.3548310000005,
          "velocity": 0.3937007874015748,
          "duration": 0.8875725000000045
        },
        {
          "name": "E3",
          "midi": 52,
          "time": 120.3548310000005,
          "velocity": 0.3937007874015748,
          "duration": 0.3550290000000018
        },
        {
          "name": "B3",
          "midi": 59,
          "time": 120.3548310000005,
          "velocity": 0.3937007874015748,
          "duration": 0.8875725000000045
        },
        {
          "name": "G#3",
          "midi": 56,
          "time": 120.7098600000005,
          "velocity": 0.3937007874015748,
          "duration": 1.0650870000000054
        },
        {
          "name": "E3",
          "midi": 52,
          "time": 120.7098600000005,
          "velocity": 0.3937007874015748,
          "duration": 0.5325435000000027
        },
        {
          "name": "B3",
          "midi": 59,
          "time": 120.7098600000005,
          "velocity": 0.3937007874015748,
          "duration": 1.0650870000000054
        },
        {
          "name": "G#3",
          "midi": 56,
          "time": 121.2424035000005,
          "velocity": 0.3937007874015748,
          "duration": 0.8875725000000045
        },
        {
          "name": "E3",
          "midi": 52,
          "time": 121.2424035000005,
          "velocity": 0.3937007874015748,
          "duration": 0.5325435000000027
        },
        {
          "name": "B3",
          "midi": 59,
          "time": 121.2424035000005,
          "velocity": 0.3937007874015748,
          "duration": 0.8875725000000045
        },
        {
          "name": "D#4",
          "midi": 63,
          "time": 121.41991800000051,
          "velocity": 0.3937007874015748,
          "duration": 0.1775145000000009
        },
        {
          "name": "D#5",
          "midi": 75,
          "time": 121.41991800000051,
          "velocity": 0.3937007874015748,
          "duration": 0.1775145000000009
        },
        {
          "name": "D#5",
          "midi": 75,
          "time": 121.59743250000051,
          "velocity": 0.3937007874015748,
          "duration": 0.3550290000000018
        },
        {
          "name": "D#4",
          "midi": 63,
          "time": 121.59743250000051,
          "velocity": 0.3937007874015748,
          "duration": 0.3550290000000018
        },
        {
          "name": "G#3",
          "midi": 56,
          "time": 121.77494700000051,
          "velocity": 0.3937007874015748,
          "duration": 3.3727755000000172
        },
        {
          "name": "E3",
          "midi": 52,
          "time": 121.77494700000051,
          "velocity": 0.3937007874015748,
          "duration": 0.3550290000000018
        },
        {
          "name": "B3",
          "midi": 59,
          "time": 121.77494700000051,
          "velocity": 0.3937007874015748,
          "duration": 2.8402320000000145
        },
        {
          "name": "D#4",
          "midi": 63,
          "time": 121.95246150000051,
          "velocity": 0.3937007874015748,
          "duration": 0.1775145000000009
        },
        {
          "name": "D#5",
          "midi": 75,
          "time": 121.95246150000051,
          "velocity": 0.3937007874015748,
          "duration": 0.1775145000000009
        },
        {
          "name": "F#4",
          "midi": 66,
          "time": 122.12997600000051,
          "velocity": 0.3937007874015748,
          "duration": 0.1775145000000009
        },
        {
          "name": "F#3",
          "midi": 54,
          "time": 122.12997600000051,
          "velocity": 0.3937007874015748,
          "duration": 0.5325435000000027
        },
        {
          "name": "F#5",
          "midi": 78,
          "time": 122.12997600000051,
          "velocity": 0.3937007874015748,
          "duration": 0.1775145000000009
        },
        {
          "name": "D#3",
          "midi": 51,
          "time": 122.12997600000051,
          "velocity": 0.3937007874015748,
          "duration": 0.5325435000000027
        },
        {
          "name": "A#3",
          "midi": 58,
          "time": 122.12997600000051,
          "velocity": 0.3937007874015748,
          "duration": 1.0650870000000054
        },
        {
          "name": "E5",
          "midi": 76,
          "time": 122.30749050000051,
          "velocity": 0.3937007874015748,
          "duration": 0.3550290000000018
        },
        {
          "name": "E4",
          "midi": 64,
          "time": 122.30749050000051,
          "velocity": 0.3937007874015748,
          "duration": 0.3550290000000018
        },
        {
          "name": "D#4",
          "midi": 63,
          "time": 122.66251950000051,
          "velocity": 0.3937007874015748,
          "duration": 0.1775145000000009
        },
        {
          "name": "D#3",
          "midi": 51,
          "time": 122.66251950000051,
          "velocity": 0.3937007874015748,
          "duration": 0.5325435000000027
        },
        {
          "name": "A#3",
          "midi": 58,
          "time": 122.66251950000051,
          "velocity": 0.3937007874015748,
          "duration": 0.8875725000000045
        },
        {
          "name": "F#3",
          "midi": 54,
          "time": 122.66251950000051,
          "velocity": 0.3937007874015748,
          "duration": 0.5325435000000027
        },
        {
          "name": "D#5",
          "midi": 75,
          "time": 122.66251950000051,
          "velocity": 0.3937007874015748,
          "duration": 0.1775145000000009
        },
        {
          "name": "D#4",
          "midi": 63,
          "time": 122.84003400000051,
          "velocity": 0.3937007874015748,
          "duration": 0.3550290000000018
        },
        {
          "name": "D#5",
          "midi": 75,
          "time": 122.84003400000051,
          "velocity": 0.3937007874015748,
          "duration": 0.3550290000000018
        },
        {
          "name": "F#3",
          "midi": 54,
          "time": 123.19506300000052,
          "velocity": 0.3937007874015748,
          "duration": 0.3550290000000018
        },
        {
          "name": "D#3",
          "midi": 51,
          "time": 123.19506300000052,
          "velocity": 0.3937007874015748,
          "duration": 0.3550290000000018
        },
        {
          "name": "C#5",
          "midi": 73,
          "time": 123.19506300000052,
          "velocity": 0.3937007874015748,
          "duration": 0.3550290000000018
        },
        {
          "name": "C#4",
          "midi": 61,
          "time": 123.19506300000052,
          "velocity": 0.3937007874015748,
          "duration": 0.3550290000000018
        },
        {
          "name": "A#3",
          "midi": 58,
          "time": 123.19506300000052,
          "velocity": 0.3937007874015748,
          "duration": 0.8875725000000045
        },
        {
          "name": "D#3",
          "midi": 51,
          "time": 123.55009200000052,
          "velocity": 0.3937007874015748,
          "duration": 0.5325435000000027
        },
        {
          "name": "A#3",
          "midi": 58,
          "time": 123.55009200000052,
          "velocity": 0.3937007874015748,
          "duration": 1.0650870000000054
        },
        {
          "name": "D#4",
          "midi": 63,
          "time": 123.55009200000052,
          "velocity": 0.3937007874015748,
          "duration": 0.5325435000000027
        },
        {
          "name": "D#5",
          "midi": 75,
          "time": 123.55009200000052,
          "velocity": 0.3937007874015748,
          "duration": 0.5325435000000027
        },
        {
          "name": "F#3",
          "midi": 54,
          "time": 123.55009200000052,
          "velocity": 0.3937007874015748,
          "duration": 0.5325435000000027
        },
        {
          "name": "B4",
          "midi": 71,
          "time": 124.08263550000052,
          "velocity": 0.3937007874015748,
          "duration": 0.5325435000000027
        },
        {
          "name": "F#3",
          "midi": 54,
          "time": 124.08263550000052,
          "velocity": 0.3937007874015748,
          "duration": 0.5325435000000027
        },
        {
          "name": "A#3",
          "midi": 58,
          "time": 124.08263550000052,
          "velocity": 0.3937007874015748,
          "duration": 0.8875725000000045
        },
        {
          "name": "D#3",
          "midi": 51,
          "time": 124.08263550000052,
          "velocity": 0.3937007874015748,
          "duration": 0.5325435000000027
        },
        {
          "name": "B3",
          "midi": 59,
          "time": 124.08263550000052,
          "velocity": 0.3937007874015748,
          "duration": 1.4201160000000073
        },
        {
          "name": "C#5",
          "midi": 73,
          "time": 124.61517900000052,
          "velocity": 0.3937007874015748,
          "duration": 0.5325435000000027
        },
        {
          "name": "A#3",
          "midi": 58,
          "time": 124.61517900000052,
          "velocity": 0.3937007874015748,
          "duration": 3.727804500000019
        },
        {
          "name": "F#3",
          "midi": 54,
          "time": 124.61517900000052,
          "velocity": 0.3937007874015748,
          "duration": 0.3550290000000018
        },
        {
          "name": "C#4",
          "midi": 61,
          "time": 124.61517900000052,
          "velocity": 0.3937007874015748,
          "duration": 0.5325435000000027
        },
        {
          "name": "D#3",
          "midi": 51,
          "time": 124.61517900000052,
          "velocity": 0.3937007874015748,
          "duration": 0.3550290000000018
        },
        {
          "name": "G#3",
          "midi": 56,
          "time": 124.97020800000053,
          "velocity": 0.3937007874015748,
          "duration": 0.5325435000000027
        },
        {
          "name": "B3",
          "midi": 59,
          "time": 124.97020800000053,
          "velocity": 0.3937007874015748,
          "duration": 0.7100580000000036
        },
        {
          "name": "E3",
          "midi": 52,
          "time": 124.97020800000053,
          "velocity": 0.3937007874015748,
          "duration": 0.5325435000000027
        },
        {
          "name": "G#3",
          "midi": 56,
          "time": 125.14772250000053,
          "velocity": 0.3937007874015748,
          "duration": 0.8875725000000045
        },
        {
          "name": "G#4",
          "midi": 68,
          "time": 125.14772250000053,
          "velocity": 0.3937007874015748,
          "duration": 0.5325435000000027
        },
        {
          "name": "E3",
          "midi": 52,
          "time": 125.50275150000053,
          "velocity": 0.3937007874015748,
          "duration": 0.5325435000000027
        },
        {
          "name": "B3",
          "midi": 59,
          "time": 125.50275150000053,
          "velocity": 0.3937007874015748,
          "duration": 0.5325435000000027
        },
        {
          "name": "G#3",
          "midi": 56,
          "time": 125.50275150000053,
          "velocity": 0.3937007874015748,
          "duration": 0.8875725000000045
        },
        {
          "name": "B3",
          "midi": 59,
          "time": 125.68026600000053,
          "velocity": 0.3937007874015748,
          "duration": 0.7100580000000036
        },
        {
          "name": "B4",
          "midi": 71,
          "time": 125.68026600000053,
          "velocity": 0.3937007874015748,
          "duration": 0.7100580000000036
        },
        {
          "name": "B3",
          "midi": 59,
          "time": 126.03529500000053,
          "velocity": 0.3937007874015748,
          "duration": 0.8875725000000045
        },
        {
          "name": "G#3",
          "midi": 56,
          "time": 126.03529500000053,
          "velocity": 0.3937007874015748,
          "duration": 0.8875725000000045
        },
        {
          "name": "E3",
          "midi": 52,
          "time": 126.03529500000053,
          "velocity": 0.3937007874015748,
          "duration": 0.3550290000000018
        },
        {
          "name": "B3",
          "midi": 59,
          "time": 126.39032400000053,
          "velocity": 0.3937007874015748,
          "duration": 1.0650870000000054
        },
        {
          "name": "G#3",
          "midi": 56,
          "time": 126.39032400000053,
          "velocity": 0.3937007874015748,
          "duration": 1.0650870000000054
        },
        {
          "name": "E3",
          "midi": 52,
          "time": 126.39032400000053,
          "velocity": 0.3937007874015748,
          "duration": 0.5325435000000027
        },
        {
          "name": "B3",
          "midi": 59,
          "time": 126.92286750000054,
          "velocity": 0.3937007874015748,
          "duration": 0.8875725000000045
        },
        {
          "name": "G#3",
          "midi": 56,
          "time": 126.92286750000054,
          "velocity": 0.3937007874015748,
          "duration": 0.8875725000000045
        },
        {
          "name": "E3",
          "midi": 52,
          "time": 126.92286750000054,
          "velocity": 0.3937007874015748,
          "duration": 0.5325435000000027
        },
        {
          "name": "D#5",
          "midi": 75,
          "time": 127.10038200000054,
          "velocity": 0.3937007874015748,
          "duration": 0.1775145000000009
        },
        {
          "name": "D#4",
          "midi": 63,
          "time": 127.10038200000054,
          "velocity": 0.3937007874015748,
          "duration": 0.1775145000000009
        },
        {
          "name": "D#5",
          "midi": 75,
          "time": 127.27789650000054,
          "velocity": 0.3937007874015748,
          "duration": 0.3550290000000018
        },
        {
          "name": "D#4",
          "midi": 63,
          "time": 127.27789650000054,
          "velocity": 0.3937007874015748,
          "duration": 0.3550290000000018
        },
        {
          "name": "B3",
          "midi": 59,
          "time": 127.45541100000054,
          "velocity": 0.3937007874015748,
          "duration": 3.727804500000019
        },
        {
          "name": "E3",
          "midi": 52,
          "time": 127.45541100000054,
          "velocity": 0.3937007874015748,
          "duration": 0.3550290000000018
        },
        {
          "name": "G#3",
          "midi": 56,
          "time": 127.45541100000054,
          "velocity": 0.3937007874015748,
          "duration": 3.727804500000019
        },
        {
          "name": "D#4",
          "midi": 63,
          "time": 127.63292550000054,
          "velocity": 0.3937007874015748,
          "duration": 0.1775145000000009
        },
        {
          "name": "D#5",
          "midi": 75,
          "time": 127.63292550000054,
          "velocity": 0.3937007874015748,
          "duration": 0.1775145000000009
        },
        {
          "name": "F#3",
          "midi": 54,
          "time": 127.81044000000054,
          "velocity": 0.3937007874015748,
          "duration": 0.5325435000000027
        },
        {
          "name": "F#4",
          "midi": 66,
          "time": 127.81044000000054,
          "velocity": 0.3937007874015748,
          "duration": 0.1775145000000009
        },
        {
          "name": "F#5",
          "midi": 78,
          "time": 127.81044000000054,
          "velocity": 0.3937007874015748,
          "duration": 0.1775145000000009
        },
        {
          "name": "D#3",
          "midi": 51,
          "time": 127.81044000000054,
          "velocity": 0.3937007874015748,
          "duration": 0.5325435000000027
        },
        {
          "name": "A#3",
          "midi": 58,
          "time": 127.81044000000054,
          "velocity": 0.3937007874015748,
          "duration": 1.0650870000000054
        },
        {
          "name": "E5",
          "midi": 76,
          "time": 127.98795450000054,
          "velocity": 0.3937007874015748,
          "duration": 0.3550290000000018
        },
        {
          "name": "E4",
          "midi": 64,
          "time": 127.98795450000054,
          "velocity": 0.3937007874015748,
          "duration": 0.3550290000000018
        },
        {
          "name": "D#4",
          "midi": 63,
          "time": 128.34298350000054,
          "velocity": 0.3937007874015748,
          "duration": 0.1775145000000009
        },
        {
          "name": "A#3",
          "midi": 58,
          "time": 128.34298350000054,
          "velocity": 0.3937007874015748,
          "duration": 0.8875725000000045
        },
        {
          "name": "F#3",
          "midi": 54,
          "time": 128.34298350000054,
          "velocity": 0.3937007874015748,
          "duration": 0.5325435000000027
        },
        {
          "name": "D#5",
          "midi": 75,
          "time": 128.34298350000054,
          "velocity": 0.3937007874015748,
          "duration": 0.1775145000000009
        },
        {
          "name": "D#3",
          "midi": 51,
          "time": 128.34298350000054,
          "velocity": 0.3937007874015748,
          "duration": 0.5325435000000027
        },
        {
          "name": "D#5",
          "midi": 75,
          "time": 128.52049800000054,
          "velocity": 0.3937007874015748,
          "duration": 0.3550290000000018
        },
        {
          "name": "D#4",
          "midi": 63,
          "time": 128.52049800000054,
          "velocity": 0.3937007874015748,
          "duration": 0.3550290000000018
        },
        {
          "name": "C#4",
          "midi": 61,
          "time": 128.87552700000055,
          "velocity": 0.3937007874015748,
          "duration": 0.3550290000000018
        },
        {
          "name": "C#5",
          "midi": 73,
          "time": 128.87552700000055,
          "velocity": 0.3937007874015748,
          "duration": 0.3550290000000018
        },
        {
          "name": "D#3",
          "midi": 51,
          "time": 128.87552700000055,
          "velocity": 0.3937007874015748,
          "duration": 0.3550290000000018
        },
        {
          "name": "A#3",
          "midi": 58,
          "time": 128.87552700000055,
          "velocity": 0.3937007874015748,
          "duration": 0.8875725000000045
        },
        {
          "name": "F#3",
          "midi": 54,
          "time": 128.87552700000055,
          "velocity": 0.3937007874015748,
          "duration": 0.3550290000000018
        },
        {
          "name": "A#3",
          "midi": 58,
          "time": 129.23055600000055,
          "velocity": 0.3937007874015748,
          "duration": 1.0650870000000054
        },
        {
          "name": "F#3",
          "midi": 54,
          "time": 129.23055600000055,
          "velocity": 0.3937007874015748,
          "duration": 0.5325435000000027
        },
        {
          "name": "D#3",
          "midi": 51,
          "time": 129.23055600000055,
          "velocity": 0.3937007874015748,
          "duration": 0.5325435000000027
        },
        {
          "name": "A#3",
          "midi": 58,
          "time": 129.76309950000055,
          "velocity": 0.3937007874015748,
          "duration": 0.8875725000000045
        },
        {
          "name": "F#3",
          "midi": 54,
          "time": 129.76309950000055,
          "velocity": 0.3937007874015748,
          "duration": 0.5325435000000027
        },
        {
          "name": "D#3",
          "midi": 51,
          "time": 129.76309950000055,
          "velocity": 0.3937007874015748,
          "duration": 0.5325435000000027
        },
        {
          "name": "G#5",
          "midi": 80,
          "time": 130.11812850000055,
          "velocity": 0.3937007874015748,
          "duration": 0.1775145000000009
        },
        {
          "name": "G#5",
          "midi": 80,
          "time": 130.29564300000055,
          "velocity": 0.3937007874015748,
          "duration": 0.1775145000000009
        },
        {
          "name": "D#3",
          "midi": 51,
          "time": 130.29564300000055,
          "velocity": 0.3937007874015748,
          "duration": 0.3550290000000018
        },
        {
          "name": "F#3",
          "midi": 54,
          "time": 130.29564300000055,
          "velocity": 0.3937007874015748,
          "duration": 0.3550290000000018
        },
        {
          "name": "A#3",
          "midi": 58,
          "time": 130.29564300000055,
          "velocity": 0.3937007874015748,
          "duration": 4.260348000000022
        },
        {
          "name": "G#5",
          "midi": 80,
          "time": 130.47315750000055,
          "velocity": 0.3937007874015748,
          "duration": 0.3550290000000018
        },
        {
          "name": "G#3",
          "midi": 56,
          "time": 130.65067200000055,
          "velocity": 0.3937007874015748,
          "duration": 1.0650870000000054
        },
        {
          "name": "B3",
          "midi": 59,
          "time": 130.65067200000055,
          "velocity": 0.3937007874015748,
          "duration": 1.0650870000000054
        },
        {
          "name": "E3",
          "midi": 52,
          "time": 130.65067200000055,
          "velocity": 0.3937007874015748,
          "duration": 0.5325435000000027
        },
        {
          "name": "D#5",
          "midi": 75,
          "time": 130.82818650000056,
          "velocity": 0.3937007874015748,
          "duration": 0.3550290000000018
        },
        {
          "name": "E3",
          "midi": 52,
          "time": 131.18321550000056,
          "velocity": 0.3937007874015748,
          "duration": 0.5325435000000027
        },
        {
          "name": "G#3",
          "midi": 56,
          "time": 131.18321550000056,
          "velocity": 0.3937007874015748,
          "duration": 0.8875725000000045
        },
        {
          "name": "C#5",
          "midi": 73,
          "time": 131.18321550000056,
          "velocity": 0.3937007874015748,
          "duration": 0.1775145000000009
        },
        {
          "name": "B3",
          "midi": 59,
          "time": 131.18321550000056,
          "velocity": 0.3937007874015748,
          "duration": 0.8875725000000045
        },
        {
          "name": "D#5",
          "midi": 75,
          "time": 131.36073000000056,
          "velocity": 0.3937007874015748,
          "duration": 0.7100580000000036
        },
        {
          "name": "G#3",
          "midi": 56,
          "time": 131.71575900000056,
          "velocity": 0.3937007874015748,
          "duration": 0.8875725000000045
        },
        {
          "name": "E3",
          "midi": 52,
          "time": 131.71575900000056,
          "velocity": 0.3937007874015748,
          "duration": 0.3550290000000018
        },
        {
          "name": "B3",
          "midi": 59,
          "time": 131.71575900000056,
          "velocity": 0.3937007874015748,
          "duration": 0.8875725000000045
        },
        {
          "name": "E3",
          "midi": 52,
          "time": 132.07078800000056,
          "velocity": 0.3937007874015748,
          "duration": 0.5325435000000027
        },
        {
          "name": "G#3",
          "midi": 56,
          "time": 132.07078800000056,
          "velocity": 0.3937007874015748,
          "duration": 1.0650870000000054
        },
        {
          "name": "B3",
          "midi": 59,
          "time": 132.07078800000056,
          "velocity": 0.3937007874015748,
          "duration": 1.0650870000000054
        },
        {
          "name": "E3",
          "midi": 52,
          "time": 132.60333150000056,
          "velocity": 0.3937007874015748,
          "duration": 0.5325435000000027
        },
        {
          "name": "G#3",
          "midi": 56,
          "time": 132.60333150000056,
          "velocity": 0.3937007874015748,
          "duration": 0.8875725000000045
        },
        {
          "name": "B3",
          "midi": 59,
          "time": 132.60333150000056,
          "velocity": 0.3937007874015748,
          "duration": 0.8875725000000045
        },
        {
          "name": "B3",
          "midi": 59,
          "time": 133.13587500000057,
          "velocity": 0.3937007874015748,
          "duration": 2.8402320000000145
        },
        {
          "name": "G#3",
          "midi": 56,
          "time": 133.13587500000057,
          "velocity": 0.3937007874015748,
          "duration": 2.8402320000000145
        },
        {
          "name": "E3",
          "midi": 52,
          "time": 133.13587500000057,
          "velocity": 0.3937007874015748,
          "duration": 0.3550290000000018
        },
        {
          "name": "D#3",
          "midi": 51,
          "time": 133.49090400000057,
          "velocity": 0.3937007874015748,
          "duration": 0.5325435000000027
        },
        {
          "name": "A#3",
          "midi": 58,
          "time": 134.02344750000057,
          "velocity": 0.3937007874015748,
          "duration": 0.8875725000000045
        },
        {
          "name": "F#3",
          "midi": 54,
          "time": 134.02344750000057,
          "velocity": 0.3937007874015748,
          "duration": 0.5325435000000027
        },
        {
          "name": "A#3",
          "midi": 58,
          "time": 134.55599100000057,
          "velocity": 0.3937007874015748,
          "duration": 4.260348000000022
        },
        {
          "name": "F#3",
          "midi": 54,
          "time": 134.55599100000057,
          "velocity": 0.3937007874015748,
          "duration": 0.3550290000000018
        },
        {
          "name": "E3",
          "midi": 52,
          "time": 134.91102000000058,
          "velocity": 0.3937007874015748,
          "duration": 0.5325435000000027
        },
        {
          "name": "B3",
          "midi": 59,
          "time": 135.44356350000058,
          "velocity": 0.3937007874015748,
          "duration": 0.8875725000000045
        },
        {
          "name": "G#3",
          "midi": 56,
          "time": 135.44356350000058,
          "velocity": 0.3937007874015748,
          "duration": 0.8875725000000045
        },
        {
          "name": "G#3",
          "midi": 56,
          "time": 135.97610700000058,
          "velocity": 0.3937007874015748,
          "duration": 1.4201160000000073
        },
        {
          "name": "B3",
          "midi": 59,
          "time": 135.97610700000058,
          "velocity": 0.3937007874015748,
          "duration": 1.4201160000000073
        },
        {
          "name": "E3",
          "midi": 52,
          "time": 136.33113600000058,
          "velocity": 0.3937007874015748,
          "duration": 0.5325435000000027
        },
        {
          "name": "B3",
          "midi": 59,
          "time": 136.8636795000006,
          "velocity": 0.3937007874015748,
          "duration": 0.8875725000000045
        },
        {
          "name": "G#3",
          "midi": 56,
          "time": 136.8636795000006,
          "velocity": 0.3937007874015748,
          "duration": 0.8875725000000045
        },
        {
          "name": "G#3",
          "midi": 56,
          "time": 137.3962230000006,
          "velocity": 0.3937007874015748,
          "duration": 0
        },
        {
          "name": "B3",
          "midi": 59,
          "time": 137.3962230000006,
          "velocity": 0.3937007874015748,
          "duration": 0
        },
        {
          "name": "D#3",
          "midi": 51,
          "time": 137.7512520000006,
          "velocity": 0.3937007874015748,
          "duration": 0.5325435000000027
        },
        {
          "name": "F#3",
          "midi": 54,
          "time": 138.2837955000006,
          "velocity": 0.3937007874015748,
          "duration": 0.5325435000000027
        },
        {
          "name": "A#3",
          "midi": 58,
          "time": 138.2837955000006,
          "velocity": 0.3937007874015748,
          "duration": 0.8875725000000045
        },
        {
          "name": "A#3",
          "midi": 58,
          "time": 138.8163390000006,
          "velocity": 0.3937007874015748,
          "duration": 1.6863877499999944
        },
        {
          "name": "F#3",
          "midi": 54,
          "time": 138.8163390000006,
          "velocity": 0.3937007874015748,
          "duration": 0.3550290000000018
        },
        {
          "name": "D#4",
          "midi": 63,
          "time": 139.1713680000006,
          "velocity": 0.3937007874015748,
          "duration": 1.3313587499999926
        },
        {
          "name": "A#3",
          "midi": 58,
          "time": 139.1713680000006,
          "velocity": 0.3937007874015748,
          "duration": 0
        },
        {
          "name": "F#3",
          "midi": 54,
          "time": 139.1713680000006,
          "velocity": 0.3937007874015748,
          "duration": 1.3313587499999926
        },
        {
          "name": "D#3",
          "midi": 51,
          "time": 139.1713680000006,
          "velocity": 0.3937007874015748,
          "duration": 1.3313587499999926
        }
      ],
      "controlChanges": {},
      "id": 1,
      "name": "Elec. Piano (Classic)",
      "instrumentNumber": 0,
      "instrument": "acoustic grand piano",
      "instrumentFamily": "piano",
      "channelNumber": 0,
      "isPercussion": false
    }
  ]
}
